{
classes = (
{
automatic = 1;
code = "A Aacute Abreve Acircumflex Adieresis Agrave Amacron Aogonek Aring Aringacute Atilde AE AEacute B C Cacute Ccaron Ccedilla Ccircumflex Cdotaccent D Eth Dcaron Dcroat E Eacute Ebreve Ecaron Ecircumflex Edieresis Edotaccent Egrave Emacron Eogonek F G Gbreve Gcircumflex Gcommaaccent Gdotaccent H Hbar Hcircumflex I IJ Iacute Ibreve Icircumflex Idieresis Idotaccent Igrave Imacron Iogonek Itilde J Jcircumflex K Kcommaaccent L Lacute Lcaron Lcommaaccent Ldot Lslash M N Nacute Ncaron Ncommaaccent Eng Ntilde O Oacute Obreve Ocircumflex Odieresis Ograve Ohungarumlaut Omacron Oslash Oslashacute Otilde OE P Thorn Q R Racute Rcaron Rcommaaccent S Sacute Scaron Scedilla Scircumflex Scommaaccent T Tbar Tcaron Tcedilla Tcommaaccent U Uacute Ubreve Ucircumflex Udieresis Ugrave Uhungarumlaut Umacron Uogonek Uring Utilde V W Wacute Wcircumflex Wdieresis Wgrave X Y Yacute Ycircumflex Ydieresis Ygrave Z Zacute Zcaron Zdotaccent Delta Omega";
name = Uppercase;
},
{
code = "ka-deva kha-deva ga-deva gha-deva nga-deva ca-deva cha-deva ja-deva jha-deva nya-deva tta-deva ttha-deva dda-deva ddha-deva nna-deva ta-deva tha-deva da-deva dha-deva na-deva nnna-deva pa-deva pha-deva ba-deva bha-deva ma-deva ya-deva ra-deva rra-deva la-deva lla-deva llla-deva va-deva sha-deva ssa-deva sa-deva ha-deva qa-deva khha-deva ghha-deva za-deva dddha-deva rha-deva fa-deva yya-deva zha-deva jjya-deva gga-deva jja-deva ddda-deva bba-deva la-deva.loclMAR sha-deva.loclMAR ya-deva.post va-deva.post na-deva.post2 ra-deva.post2 k_ssa-deva j_nya-deva\012";
name = DevaFullforms;
},
{

glyphs = (
{
glyphname = A;
lastChange = "2014-09-12 03:52:47 -0300";
layers = (
{
anchors = (
{
name = bottom;
position = "{308, 0}";
},
{
name = ogonek;
position = "{611, 40}";
},
{
name = top;
position = "{341, 647}";
}
);
layerId = "F8053E42-0B7C-4D2D-91AF-B2EFB3EA087D";
name = Bold;
paths = (
{
closed = 1;
nodes = (
"499 301 OFFCURVE",
"409 648 OFFCURVE",
"409 648 CURVE",
"398 653 LINE",
"239 637 LINE",
"61 130 LINE",
"45 86 OFFCURVE",
"27 69 OFFCURVE",
"-4 64 CURVE",
"-12 -3 LINE",
"-12 -3 OFFCURVE",
"55 0 OFFCURVE",
"110 0 CURVE SMOOTH",
"173 0 OFFCURVE",
"256 -6 OFFCURVE",
"256 -6 CURVE",
"263 57 LINE",
"258 64 LINE",
"216 64 LINE",
"181 64 OFFCURVE",
"170 71 OFFCURVE",
"170 94 CURVE SMOOTH",
"170 101 OFFCURVE",
"172 111 OFFCURVE",
"176 125 CURVE SMOOTH",
"200 200 LINE",
"224 203 OFFCURVE",
"264 207 OFFCURVE",
"295 207 CURVE SMOOTH",
"319 207 OFFCURVE",
"360 207 OFFCURVE",
"386 206 CURVE",
"406 130 LINE",
"410 116 OFFCURVE",
"412 105 OFFCURVE",
"412 97 CURVE SMOOTH",
"412 72 OFFCURVE",
"400 66 OFFCURVE",
"335 61 CURVE",
"330 0 LINE",
"335 -8 LINE",
"335 -8 OFFCURVE",
"419 0 OFFCURVE",
"504 0 CURVE SMOOTH",
"548 0 OFFCURVE",
"627 -3 OFFCURVE",
"627 -3 CURVE",
"634 56 LINE",
"630 63 LINE",
"585 67 OFFCURVE",
"566 85 OFFCURVE",
"552 132 CURVE SMOOTH"
);
},
{
closed = 1;
nodes = (
"296 510 LINE",
"310 510 LINE",
"368 290 LINE",
"347 288 OFFCURVE",
"315 286 OFFCURVE",
"294 286 CURVE SMOOTH",
"224 286 LINE"
);
}
);
width = 625;
}
);
leftKerningGroup = A;
rightKerningGroup = A;
unicode = 0041;
},
{
glyphname = AE;
lastChange = "2014-09-12 03:52:47 -0300";
layers = (
{
anchors = (
{
name = top;
position = "{499, 647}";
}
);
layerId = "F8053E42-0B7C-4D2D-91AF-B2EFB3EA087D";
name = Bold;
paths = (
{
closed = 1;
nodes = (
"315 0 LINE",
"320 -8 LINE",
"320 -8 OFFCURVE",
"398 0 OFFCURVE",
"479 0 CURVE SMOOTH",
"516 0 LINE SMOOTH",
"643 0 OFFCURVE",
"810 -8 OFFCURVE",
"810 -7 CURVE",
"820 4 LINE",
"830 100 OFFCURVE",
"848 190 OFFCURVE",
"848 190 CURVE",
"840 200 LINE",
"756 193 LINE",
"742 93 OFFCURVE",
"725 78 OFFCURVE",
"613 78 CURVE SMOOTH",
"571 78 OFFCURVE",
"551 98 OFFCURVE",
"543 146 CURVE SMOOTH",
"523 269 LINE",
"611 279 LINE",
"702 286 LINE",
"714 370 LINE",
"704 380 LINE",
"608 361 LINE",
"511 349 LINE",
"486 531 LINE",
"487 554 OFFCURVE",
"494 558 OFFCURVE",
"539 558 CURVE SMOOTH",
"652 558 OFFCURVE",
"668 550 OFFCURVE",
"668 495 CURVE SMOOTH",
"668 481 OFFCURVE",
"666 455 OFFCURVE",
"666 455 CURVE",
"757 461 LINE",
"762 554 OFFCURVE",
"780 643 OFFCURVE",
"780 643 CURVE",
"772 654 LINE",
"723 647 OFFCURVE",
"604 642 OFFCURVE",
"451 642 CURVE SMOOTH",
"321 642 OFFCURVE",
"209 645 OFFCURVE",
"209 645 CURVE",
"201 584 LINE",
"208 575 LINE",
"208 575 OFFCURVE",
"227 577 OFFCURVE",
"238 577 CURVE SMOOTH",
"253 577 OFFCURVE",
"261 572 OFFCURVE",
"264 555 CURVE",
"56 130 LINE SMOOTH",
"33 87 OFFCURVE",
"8 60 OFFCURVE",
"-4 57 CURVE",
"1 -3 LINE",
"1 -3 OFFCURVE",
"42 0 OFFCURVE",
"74 0 CURVE SMOOTH",
"131 0 OFFCURVE",
"240 -5 OFFCURVE",
"241 -6 CURVE",
"247 59 LINE",
"214 64 LINE SMOOTH",
"172 64 OFFCURVE",
"159 69 OFFCURVE",
"159 88 CURVE SMOOTH",
"159 96 OFFCURVE",
"162 107 OFFCURVE",
"170 125 CURVE SMOOTH",
"214 222 LINE",
"299 238 LINE",
"386 249 LINE",
"398 157 LINE SMOOTH",
"400 139 OFFCURVE",
"402 124 OFFCURVE",
"402 108 CURVE SMOOTH",
"402 75 OFFCURVE",
"387 67 OFFCURVE",
"319 61 CURVE"
);
},
{
closed = 1;
nodes = (
"252 317 LINE",
"341 510 LINE",
"356 510 LINE",
"378 329 LINE",
"316 321 LINE"
);
}
);
width = 871;
}
);
leftKerningGroup = A;
rightKerningGroup = E;
unicode = 00C6;
},
{
glyphname = B;
lastChange = "2014-09-12 03:52:47 -0300";
layers = (
{
anchors = (
{
name = bottom;
position = "{330, 0}";
},
{
name = top;
position = "{335, 647}";
}
);
layerId = "F8053E42-0B7C-4D2D-91AF-B2EFB3EA087D";
name = Bold;
paths = (
{
closed = 1;
nodes = (
"221 0 OFFCURVE",
"294 -9 OFFCURVE",
"331 -10 CURVE SMOOTH",
"488 -10 OFFCURVE",
"592 69 OFFCURVE",
"592 190 CURVE SMOOTH",
"592 271 OFFCURVE",
"530 318 OFFCURVE",
"451 339 CURVE",
"514 372 OFFCURVE",
"558 422 OFFCURVE",
"558 492 CURVE SMOOTH",
"558 593 OFFCURVE",
"484 647 OFFCURVE",
"346 647 CURVE SMOOTH",
"346 647 OFFCURVE",
"228 642 OFFCURVE",
"192 642 CURVE SMOOTH",
"157 642 OFFCURVE",
"54 644 OFFCURVE",
"54 644 CURVE",
"44 583 LINE",
"51 575 LINE",
"51 575 OFFCURVE",
"73 577 OFFCURVE",
"85 577 CURVE SMOOTH",
"109 577 OFFCURVE",
"117 564 OFFCURVE",
"117 527 CURVE SMOOTH",
"116 137 LINE SMOOTH",
"116 85 OFFCURVE",
"101 68 OFFCURVE",
"43 58 CURVE",
"36 -10 LINE",
"36 -10 OFFCURVE",
"125 0 OFFCURVE",
"182 0 CURVE SMOOTH"
);
},
{
closed = 1;
nodes = (
"343 281 LINE",
"409 266 OFFCURVE",
"444 229 OFFCURVE",
"444 176 CURVE SMOOTH",
"444 113 OFFCURVE",
"406 76 OFFCURVE",
"341 76 CURVE SMOOTH",
"274 76 OFFCURVE",
"247 93 OFFCURVE",
"247 135 CURVE",
"251 280 LINE"
);
},
{
closed = 1;
nodes = (
"254 412 OFFCURVE",
"257 491 OFFCURVE",
"261 546 CURVE SMOOTH",
"262 560 OFFCURVE",
"266 564 OFFCURVE",
"279 564 CURVE SMOOTH",
"373 564 OFFCURVE",
"417 533 OFFCURVE",
"417 466 CURVE SMOOTH",
"417 384 OFFCURVE",
"348 360 OFFCURVE",
"348 360 CURVE",
"329 360 OFFCURVE",
"253 369 OFFCURVE",
"253 369 CURVE"
);
}
);
width = 629;
}
);
leftKerningGroup = H;
rightKerningGroup = B;
unicode = 0042;
},
{
glyphname = C;
lastChange = "2014-09-12 03:52:47 -0300";
layers = (
{
anchors = (
{
name = bottom;
position = "{314, 0}";
},
{
name = top;
position = "{335, 647}";
}
);
layerId = "F8053E42-0B7C-4D2D-91AF-B2EFB3EA087D";
name = Bold;
paths = (
{
closed = 1;
nodes = (
"449 -12 OFFCURVE",
"545 28 OFFCURVE",
"545 28 CURVE",
"555 40 LINE",
"558 123 OFFCURVE",
"575 227 OFFCURVE",
"575 227 CURVE",
"476 220 LINE",
"460 123 OFFCURVE",
"422 82 OFFCURVE",
"350 82 CURVE SMOOTH",
"246 82 OFFCURVE",
"184 175 OFFCURVE",
"184 338 CURVE SMOOTH",
"184 484 OFFCURVE",
"240 557 OFFCURVE",
"343 557 CURVE SMOOTH",
"418 557 OFFCURVE",
"452 531 OFFCURVE",
"452 473 CURVE SMOOTH",
"452 447 OFFCURVE",
"450 420 OFFCURVE",
"450 420 CURVE",
"549 427 LINE",
"555 533 OFFCURVE",
"575 616 OFFCURVE",
"575 616 CURVE",
"569 629 LINE",
"569 629 OFFCURVE",
"462 654 OFFCURVE",
"378 654 CURVE SMOOTH",
"164 654 OFFCURVE",
"28 517 OFFCURVE",
"28 304 CURVE SMOOTH",
"27.9902 108 OFFCURVE",
"141 -12 OFFCURVE",
"325 -12 CURVE SMOOTH"
);
}
);
width = 617;
}
);
leftKerningGroup = O;
rightKerningGroup = C;
unicode = 0043;
},
{
glyphname = D;
lastChange = "2014-09-12 03:52:47 -0300";
layers = (
{
anchors = (
{
name = bottom;
position = "{318, 0}";
},
{
name = center;
position = "{341, 324}";
},
{
name = top;
position = "{347, 647}";
}
);
layerId = "F8053E42-0B7C-4D2D-91AF-B2EFB3EA087D";
name = Bold;
paths = (
{
closed = 1;
nodes = (
"521 -12 OFFCURVE",
"665 136 OFFCURVE",
"665 347 CURVE SMOOTH",
"665 535 OFFCURVE",
"544 647 OFFCURVE",
"341 647 CURVE SMOOTH",
"341 647 OFFCURVE",
"229 642 OFFCURVE",
"183 642 CURVE SMOOTH",
"143 642 OFFCURVE",
"55 645 OFFCURVE",
"55 645 CURVE",
"47 583 LINE",
"53 574 LINE",
"53 574 OFFCURVE",
"73 576 OFFCURVE",
"86 576 CURVE SMOOTH",
"111 576 OFFCURVE",
"117 565 OFFCURVE",
"117 522 CURVE SMOOTH",
"117 143 LINE SMOOTH",
"117 87 OFFCURVE",
"101 69 OFFCURVE",
"45 59 CURVE",
"38 -10 LINE",
"38 -10 OFFCURVE",
"114 0 OFFCURVE",
"166 0 CURVE SMOOTH",
"223 0 OFFCURVE",
"318 -12 OFFCURVE",
"318 -12 CURVE"
);
},
{
closed = 1;
nodes = (
"436 560 OFFCURVE",
"507 486 OFFCURVE",
"507 316 CURVE SMOOTH",
"507 156 OFFCURVE",
"446 75 OFFCURVE",
"330 75 CURVE SMOOTH",
"264 75 OFFCURVE",
"247 89 OFFCURVE",
"247 146 CURVE SMOOTH",
"247 235 OFFCURVE",
"252 368 OFFCURVE",
"260 536 CURVE SMOOTH",
"261 555 OFFCURVE",
"267 560 OFFCURVE",
"288 560 CURVE SMOOTH"
);
}
);
width = 693;
}
);
leftKerningGroup = H;
rightKerningGroup = O;
unicode = 0044;
},
{
glyphname = Eth;
lastChange = "2014-09-12 03:52:47 -0300";
layers = (
{
layerId = "F8053E42-0B7C-4D2D-91AF-B2EFB3EA087D";
name = Bold;
paths = (
{
closed = 1;
nodes = (
"536 -12 OFFCURVE",
"680 136 OFFCURVE",
"680 347 CURVE SMOOTH",
"680 533 OFFCURVE",
"557 647 OFFCURVE",
"356 647 CURVE SMOOTH",
"356 647 OFFCURVE",
"238 642 OFFCURVE",
"198 642 CURVE SMOOTH",
"158 642 OFFCURVE",
"70 645 OFFCURVE",
"70 645 CURVE",
"62 583 LINE",
"68 574 LINE",
"68 574 OFFCURVE",
"88 576 OFFCURVE",
"101 576 CURVE SMOOTH",
"126 576 OFFCURVE",
"132 565 OFFCURVE",
"132 522 CURVE SMOOTH",
"132 353 LINE",
"18 353 LINE",
"8 293 LINE",
"16 286 LINE",
"132 286 LINE",
"132 162 LINE SMOOTH",
"132 86 OFFCURVE",
"120 69 OFFCURVE",
"60 59 CURVE",
"53 -10 LINE",
"53 -10 OFFCURVE",
"129 0 OFFCURVE",
"181 0 CURVE SMOOTH",
"238 0 OFFCURVE",
"333 -12 OFFCURVE",
"333 -12 CURVE"
);
},
{
closed = 1;
nodes = (
"275 536 LINE SMOOTH",
"276 555 OFFCURVE",
"282 560 OFFCURVE",
"303 560 CURVE SMOOTH",
"451 560 OFFCURVE",
"522 486 OFFCURVE",
"522 316 CURVE SMOOTH",
"522 156 OFFCURVE",
"461 75 OFFCURVE",
"345 75 CURVE SMOOTH",
"279 75 OFFCURVE",
"262 89 OFFCURVE",
"262 146 CURVE SMOOTH",
"265 286 LINE",
"391 286 LINE",
"397 346 LINE",
"391 355 LINE",
"267 353 LINE"
);
}
);
width = 709;
}
);
unicode = 00D0;
},
{
glyphname = Dcroat;
lastChange = "2014-09-12 03:52:47 -0300";
layers = (
{
layerId = "F8053E42-0B7C-4D2D-91AF-B2EFB3EA087D";
name = Bold;
paths = (
{
closed = 1;
nodes = (
"536 -12 OFFCURVE",
"680 136 OFFCURVE",
"680 347 CURVE SMOOTH",
"680 533 OFFCURVE",
"557 647 OFFCURVE",
"356 647 CURVE SMOOTH",
"356 647 OFFCURVE",
"238 642 OFFCURVE",
"198 642 CURVE SMOOTH",
"158 642 OFFCURVE",
"70 645 OFFCURVE",
"70 645 CURVE",
"62 583 LINE",
"68 574 LINE",
"68 574 OFFCURVE",
"88 576 OFFCURVE",
"101 576 CURVE SMOOTH",
"126 576 OFFCURVE",
"132 565 OFFCURVE",
"132 522 CURVE SMOOTH",
"132 353 LINE",
"18 353 LINE",
"8 293 LINE",
"16 286 LINE",
"132 286 LINE",
"132 162 LINE SMOOTH",
"132 86 OFFCURVE",
"120 69 OFFCURVE",
"60 59 CURVE",
"53 -10 LINE",
"53 -10 OFFCURVE",
"129 0 OFFCURVE",
"181 0 CURVE SMOOTH",
"238 0 OFFCURVE",
"333 -12 OFFCURVE",
"333 -12 CURVE"
);
},
{
closed = 1;
nodes = (
"275 536 LINE SMOOTH",
"276 555 OFFCURVE",
"282 560 OFFCURVE",
"303 560 CURVE SMOOTH",
"451 560 OFFCURVE",
"522 486 OFFCURVE",
"522 316 CURVE SMOOTH",
"522 156 OFFCURVE",
"461 75 OFFCURVE",
"345 75 CURVE SMOOTH",
"279 75 OFFCURVE",
"262 89 OFFCURVE",
"262 146 CURVE SMOOTH",
"265 286 LINE",
"391 286 LINE",
"397 346 LINE",
"391 355 LINE",
"267 353 LINE"
);
}
);
width = 709;
}
);
rightKerningGroup = O;
unicode = 0110;
},
{
glyphname = E;
lastChange = "2014-09-12 03:52:47 -0300";
layers = (
{
anchors = (
{
name = bottom;
position = "{318, 0}";
},
{
name = ogonek;
position = "{524, 40}";
},
{
name = top;
position = "{326, 647}";
}
);
layerId = "F8053E42-0B7C-4D2D-91AF-B2EFB3EA087D";
name = Bold;
paths = (
{
closed = 1;
nodes = (
"247 166 OFFCURVE",
"247 206 OFFCURVE",
"249 279 CURVE",
"267 281 OFFCURVE",
"296 285 OFFCURVE",
"325 285 CURVE SMOOTH",
"375 285 OFFCURVE",
"456 282 OFFCURVE",
"456 282 CURVE",
"470 368 LINE",
"462 377 LINE",
"462 377 OFFCURVE",
"379 369 OFFCURVE",
"346 369 CURVE SMOOTH",
"317 369 OFFCURVE",
"273 370 OFFCURVE",
"253 370 CURVE",
"260 525 LINE",
"260 555 OFFCURVE",
"265 558 OFFCURVE",
"312 558 CURVE SMOOTH",
"425 558 OFFCURVE",
"439 550 OFFCURVE",
"439 495 CURVE SMOOTH",
"439 481 OFFCURVE",
"437 455 OFFCURVE",
"437 455 CURVE",
"528 461 LINE",
"534 554 OFFCURVE",
"551 643 OFFCURVE",
"551 643 CURVE",
"543 654 LINE",
"482 646 OFFCURVE",
"382 642 OFFCURVE",
"239 642 CURVE SMOOTH",
"164 642 OFFCURVE",
"55 645 OFFCURVE",
"55 645 CURVE",
"47 584 LINE",
"54 575 LINE",
"54 575 OFFCURVE",
"72 577 OFFCURVE",
"84 577 CURVE SMOOTH",
"110 577 OFFCURVE",
"116 566 OFFCURVE",
"116 523 CURVE SMOOTH",
"115 144 LINE SMOOTH",
"115 86 OFFCURVE",
"99 66 OFFCURVE",
"43 58 CURVE",
"36 -10 LINE",
"36 -10 OFFCURVE",
"121 0 OFFCURVE",
"210 0 CURVE SMOOTH",
"333 0 OFFCURVE",
"521 -7 OFFCURVE",
"521 -7 CURVE",
"531 4 LINE",
"541 100 OFFCURVE",
"559 190 OFFCURVE",
"559 190 CURVE",
"551 200 LINE",
"467 193 LINE",
"453 93 OFFCURVE",
"434 79 OFFCURVE",
"311 79 CURVE SMOOTH",
"253 79 OFFCURVE",
"247 86 OFFCURVE",
"247 139 CURVE SMOOTH"
);
}
);
width = 597;
}
);
leftKerningGroup = H;
rightKerningGroup = E;
unicode = 0045;
},
{
glyphname = F;
lastChange = "2014-09-12 03:52:47 -0300";
layers = (
{
anchors = (
{
name = bottom;
position = "{182, 0}";
},
{
name = top;
position = "{318, 647}";
}
);
layerId = "F8053E42-0B7C-4D2D-91AF-B2EFB3EA087D";
name = Bold;
paths = (
{
closed = 1;
nodes = (
"249 261 LINE",
"266 264 OFFCURVE",
"296 268 OFFCURVE",
"325 268 CURVE SMOOTH",
"371 268 OFFCURVE",
"444 265 OFFCURVE",
"444 265 CURVE",
"458 351 LINE",
"451 360 LINE",
"451 360 OFFCURVE",
"376 352 OFFCURVE",
"346 352 CURVE SMOOTH",
"252 353 LINE",
"260 525 LINE",
"260 555 OFFCURVE",
"265 558 OFFCURVE",
"312 558 CURVE SMOOTH",
"404 558 OFFCURVE",
"418 549 OFFCURVE",
"418 495 CURVE SMOOTH",
"418 482 OFFCURVE",
"416 454 OFFCURVE",
"416 454 CURVE",
"507 460 LINE",
"512 552 OFFCURVE",
"528 643 OFFCURVE",
"528 643 CURVE",
"520 654 LINE",
"463 646 OFFCURVE",
"365 642 OFFCURVE",
"239 642 CURVE SMOOTH",
"164 642 OFFCURVE",
"55 645 OFFCURVE",
"55 645 CURVE",
"47 584 LINE",
"54 575 LINE",
"54 575 OFFCURVE",
"72 577 OFFCURVE",
"84 577 CURVE SMOOTH",
"110 577 OFFCURVE",
"116 566 OFFCURVE",
"116 523 CURVE SMOOTH",
"115 144 LINE SMOOTH",
"115 86 OFFCURVE",
"100 67 OFFCURVE",
"43 57 CURVE",
"36 -11 LINE",
"36 -11 OFFCURVE",
"121 0 OFFCURVE",
"197 0 CURVE SMOOTH",
"247 0 OFFCURVE",
"352 -4 OFFCURVE",
"352 -4 CURVE",
"363 73 LINE",
"355 84 LINE",
"355 84 OFFCURVE",
"315 78 OFFCURVE",
"290 78 CURVE SMOOTH",
"255 78 OFFCURVE",
"247 91 OFFCURVE",
"247 142 CURVE"
);
}
);
width = 532;
}
);
leftKerningGroup = H;
rightKerningGroup = F;
unicode = 0046;
},
{
glyphname = G;
lastChange = "2014-09-12 03:52:47 -0300";
layers = (
{
anchors = (
{
name = bottom;
position = "{334, 0}";
},
{
name = top;
position = "{342, 647}";
}
);
layerId = "F8053E42-0B7C-4D2D-91AF-B2EFB3EA087D";
name = Bold;
paths = (
{
closed = 1;
nodes = (
"598 332 LINE",
"598 332 OFFCURVE",
"546 327 OFFCURVE",
"496 327 CURVE SMOOTH",
"441 327 OFFCURVE",
"381 329 OFFCURVE",
"357 329 CURVE",
"346 257 LINE",
"352 249 LINE",
"352 249 OFFCURVE",
"384 249 OFFCURVE",
"403 249 CURVE SMOOTH",
"439 249 OFFCURVE",
"447 240 OFFCURVE",
"447 201 CURVE SMOOTH",
"447 108 LINE",
"447 108 OFFCURVE",
"410 82 OFFCURVE",
"351 82 CURVE SMOOTH",
"244 82 OFFCURVE",
"183 173 OFFCURVE",
"183 338 CURVE SMOOTH",
"183 487 OFFCURVE",
"241 557 OFFCURVE",
"360 557 CURVE SMOOTH",
"437 557 OFFCURVE",
"467 536 OFFCURVE",
"467 480 CURVE SMOOTH",
"467 451 OFFCURVE",
"464 426 OFFCURVE",
"464 426 CURVE",
"563 432 LINE",
"569 536 OFFCURVE",
"589 616 OFFCURVE",
"589 616 CURVE",
"582 629 LINE",
"582 629 OFFCURVE",
"472 654 OFFCURVE",
"384 654 CURVE SMOOTH",
"162 654 OFFCURVE",
"28 521 OFFCURVE",
"28 304 CURVE SMOOTH",
"27.9902 108 OFFCURVE",
"142 -12 OFFCURVE",
"326 -12 CURVE SMOOTH",
"470 -12 OFFCURVE",
"562 28 OFFCURVE",
"562 28 CURVE",
"571 41 LINE",
"566 60 OFFCURVE",
"564 90 OFFCURVE",
"564 128 CURVE SMOOTH",
"564 242 OFFCURVE",
"570 270 OFFCURVE",
"605 293 CURVE"
);
}
);
width = 654;
}
);
leftKerningGroup = O;
rightKerningGroup = G;
unicode = 0047;
},
{
glyphname = H;
lastChange = "2014-09-12 03:52:47 -0300";
layers = (
{
layerId = "F8053E42-0B7C-4D2D-91AF-B2EFB3EA087D";
name = Bold;
paths = (
{
closed = 1;
nodes = (
"643 566 OFFCURVE",
"654 576 OFFCURVE",
"703 583 CURVE",
"708 649 LINE",
"708 649 OFFCURVE",
"607 642 OFFCURVE",
"561 642 CURVE SMOOTH",
"519 642 OFFCURVE",
"433 643 OFFCURVE",
"433 643 CURVE",
"426 584 LINE",
"431 576 LINE",
"431 576 OFFCURVE",
"450 577 OFFCURVE",
"462 577 CURVE SMOOTH",
"491 577 OFFCURVE",
"498 566 OFFCURVE",
"498 525 CURVE SMOOTH",
"497 373 LINE",
"457 368 OFFCURVE",
"428 366 OFFCURVE",
"380 366 CURVE",
"252 368 LINE",
"258 511 LINE SMOOTH",
"260 564 OFFCURVE",
"267 574 OFFCURVE",
"318 582 CURVE",
"323 649 LINE",
"323 649 OFFCURVE",
"222 642 OFFCURVE",
"172 642 CURVE SMOOTH",
"131 642 OFFCURVE",
"52 643 OFFCURVE",
"52 643 CURVE",
"45 584 LINE",
"50 576 LINE",
"50 576 OFFCURVE",
"69 577 OFFCURVE",
"80 577 CURVE SMOOTH",
"109 577 OFFCURVE",
"116 567 OFFCURVE",
"116 525 CURVE SMOOTH",
"116 140 LINE SMOOTH",
"116 84 OFFCURVE",
"102 68 OFFCURVE",
"44 56 CURVE",
"37 -9 LINE",
"38 -6 OFFCURVE",
"136 0 OFFCURVE",
"196 0 CURVE SMOOTH",
"234 0 OFFCURVE",
"318 -3 OFFCURVE",
"318 -3 CURVE",
"327 61 LINE",
"322 68 LINE",
"322 68 OFFCURVE",
"305 65 OFFCURVE",
"285 65 CURVE SMOOTH",
"255 65 OFFCURVE",
"247 78 OFFCURVE",
"247 133 CURVE SMOOTH",
"249 274 LINE",
"249 274 OFFCURVE",
"363 284 OFFCURVE",
"390 284 CURVE SMOOTH",
"426 284 OFFCURVE",
"497 283 OFFCURVE",
"497 283 CURVE",
"497 156 LINE SMOOTH",
"497 84 OFFCURVE",
"482 65 OFFCURVE",
"426 64 CURVE",
"417 -2 LINE",
"417 -2 OFFCURVE",
"517 0 OFFCURVE",
"557 0 CURVE SMOOTH",
"620 0 OFFCURVE",
"703 -3 OFFCURVE",
"703 -3 CURVE",
"712 61 LINE",
"707 69 LINE",
"707 69 OFFCURVE",
"688 66 OFFCURVE",
"670 66 CURVE SMOOTH",
"638 66 OFFCURVE",
"629 81 OFFCURVE",
"629 133 CURVE SMOOTH",
"629 238 OFFCURVE",
"634 413 OFFCURVE",
"641 528 CURVE SMOOTH"
);
}
);
width = 747;
}
);
leftKerningGroup = H;
rightKerningGroup = H;
unicode = 0048;
},
{
glyphname = Hbar;
lastChange = "2014-09-12 03:52:47 -0300";
layers = (
{
anchors = (
{
name = bottom;
position = "{377, 0}";
},
{
name = center;
position = "{369, 324}";
},
{
name = top;
position = "{372, 647}";
}
);
components = (
{
disableAlignment = 1;
name = H;
transform = "{1, 0, 0, 1, -1, 0}";
}
);
layerId = "F8053E42-0B7C-4D2D-91AF-B2EFB3EA087D";
name = Bold;
paths = (
{
closed = 1;
nodes = (
"246 499 OFFCURVE",
"26 500 OFFCURVE",
"26 500 CURVE",
"19 452 LINE",
"29 442 LINE",
"29 442 OFFCURVE",
"222 443 OFFCURVE",
"375 443 CURVE SMOOTH",
"722 444 LINE",
"726 490 LINE",
"712 504 LINE",
"712 504 OFFCURVE",
"529 499 OFFCURVE",
"398 499 CURVE SMOOTH"
);
}
);
width = 745;
}
);
leftKerningGroup = H;
rightKerningGroup = H;
unicode = 0126;
},
{
glyphname = I;
lastChange = "2014-09-12 03:52:47 -0300";
layers = (
{
anchors = (
{
name = bottom;
position = "{139, 0}";
},
{
name = ogonek;
position = "{292, 40}";
},
{
name = top;
position = "{187, 647}";
}
);
layerId = "F8053E42-0B7C-4D2D-91AF-B2EFB3EA087D";
name = Bold;
paths = (
{
closed = 1;
nodes = (
"262 565 OFFCURVE",
"273 575 OFFCURVE",
"324 582 CURVE",
"330 649 LINE",
"330 649 OFFCURVE",
"232 642 OFFCURVE",
"187 642 CURVE SMOOTH",
"140 642 OFFCURVE",
"74 643 OFFCURVE",
"48 643 CURVE",
"41 584 LINE",
"46 576 LINE",
"46 576 OFFCURVE",
"67 577 OFFCURVE",
"80 577 CURVE SMOOTH",
"109 577 OFFCURVE",
"116 566 OFFCURVE",
"116 525 CURVE SMOOTH",
"116 140 LINE SMOOTH",
"116 85 OFFCURVE",
"102 68 OFFCURVE",
"43 56 CURVE",
"36 -9 LINE",
"36 -9 OFFCURVE",
"119 0 OFFCURVE",
"176 0 CURVE SMOOTH",
"221 0 OFFCURVE",
"324 -3 OFFCURVE",
"324 -3 CURVE",
"333 61 LINE",
"328 68 LINE",
"328 68 OFFCURVE",
"308 65 OFFCURVE",
"286 65 CURVE SMOOTH",
"255 65 OFFCURVE",
"247 78 OFFCURVE",
"247 133 CURVE SMOOTH",
"247 239 OFFCURVE",
"253 407 OFFCURVE",
"259 528 CURVE SMOOTH"
);
}
);
width = 365;
}
);
leftKerningGroup = H;
rightKerningGroup = H;
unicode = 0049;
},
{
glyphname = J;
lastChange = "2014-09-12 03:52:47 -0300";
layers = (
{
anchors = (
{
name = bottom;
position = "{143, 0}";
},
{
name = top;
position = "{168, 647}";
}
);
layerId = "F8053E42-0B7C-4D2D-91AF-B2EFB3EA087D";
name = Bold;
paths = (
{
closed = 1;
nodes = (
"107 123 LINE SMOOTH",
"107 -2 OFFCURVE",
"87 -47 OFFCURVE",
"13 -102 CURVE",
"10 -113 LINE",
"38 -154 LINE",
"177 -109 OFFCURVE",
"238 -31 OFFCURVE",
"238 101 CURVE SMOOTH",
"239 210 OFFCURVE",
"246 437 OFFCURVE",
"251 528 CURVE SMOOTH",
"253 567 OFFCURVE",
"260 574 OFFCURVE",
"303 582 CURVE",
"309 650 LINE",
"309 650 OFFCURVE",
"226 643 OFFCURVE",
"157 642 CURVE SMOOTH",
"33 642 LINE",
"26 582 LINE",
"31 574 LINE",
"31 574 OFFCURVE",
"59 577 OFFCURVE",
"73 577 CURVE SMOOTH",
"101 577 OFFCURVE",
"107 567 OFFCURVE",
"107 525 CURVE SMOOTH"
);
}
);
width = 333;
}
);
leftKerningGroup = J;
rightKerningGroup = J;
unicode = 004A;
},
{
glyphname = K;
lastChange = "2014-09-12 03:52:47 -0300";
layers = (
{
anchors = (
{
name = bottom;
position = "{372, 0}";
},
{
name = top;
position = "{373, 647}";
}
);
layerId = "F8053E42-0B7C-4D2D-91AF-B2EFB3EA087D";
name = Bold;
paths = (
{
closed = 1;
nodes = (
"116 140 LINE SMOOTH",
"116 84 OFFCURVE",
"104 70 OFFCURVE",
"46 61 CURVE",
"37 -3 LINE",
"37 -3 OFFCURVE",
"120 0 OFFCURVE",
"177 0 CURVE SMOOTH",
"220 0 OFFCURVE",
"321 -3 OFFCURVE",
"321 -3 CURVE",
"330 61 LINE",
"325 68 LINE",
"325 68 OFFCURVE",
"306 65 OFFCURVE",
"286 65 CURVE SMOOTH",
"255 65 OFFCURVE",
"246 78 OFFCURVE",
"248 133 CURVE SMOOTH",
"257 524 LINE SMOOTH",
"258 561 OFFCURVE",
"271 572 OFFCURVE",
"320 582 CURVE",
"326 649 LINE",
"326 649 OFFCURVE",
"231 642 OFFCURVE",
"188 642 CURVE SMOOTH",
"159 642 OFFCURVE",
"53 644 OFFCURVE",
"53 644 CURVE",
"45 584 LINE",
"51 576 LINE",
"51 576 OFFCURVE",
"69 577 OFFCURVE",
"81 577 CURVE SMOOTH",
"110 577 OFFCURVE",
"117 567 OFFCURVE",
"117 525 CURVE SMOOTH"
);
},
{
closed = 1;
nodes = (
"267 316 LINE",
"418 69 LINE SMOOTH",
"454 11 OFFCURVE",
"487 -15 OFFCURVE",
"530 -15 CURVE SMOOTH",
"547 -15 OFFCURVE",
"646 -3 OFFCURVE",
"646 -3 CURVE",
"655 50 LINE",
"648 59 LINE",
"603 62 OFFCURVE",
"573 86 OFFCURVE",
"534 146 CURVE SMOOTH",
"402 348 LINE",
"505 464 LINE SMOOTH",
"562 532 OFFCURVE",
"594 561 OFFCURVE",
"636 578 CURVE",
"644 635 LINE",
"637 646 LINE",
"637 646 OFFCURVE",
"558 642 OFFCURVE",
"520 642 CURVE SMOOTH",
"479 642 OFFCURVE",
"395 647 OFFCURVE",
"395 647 CURVE",
"387 585 LINE",
"391 578 LINE",
"428 576 OFFCURVE",
"443 567 OFFCURVE",
"443 547 CURVE SMOOTH",
"443 533 OFFCURVE",
"434 515 OFFCURVE",
"417 498 CURVE SMOOTH",
"270 338 LINE"
);
}
);
width = 659;
}
);
leftKerningGroup = H;
rightKerningGroup = X;
unicode = 004B;
},
{
glyphname = L;
lastChange = "2014-09-12 03:52:47 -0300";
layers = (
{
anchors = (
{
name = bottom;
position = "{287, 0}";
},
{
name = top;
position = "{190, 647}";
}
);
layerId = "F8053E42-0B7C-4D2D-91AF-B2EFB3EA087D";
name = Bold;
paths = (
{
closed = 1;
nodes = (
"331 0 OFFCURVE",
"494 -8 OFFCURVE",
"494 -8 CURVE",
"504 3 LINE",
"514 121 OFFCURVE",
"530 230 OFFCURVE",
"530 230 CURVE",
"523 240 LINE",
"439 231 LINE",
"424 102 OFFCURVE",
"404 79 OFFCURVE",
"310 79 CURVE SMOOTH",
"258 79 OFFCURVE",
"248 89 OFFCURVE",
"248 139 CURVE SMOOTH",
"248 260 OFFCURVE",
"252 397 OFFCURVE",
"259 505 CURVE SMOOTH",
"263 557 OFFCURVE",
"268 570 OFFCURVE",
"336 578 CURVE",
"343 649 LINE",
"343 649 OFFCURVE",
"233 642 OFFCURVE",
"188 642 CURVE SMOOTH",
"142 642 OFFCURVE",
"78 643 OFFCURVE",
"52 643 CURVE",
"45 584 LINE",
"50 576 LINE",
"50 576 OFFCURVE",
"69 577 OFFCURVE",
"80 577 CURVE SMOOTH",
"110 577 OFFCURVE",
"117 567 OFFCURVE",
"117 525 CURVE SMOOTH",
"116 144 LINE SMOOTH",
"116 86 OFFCURVE",
"100 66 OFFCURVE",
"49 58 CURVE",
"42 -10 LINE",
"42 -10 OFFCURVE",
"125 0 OFFCURVE",
"213 0 CURVE SMOOTH"
);
}
);
width = 531;
}
);
leftKerningGroup = H;
rightKerningGroup = L;
unicode = 004C;
},
{
glyphname = Lcaron;
lastChange = "2014-09-12 03:52:47 -0300";
layers = (
{
components = (
{
disableAlignment = 1;
name = L;
transform = "{1, 0, 0, 1, 0, 0}";
}
);
layerId = "F8053E42-0B7C-4D2D-91AF-B2EFB3EA087D";
name = Bold;
paths = (
{
closed = 1;
nodes = (
"521 640 LINE",
"420 626 LINE",
"420 626 OFFCURVE",
"430 513 OFFCURVE",
"427 398 CURVE",
"442 394 LINE",
"490 413 LINE",
"514 520 OFFCURVE",
"529 630 OFFCURVE",
"529 630 CURVE"
);
}
);
width = 537;
}
);
leftKerningGroup = H;
rightKerningGroup = L;
unicode = 013D;
},
{
glyphname = Lslash;
lastChange = "2014-09-12 03:52:47 -0300";
layers = (
{
components = (
{
disableAlignment = 1;
name = L;
transform = "{1, 0, 0, 1, 12, 0}";
}
);
layerId = "F8053E42-0B7C-4D2D-91AF-B2EFB3EA087D";
name = Bold;
paths = (
{
closed = 1;
nodes = (
"203 289 LINE",
"424 399 LINE",
"406 460 LINE",
"398 464 LINE",
"203 367 LINE",
"203 381 LINE",
"39 299 LINE",
"56 237 LINE",
"66 235 LINE",
"203 303 LINE"
);
}
);
width = 566;
}
);
leftKerningGroup = H;
rightKerningGroup = L;
unicode = 0141;
},
{
glyphname = M;
lastChange = "2014-09-12 03:52:47 -0300";
layers = (
{
anchors = (
{
name = bottom;
position = "{402, 0}";
},
{
name = top;
position = "{418, 647}";
}
);
layerId = "F8053E42-0B7C-4D2D-91AF-B2EFB3EA087D";
name = Bold;
paths = (
{
closed = 1;
nodes = (
"440 -7 LINE",
"499 179 OFFCURVE",
"560 353 OFFCURVE",
"593 445 CURVE",
"602 445 LINE",
"602 445 OFFCURVE",
"622 148 OFFCURVE",
"622 109 CURVE SMOOTH",
"622 78 OFFCURVE",
"605 64 OFFCURVE",
"566 60 CURVE",
"559 -8 LINE",
"565 -6 OFFCURVE",
"673 0 OFFCURVE",
"705 0 CURVE SMOOTH",
"746 0 OFFCURVE",
"807 -3 OFFCURVE",
"807 -3 CURVE",
"816 62 LINE",
"812 68 LINE",
"812 68 OFFCURVE",
"797 66 OFFCURVE",
"783 66 CURVE SMOOTH",
"752 66 OFFCURVE",
"742 85 OFFCURVE",
"735 157 CURVE",
"725 274 OFFCURVE",
"711 485 OFFCURVE",
"711 529 CURVE SMOOTH",
"711 566 OFFCURVE",
"727 578 OFFCURVE",
"784 582 CURVE",
"790 644 LINE",
"786 648 LINE",
"786 648 OFFCURVE",
"723 643 OFFCURVE",
"685 642 CURVE SMOOTH",
"644 640 OFFCURVE",
"591 643 OFFCURVE",
"561 643 CURVE SMOOTH",
"495 424 OFFCURVE",
"431 235 OFFCURVE",
"431 235 CURVE",
"422 235 LINE",
"422 235 OFFCURVE",
"360 423 OFFCURVE",
"299 646 CURVE",
"299 646 OFFCURVE",
"231 642 OFFCURVE",
"190 642 CURVE SMOOTH",
"153 642 OFFCURVE",
"62 647 OFFCURVE",
"62 647 CURVE",
"53 587 LINE",
"59 581 LINE",
"119 575 OFFCURVE",
"134 567 OFFCURVE",
"134 531 CURVE SMOOTH",
"134 503 OFFCURVE",
"98 169 OFFCURVE",
"94 131 CURVE SMOOTH",
"90 81 OFFCURVE",
"73 64 OFFCURVE",
"33 59 CURVE",
"27 -8 LINE",
"27 -8 OFFCURVE",
"88 0 OFFCURVE",
"128 0 CURVE SMOOTH",
"161 0 OFFCURVE",
"247 -4 OFFCURVE",
"247 -4 CURVE",
"257 61 LINE",
"252 67 LINE",
"252 67 OFFCURVE",
"227 65 OFFCURVE",
"218 65 CURVE SMOOTH",
"196 65 OFFCURVE",
"186 76 OFFCURVE",
"186 98 CURVE SMOOTH",
"186 122 OFFCURVE",
"206 445 OFFCURVE",
"206 445 CURVE",
"215 445 LINE",
"249 351 OFFCURVE",
"307 180 OFFCURVE",
"368 -16 CURVE"
);
}
);
width = 841;
}
);
leftKerningGroup = M;
rightKerningGroup = M;
unicode = 004D;
},
{
glyphname = N;
lastChange = "2014-09-12 03:52:47 -0300";
layers = (
{
anchors = (
{
name = bottom;
position = "{383, 0}";
},
{
name = top;
position = "{384, 647}";
}
);
layerId = "F8053E42-0B7C-4D2D-91AF-B2EFB3EA087D";
name = Bold;
paths = (
{
closed = 1;
nodes = (
"520 235 LINE",
"520 235 OFFCURVE",
"383 434 OFFCURVE",
"253 646 CURVE",
"253 646 OFFCURVE",
"200 642 OFFCURVE",
"157 642 CURVE SMOOTH",
"107 642 OFFCURVE",
"41 647 OFFCURVE",
"41 647 CURVE",
"34 589 LINE",
"41 579 LINE",
"106 572 OFFCURVE",
"123 560 OFFCURVE",
"123 517 CURVE",
"110 122 LINE SMOOTH",
"109 82 OFFCURVE",
"90 64 OFFCURVE",
"50 59 CURVE",
"43 -8 LINE",
"43 -8 OFFCURVE",
"111 0 OFFCURVE",
"165 0 CURVE SMOOTH",
"208 0 OFFCURVE",
"294 -4 OFFCURVE",
"294 -4 CURVE",
"304 60 LINE",
"299 67 LINE",
"299 67 OFFCURVE",
"267 64 OFFCURVE",
"256 64 CURVE SMOOTH",
"230 64 OFFCURVE",
"222 76 OFFCURVE",
"221 109 CURVE SMOOTH",
"222 417 LINE",
"232 417 LINE",
"232 417 OFFCURVE",
"369 221 OFFCURVE",
"524 -27 CURVE",
"629 -14 LINE",
"643 517 LINE SMOOTH",
"644 557 OFFCURVE",
"662 574 OFFCURVE",
"706 580 CURVE",
"711 647 LINE",
"711 647 OFFCURVE",
"642 642 OFFCURVE",
"593 642 CURVE SMOOTH",
"548 642 OFFCURVE",
"464 646 OFFCURVE",
"464 646 CURVE",
"457 584 LINE",
"460 576 LINE",
"465 576 OFFCURVE",
"481 577 OFFCURVE",
"495 577 CURVE SMOOTH",
"518 577 OFFCURVE",
"527 565 OFFCURVE",
"528 534 CURVE SMOOTH",
"530 235 LINE"
);
}
);
width = 729;
}
);
leftKerningGroup = H;
rightKerningGroup = H;
unicode = 004E;
},
{
glyphname = Eng;
lastChange = "2014-09-12 03:52:47 -0300";
layers = (
{
layerId = "F8053E42-0B7C-4D2D-91AF-B2EFB3EA087D";
name = Bold;
paths = (
{
closed = 1;
nodes = (
"118 642 OFFCURVE",
"43 647 OFFCURVE",
"43 647 CURVE",
"36 591 LINE",
"43 581 LINE",
"110 573 OFFCURVE",
"125 560 OFFCURVE",
"125 519 CURVE SMOOTH",
"113 133 LINE SMOOTH",
"111 80 OFFCURVE",
"95 62 OFFCURVE",
"52 57 CURVE",
"45 -8 LINE",
"45 -8 OFFCURVE",
"108 0 OFFCURVE",
"148 0 CURVE SMOOTH",
"210 0 OFFCURVE",
"293 -4 OFFCURVE",
"293 -4 CURVE",
"302 59 LINE",
"297 65 LINE",
"297 65 OFFCURVE",
"264 63 OFFCURVE",
"254 63 CURVE SMOOTH",
"228 63 OFFCURVE",
"219 74 OFFCURVE",
"219 108 CURVE SMOOTH",
"221 425 LINE",
"230 425 LINE",
"230 425 OFFCURVE",
"358 240 OFFCURVE",
"508 4 CURVE",
"495 -45 OFFCURVE",
"467 -78 OFFCURVE",
"409 -112 CURVE",
"407 -123 LINE",
"434 -163 LINE",
"571 -119 OFFCURVE",
"627 -46 OFFCURVE",
"631 86 CURVE SMOOTH",
"641 519 LINE SMOOTH",
"642 559 OFFCURVE",
"659 576 OFFCURVE",
"705 582 CURVE",
"710 648 LINE",
"710 648 OFFCURVE",
"638 642 OFFCURVE",
"594 642 CURVE SMOOTH",
"563 642 OFFCURVE",
"466 646 OFFCURVE",
"466 646 CURVE",
"459 584 LINE",
"463 578 LINE",
"463 578 OFFCURVE",
"485 579 OFFCURVE",
"497 579 CURVE SMOOTH",
"520 579 OFFCURVE",
"530 567 OFFCURVE",
"530 536 CURVE SMOOTH",
"532 228 LINE",
"523 228 LINE SMOOTH",
"523 228 OFFCURVE",
"369 450 OFFCURVE",
"250 646 CURVE",
"250 646 OFFCURVE",
"187 642 OFFCURVE",
"155 642 CURVE SMOOTH"
);
}
);
width = 727;
}
);
leftKerningGroup = H;
unicode = 014A;
},
{
glyphname = O;
lastChange = "2014-09-12 03:52:47 -0300";
layers = (
{
anchors = (
{
name = bottom;
position = "{315, 0}";
},
{
name = top;
position = "{324, 647}";
}
);
layerId = "F8053E42-0B7C-4D2D-91AF-B2EFB3EA087D";
name = Bold;
paths = (
{
closed = 1;
nodes = (
"241 75 OFFCURVE",
"183 168 OFFCURVE",
"183 344 CURVE SMOOTH",
"183 481 OFFCURVE",
"237 557 OFFCURVE",
"329 557 CURVE SMOOTH",
"431 557 OFFCURVE",
"490 465 OFFCURVE",
"490 288 CURVE SMOOTH",
"490 152 OFFCURVE",
"434 75 OFFCURVE",
"341 75 CURVE SMOOTH"
);
},
{
closed = 1;
nodes = (
"514 -12 OFFCURVE",
"646 129 OFFCURVE",
"646 341 CURVE SMOOTH",
"646 536 OFFCURVE",
"538 654 OFFCURVE",
"356 654 CURVE SMOOTH",
"158 654 OFFCURVE",
"28 515 OFFCURVE",
"28 304 CURVE SMOOTH",
"28 109 OFFCURVE",
"137 -12 OFFCURVE",
"315 -12 CURVE SMOOTH"
);
}
);
width = 674;
}
);
leftKerningGroup = O;
rightKerningGroup = O;
unicode = 004F;
},
{
glyphname = Oslash;
lastChange = "2014-09-12 03:52:47 -0300";
layers = (
{
anchors = (
{
name = top;
position = "{328, 647}";
}
);
components = (
{
disableAlignment = 1;
name = O;
transform = "{1, 0, 0, 1, 0, 0}";
}
);
layerId = "F8053E42-0B7C-4D2D-91AF-B2EFB3EA087D";
name = Bold;
paths = (
{
closed = 1;
nodes = (
"598 687 LINE",
"596 700 LINE",
"534 729 LINE",
"439 573 LINE",
"502 532 LINE"
);
},
{
closed = 1;
nodes = (
"502 532 LINE",
"439 573 LINE",
"179 124 LINE",
"240 83 LINE"
);
},
{
closed = 1;
nodes = (
"63 -68 LINE",
"66 -78 LINE",
"126 -107 LINE",
"240 83 LINE",
"179 124 LINE"
);
}
);
width = 674;
}
);
leftKerningGroup = O;
rightKerningGroup = O;
unicode = 00D8;
},
{
glyphname = Oslashacute;
lastChange = "2014-09-12 03:52:47 -0300";
layers = (
{
components = (
{
disableAlignment = 1;
name = O;
transform = "{1, 0, 0, 1, 0, 0}";
},
{
disableAlignment = 1;
name = acute.cap;
transform = "{1, 0, 0, 1, 129, 6}";
}
);
layerId = "F8053E42-0B7C-4D2D-91AF-B2EFB3EA087D";
name = Bold;
paths = (
{
closed = 1;
nodes = (
"598 687 LINE",
"596 700 LINE",
"534 729 LINE",
"439 573 LINE",
"502 532 LINE"
);
},
{
closed = 1;
nodes = (
"502 532 LINE",
"439 573 LINE",
"179 124 LINE",
"240 83 LINE"
);
},
{
closed = 1;
nodes = (
"63 -68 LINE",
"66 -78 LINE",
"126 -107 LINE",
"240 83 LINE",
"179 124 LINE"
);
}
);
width = 674;
}
);
leftKerningGroup = O;
rightKerningGroup = O;
unicode = 01FE;
},
{
glyphname = OE;
lastChange = "2014-09-12 03:52:47 -0300";
layers = (
{
anchors = (
{
name = top;
position = "{508, 647}";
}
);
layerId = "F8053E42-0B7C-4D2D-91AF-B2EFB3EA087D";
name = Bold;
paths = (
{
closed = 1;
nodes = (
"592 279 LINE",
"668 285 LINE SMOOTH",
"718 285 OFFCURVE",
"799 282 OFFCURVE",
"799 282 CURVE",
"813 368 LINE",
"805 377 LINE",
"805 377 OFFCURVE",
"722 369 OFFCURVE",
"689 369 CURVE SMOOTH",
"595 370 LINE",
"602 525 LINE SMOOTH",
"603 555 OFFCURVE",
"608 558 OFFCURVE",
"655 558 CURVE SMOOTH",
"767 558 OFFCURVE",
"782 550 OFFCURVE",
"782 495 CURVE SMOOTH",
"782 481 OFFCURVE",
"780 455 OFFCURVE",
"780 455 CURVE",
"871 461 LINE",
"877 554 OFFCURVE",
"894 643 OFFCURVE",
"894 643 CURVE",
"886 654 LINE",
"822 645 OFFCURVE",
"709 636 OFFCURVE",
"575 636 CURVE SMOOTH",
"488 636 OFFCURVE",
"418 649 OFFCURVE",
"351 649 CURVE SMOOTH",
"155 649 OFFCURVE",
"29 515 OFFCURVE",
"29 304 CURVE SMOOTH",
"29 109 OFFCURVE",
"140 -11 OFFCURVE",
"315 -11 CURVE SMOOTH",
"378 -11 OFFCURVE",
"461 2 OFFCURVE",
"550 2 CURVE SMOOTH",
"674 2 OFFCURVE",
"864 -7 OFFCURVE",
"864 -7 CURVE",
"874 4 LINE",
"884 100 OFFCURVE",
"902 190 OFFCURVE",
"902 190 CURVE",
"894 200 LINE",
"810 193 LINE",
"796 93 OFFCURVE",
"778 79 OFFCURVE",
"654 79 CURVE SMOOTH",
"596 79 OFFCURVE",
"590 86 OFFCURVE",
"590 139 CURVE SMOOTH"
);
},
{
closed = 1;
nodes = (
"238 73 OFFCURVE",
"182 166 OFFCURVE",
"182 345 CURVE SMOOTH",
"182 484 OFFCURVE",
"237 561 OFFCURVE",
"331 561 CURVE SMOOTH",
"429 561 OFFCURVE",
"465 537 OFFCURVE",
"465 454 CURVE SMOOTH",
"464 202 LINE",
"463 109 OFFCURVE",
"426 73 OFFCURVE",
"337 73 CURVE SMOOTH"
);
}
);
width = 940;
}
);
leftKerningGroup = O;
rightKerningGroup = E;
unicode = 0152;
},
{
glyphname = P;
lastChange = "2014-09-12 03:52:47 -0300";
layers = (
{
anchors = (
{
name = bottom;
position = "{200, 0}";
},
{
name = top;
position = "{317, 647}";
}
);
layerId = "F8053E42-0B7C-4D2D-91AF-B2EFB3EA087D";
name = Bold;
paths = (
{
closed = 1;
nodes = (
"44 583 LINE",
"50 575 LINE",
"50 575 OFFCURVE",
"71 577 OFFCURVE",
"84 577 CURVE SMOOTH",
"109 577 OFFCURVE",
"116 565 OFFCURVE",
"116 523 CURVE SMOOTH",
"116 143 LINE SMOOTH",
"116 87 OFFCURVE",
"101 69 OFFCURVE",
"47 60 CURVE",
"39 -8 LINE",
"40 -7 OFFCURVE",
"156 0 OFFCURVE",
"206 0 CURVE SMOOTH",
"244 0 OFFCURVE",
"332 -3 OFFCURVE",
"332 -3 CURVE",
"341 62 LINE",
"338 68 LINE",
"338 68 OFFCURVE",
"311 65 OFFCURVE",
"294 65 CURVE SMOOTH",
"254 65 OFFCURVE",
"247 80 OFFCURVE",
"247 153 CURVE",
"248 227 LINE",
"333 227 LINE SMOOTH",
"459 227 OFFCURVE",
"572 334 OFFCURVE",
"572 454 CURVE SMOOTH",
"572 552 OFFCURVE",
"517 647 OFFCURVE",
"331 647 CURVE SMOOTH",
"331 647 OFFCURVE",
"215 642 OFFCURVE",
"179 642 CURVE SMOOTH",
"136 642 OFFCURVE",
"76 643 OFFCURVE",
"53 643 CURVE"
);
},
{
closed = 1;
nodes = (
"251 316 LINE",
"253 391 OFFCURVE",
"257 473 OFFCURVE",
"261 543 CURVE SMOOTH",
"262 560 OFFCURVE",
"264 561 OFFCURVE",
"283 561 CURVE SMOOTH",
"385 561 OFFCURVE",
"430 524 OFFCURVE",
"430 440 CURVE SMOOTH",
"430 362 OFFCURVE",
"400 317 OFFCURVE",
"339 304 CURVE"
);
}
);
width = 577;
}
);
leftKerningGroup = H;
rightKerningGroup = P;
unicode = 0050;
},
{
glyphname = Thorn;
lastChange = "2014-09-12 03:52:47 -0300";
layers = (
{
layerId = "F8053E42-0B7C-4D2D-91AF-B2EFB3EA087D";
name = Bold;
paths = (
{
closed = 1;
nodes = (
"262 566 OFFCURVE",
"272 574 OFFCURVE",
"324 582 CURVE",
"330 649 LINE",
"330 649 OFFCURVE",
"232 642 OFFCURVE",
"187 642 CURVE SMOOTH",
"140 642 OFFCURVE",
"74 643 OFFCURVE",
"48 643 CURVE",
"41 584 LINE",
"46 576 LINE",
"46 576 OFFCURVE",
"67 577 OFFCURVE",
"80 577 CURVE SMOOTH",
"109 577 OFFCURVE",
"116 566 OFFCURVE",
"116 525 CURVE SMOOTH",
"116 140 LINE SMOOTH",
"116 84 OFFCURVE",
"101 68 OFFCURVE",
"43 56 CURVE",
"36 -9 LINE",
"36 -9 OFFCURVE",
"120 0 OFFCURVE",
"176 0 CURVE SMOOTH",
"222 0 OFFCURVE",
"329 -3 OFFCURVE",
"329 -3 CURVE",
"338 61 LINE",
"333 68 LINE",
"333 68 OFFCURVE",
"311 65 OFFCURVE",
"286 65 CURVE SMOOTH",
"255 65 OFFCURVE",
"247 74 OFFCURVE",
"247 114 CURVE SMOOTH",
"247 144 LINE",
"318 144 LINE SMOOTH",
"455 144 OFFCURVE",
"561 227 OFFCURVE",
"561 336 CURVE SMOOTH",
"561 453 OFFCURVE",
"485 512 OFFCURVE",
"334 512 CURVE SMOOTH",
"258 512 LINE",
"257 518 OFFCURVE",
"259 524 OFFCURVE",
"259 536 CURVE"
);
},
{
closed = 1;
nodes = (
"255 428 OFFCURVE",
"259 431 OFFCURVE",
"278 431 CURVE SMOOTH",
"376 431 OFFCURVE",
"419 399 OFFCURVE",
"419 326 CURVE SMOOTH",
"419 264 OFFCURVE",
"390 227 OFFCURVE",
"333 218 CURVE",
"312 218 OFFCURVE",
"274 225 OFFCURVE",
"249 232 CURVE",
"250 274 OFFCURVE",
"252 344 OFFCURVE",
"254 417 CURVE SMOOTH"
);
}
);
width = 573;
}
);
leftKerningGroup = H;
rightKerningGroup = P;
unicode = 00DE;
},
{
glyphname = Q;
lastChange = "2014-09-12 03:52:47 -0300";
layers = (
{
anchors = (
{
name = bottom;
position = "{423, 0}";
},
{
name = top;
position = "{333, 647}";
}
);
layerId = "F8053E42-0B7C-4D2D-91AF-B2EFB3EA087D";
name = Bold;
paths = (
{
closed = 1;
nodes = (
"537 -196 OFFCURVE",
"593 -228 OFFCURVE",
"682 -228 CURVE SMOOTH",
"710 -228 OFFCURVE",
"816 -145 OFFCURVE",
"816 -145 CURVE",
"805 -103 LINE",
"797 -96 LINE",
"797 -96 OFFCURVE",
"758 -106 OFFCURVE",
"712 -106 CURVE SMOOTH",
"639 -106 OFFCURVE",
"553 -70 OFFCURVE",
"444 6 CURVE",
"444 15 LINE",
"565 64 OFFCURVE",
"646 187 OFFCURVE",
"646 341 CURVE SMOOTH",
"646 536 OFFCURVE",
"538 654 OFFCURVE",
"356 654 CURVE SMOOTH",
"158 654 OFFCURVE",
"28 515 OFFCURVE",
"28 304 CURVE SMOOTH",
"28 109 OFFCURVE",
"137 -12 OFFCURVE",
"315 -12 CURVE"
);
},
{
closed = 1;
nodes = (
"241 75 OFFCURVE",
"183 168 OFFCURVE",
"183 344 CURVE SMOOTH",
"183 481 OFFCURVE",
"237 557 OFFCURVE",
"329 557 CURVE SMOOTH",
"431 557 OFFCURVE",
"490 465 OFFCURVE",
"490 288 CURVE SMOOTH",
"490 152 OFFCURVE",
"434 75 OFFCURVE",
"341 75 CURVE SMOOTH"
);
}
);
width = 679;
}
);
leftKerningGroup = O;
rightKerningGroup = O;
unicode = 0051;
},
{
glyphname = R;
lastChange = "2014-09-12 03:52:47 -0300";
layers = (
{
layerId = "F8053E42-0B7C-4D2D-91AF-B2EFB3EA087D";
name = Bold;
paths = (
{
closed = 1;
nodes = (
"319 251 LINE",
"404 77 LINE SMOOTH",
"433 15 OFFCURVE",
"470 -16 OFFCURVE",
"514 -16 CURVE",
"633 -5 LINE",
"640 48 LINE",
"633 58 LINE",
"591 58 OFFCURVE",
"558 84 OFFCURVE",
"522 144 CURVE SMOOTH",
"435 284 LINE",
"521 329 OFFCURVE",
"569 396 OFFCURVE",
"569 475 CURVE SMOOTH",
"569 586 OFFCURVE",
"485 647 OFFCURVE",
"332 647 CURVE SMOOTH",
"332 647 OFFCURVE",
"220 642 OFFCURVE",
"179 642 CURVE SMOOTH",
"140 642 OFFCURVE",
"53 644 OFFCURVE",
"53 644 CURVE",
"44 583 LINE",
"50 575 LINE",
"50 575 OFFCURVE",
"71 577 OFFCURVE",
"85 577 CURVE SMOOTH",
"109 577 OFFCURVE",
"116 566 OFFCURVE",
"116 528 CURVE SMOOTH",
"116 143 LINE SMOOTH",
"116 86 OFFCURVE",
"101 69 OFFCURVE",
"45 61 CURVE",
"36 -6 LINE",
"36 -6 OFFCURVE",
"117 0 OFFCURVE",
"179 -1 CURVE SMOOTH",
"223 -1 OFFCURVE",
"313 -3 OFFCURVE",
"313 -4 CURVE",
"322 58 LINE",
"319 64 LINE",
"255 66 OFFCURVE",
"247 74 OFFCURVE",
"247 141 CURVE SMOOTH",
"249 251 LINE"
);
},
{
closed = 1;
nodes = (
"252 341 LINE",
"253 402 OFFCURVE",
"256 462 OFFCURVE",
"261 542 CURVE SMOOTH",
"262 560 OFFCURVE",
"264 564 OFFCURVE",
"278 564 CURVE SMOOTH",
"379 564 OFFCURVE",
"427 529 OFFCURVE",
"427 456 CURVE SMOOTH",
"427 367 OFFCURVE",
"364 340 OFFCURVE",
"342 331 CURVE"
);
}
);
width = 643;
}
);
leftKerningGroup = H;
rightKerningGroup = R;
unicode = 0052;
},
{
glyphname = S;
lastChange = "2014-09-12 03:52:47 -0300";
layers = (
{
anchors = (
{
name = bottom;
position = "{253, 0}";
},
{
name = top;
position = "{287, 647}";
}
);
layerId = "F8053E42-0B7C-4D2D-91AF-B2EFB3EA087D";
name = Bold;
paths = (
{
closed = 1;
nodes = (
"389 -12 OFFCURVE",
"499 68 OFFCURVE",
"499 190 CURVE SMOOTH",
"499 290 OFFCURVE",
"405 336 OFFCURVE",
"321 376 CURVE SMOOTH",
"252 408 OFFCURVE",
"190 437 OFFCURVE",
"190 488 CURVE SMOOTH",
"190 530 OFFCURVE",
"230 559 OFFCURVE",
"286 559 CURVE SMOOTH",
"355 559 OFFCURVE",
"382 536 OFFCURVE",
"382 478 CURVE SMOOTH",
"382 459 OFFCURVE",
"381 443 OFFCURVE",
"381 443 CURVE",
"390 436 LINE",
"466 442 LINE",
"473 533 OFFCURVE",
"490 614 OFFCURVE",
"490 614 CURVE",
"483 627 LINE",
"483 627 OFFCURVE",
"411 654 OFFCURVE",
"312 654 CURVE SMOOTH",
"155 654 OFFCURVE",
"44 571 OFFCURVE",
"44 454 CURVE SMOOTH",
"44 359 OFFCURVE",
"124 312 OFFCURVE",
"202 274 CURVE SMOOTH",
"277 237 OFFCURVE",
"350 209 OFFCURVE",
"350 154 CURVE SMOOTH",
"350 107 OFFCURVE",
"309 77 OFFCURVE",
"246 77 CURVE SMOOTH",
"163 77 OFFCURVE",
"136 107 OFFCURVE",
"136 217 CURVE",
"52 210 LINE",
"51 128 OFFCURVE",
"36 40 OFFCURVE",
"36 40 CURVE",
"44 26 LINE",
"44 26 OFFCURVE",
"116 -12 OFFCURVE",
"221 -12 CURVE SMOOTH"
);
}
);
width = 540;
}
);
leftKerningGroup = S;
rightKerningGroup = S;
unicode = 0053;
},
{
glyphname = T;
lastChange = "2014-09-12 03:52:47 -0300";
layers = (
{
anchors = (
{
name = bottom;
position = "{292, 0}";
},
{
name = center;
position = "{297, 324}";
},
{
name = top;
position = "{300, 647}";
}
);
layerId = "F8053E42-0B7C-4D2D-91AF-B2EFB3EA087D";
name = Bold;
paths = (
{
closed = 1;
nodes = (
"216 165 LINE SMOOTH",
"216 80 OFFCURVE",
"204 68 OFFCURVE",
"117 60 CURVE",
"109 -6 LINE",
"109 -6 OFFCURVE",
"220 0 OFFCURVE",
"276 0 CURVE SMOOTH",
"328 0 OFFCURVE",
"450 -4 OFFCURVE",
"450 -4 CURVE",
"459 65 LINE",
"455 70 LINE",
"455 70 OFFCURVE",
"432 67 OFFCURVE",
"402 67 CURVE SMOOTH",
"363 67 OFFCURVE",
"348 85 OFFCURVE",
"348 135 CURVE SMOOTH",
"348 283 OFFCURVE",
"353 474 OFFCURVE",
"358 563 CURVE",
"460 560 OFFCURVE",
"464 549 OFFCURVE",
"479 427 CURVE",
"563 433 LINE",
"563 433 OFFCURVE",
"555 542 OFFCURVE",
"553 642 CURVE",
"542 653 LINE",
"440 642 LINE",
"128 642 LINE",
"28 653 LINE",
"17 642 LINE",
"15 544 OFFCURVE",
"5 427 OFFCURVE",
"5 427 CURVE",
"89 433 LINE",
"102 547 OFFCURVE",
"108 560 OFFCURVE",
"216 563 CURVE"
);
}
);
width = 569;
}
);
leftKerningGroup = T;
rightKerningGroup = T;
unicode = 0054;
},
{
glyphname = Tbar;
lastChange = "2014-09-12 03:52:47 -0300";
layers = (
{
components = (
{
disableAlignment = 1;
name = T;
transform = "{1, 0, 0, 1, 0, 0}";
}
);
layerId = "F8053E42-0B7C-4D2D-91AF-B2EFB3EA087D";
name = Bold;
paths = (
{
closed = 1;
nodes = (
"231 332 OFFCURVE",
"127 333 OFFCURVE",
"127 333 CURVE",
"120 285 LINE",
"130 275 LINE",
"130 275 OFFCURVE",
"213 276 OFFCURVE",
"275 276 CURVE SMOOTH",
"432 277 LINE",
"437 323 LINE",
"423 337 LINE",
"423 337 OFFCURVE",
"348 332 OFFCURVE",
"299 332 CURVE SMOOTH"
);
}
);
width = 569;
}
);
leftKerningGroup = T;
rightKerningGroup = T;
unicode = 0166;
},
{
glyphname = U;
lastChange = "2014-09-12 03:52:47 -0300";
layers = (
{
anchors = (
{
name = bottom;
position = "{298, 0}";
},
{
name = ogonek;
position = "{461, 40}";
},
{
name = top;
position = "{332, 647}";
}
);
layerId = "F8053E42-0B7C-4D2D-91AF-B2EFB3EA087D";
name = Bold;
paths = (
{
closed = 1;
nodes = (
"226 527 LINE SMOOTH",
"227 562 OFFCURVE",
"239 575 OFFCURVE",
"282 580 CURVE",
"289 648 LINE",
"289 648 OFFCURVE",
"211 642 OFFCURVE",
"170 642 CURVE SMOOTH",
"112 642 OFFCURVE",
"26 645 OFFCURVE",
"26 645 CURVE",
"18 579 LINE",
"20 575 LINE",
"20 575 OFFCURVE",
"41 577 OFFCURVE",
"52 577 CURVE SMOOTH",
"78 577 OFFCURVE",
"84 567 OFFCURVE",
"84 523 CURVE SMOOTH",
"84 204 LINE SMOOTH",
"84 60 OFFCURVE",
"161 -12 OFFCURVE",
"316 -12 CURVE SMOOTH",
"482 -12 OFFCURVE",
"573 70 OFFCURVE",
"573 220 CURVE SMOOTH",
"573 531 LINE SMOOTH",
"573 563 OFFCURVE",
"582 570 OFFCURVE",
"632 581 CURVE",
"638 648 LINE",
"638 648 OFFCURVE",
"570 642 OFFCURVE",
"519 642 CURVE SMOOTH",
"481 642 OFFCURVE",
"402 645 OFFCURVE",
"402 645 CURVE",
"393 579 LINE",
"396 575 LINE",
"396 575 OFFCURVE",
"418 577 OFFCURVE",
"429 577 CURVE SMOOTH",
"454 577 OFFCURVE",
"459 567 OFFCURVE",
"461 523 CURVE SMOOTH",
"461 523 OFFCURVE",
"465 275 OFFCURVE",
"465 209 CURVE SMOOTH",
"465 122 OFFCURVE",
"423 79 OFFCURVE",
"343 79 CURVE SMOOTH",
"263 79 OFFCURVE",
"219 136 OFFCURVE",
"219 236 CURVE"
);
}
);
width = 655;
}
);
leftKerningGroup = U;
rightKerningGroup = U;
unicode = 0055;
},
{
glyphname = Uogonek;
lastChange = "2014-09-12 03:52:47 -0300";
layers = (
{
layerId = "F8053E42-0B7C-4D2D-91AF-B2EFB3EA087D";
name = Bold;
paths = (
{
closed = 1;
nodes = (
"519 -146 LINE",
"519 -146 OFFCURVE",
"482 -170 OFFCURVE",
"447 -170 CURVE SMOOTH",
"418 -170 OFFCURVE",
"397 -151 OFFCURVE",
"397 -122 CURVE SMOOTH",
"397 -86 OFFCURVE",
"415 -60 OFFCURVE",
"510 48 CURVE SMOOTH",
"553 97 OFFCURVE",
"573 151 OFFCURVE",
"573 220 CURVE SMOOTH",
"573 531 LINE SMOOTH",
"573 563 OFFCURVE",
"581 570 OFFCURVE",
"632 581 CURVE",
"638 648 LINE",
"638 648 OFFCURVE",
"570 642 OFFCURVE",
"519 642 CURVE SMOOTH",
"481 642 OFFCURVE",
"402 645 OFFCURVE",
"402 645 CURVE",
"393 579 LINE",
"396 575 LINE",
"396 575 OFFCURVE",
"418 577 OFFCURVE",
"429 577 CURVE SMOOTH",
"454 577 OFFCURVE",
"459 567 OFFCURVE",
"461 523 CURVE SMOOTH",
"461 523 OFFCURVE",
"465 275 OFFCURVE",
"465 209 CURVE SMOOTH",
"465 122 OFFCURVE",
"423 79 OFFCURVE",
"343 79 CURVE SMOOTH",
"263 79 OFFCURVE",
"219 135 OFFCURVE",
"219 236 CURVE",
"226 527 LINE SMOOTH",
"227 562 OFFCURVE",
"240 575 OFFCURVE",
"282 580 CURVE",
"289 648 LINE",
"289 648 OFFCURVE",
"211 642 OFFCURVE",
"170 642 CURVE SMOOTH",
"112 642 OFFCURVE",
"26 645 OFFCURVE",
"26 645 CURVE",
"18 579 LINE",
"20 575 LINE",
"20 575 OFFCURVE",
"41 577 OFFCURVE",
"52 577 CURVE SMOOTH",
"78 577 OFFCURVE",
"84 567 OFFCURVE",
"84 523 CURVE SMOOTH",
"84 204 LINE SMOOTH",
"84 60 OFFCURVE",
"161 -12 OFFCURVE",
"316 -12 CURVE SMOOTH",
"348.99 -12 OFFCURVE",
"377 -9 OFFCURVE",
"404 -2 CURVE",
"339 -70 OFFCURVE",
"316 -110 OFFCURVE",
"316 -150 CURVE SMOOTH",
"316 -206 OFFCURVE",
"362 -241 OFFCURVE",
"436 -241 CURVE",
"485 -224 OFFCURVE",
"538 -175 OFFCURVE",
"538 -175 CURVE"
);
}
);
width = 655;
}
);
leftKerningGroup = U;
rightKerningGroup = U;
unicode = 0172;
},
{
glyphname = V;
lastChange = "2014-09-12 03:52:47 -0300";
layers = (
{
anchors = (
{
name = bottom;
position = "{312, 0}";
},
{
name = top;
position = "{346, 647}";
}
);
layerId = "F8053E42-0B7C-4D2D-91AF-B2EFB3EA087D";
name = Bold;
paths = (
{
closed = 1;
nodes = (
"129 328 OFFCURVE",
"218 -15 OFFCURVE",
"218 -15 CURVE",
"383 5 LINE",
"567 526 LINE",
"580 564 OFFCURVE",
"589 573 OFFCURVE",
"621 578 CURVE",
"628 644 LINE",
"628 644 OFFCURVE",
"564 642 OFFCURVE",
"512 642 CURVE SMOOTH",
"448 642 OFFCURVE",
"364 647 OFFCURVE",
"364 647 CURVE",
"357 585 LINE",
"362 578 LINE",
"401 578 LINE SMOOTH",
"439 578 OFFCURVE",
"452 570 OFFCURVE",
"452 547 CURVE SMOOTH",
"452 516 OFFCURVE",
"353 201 OFFCURVE",
"326 131 CURVE",
"311 131 LINE",
"311 131 OFFCURVE",
"220 507 OFFCURVE",
"220 543 CURVE SMOOTH",
"220 570 OFFCURVE",
"230 575 OFFCURVE",
"297 581 CURVE",
"302 642 LINE",
"296 650 LINE",
"296 650 OFFCURVE",
"200 642 OFFCURVE",
"126 642 CURVE SMOOTH",
"83 642 OFFCURVE",
"0 644 OFFCURVE",
"0 644 CURVE",
"-7 584 LINE",
"-3 577 LINE",
"38 575 OFFCURVE",
"59 557 OFFCURVE",
"71 515 CURVE SMOOTH"
);
}
);
width = 625;
}
);
leftKerningGroup = V;
rightKerningGroup = V;
unicode = 0056;
},
{
glyphname = W;
lastChange = "2014-09-12 03:52:47 -0300";
layers = (
{
anchors = (
{
name = bottom;
position = "{495, 0}";
},
{
name = top;
position = "{518, 647}";
}
);
layerId = "F8053E42-0B7C-4D2D-91AF-B2EFB3EA087D";
name = Bold;
paths = (
{
closed = 1;
nodes = (
"731 5 LINE",
"907 526 LINE",
"920 565 OFFCURVE",
"929 573 OFFCURVE",
"959 578 CURVE",
"966 644 LINE",
"966 644 OFFCURVE",
"905 642 OFFCURVE",
"854 642 CURVE SMOOTH",
"793 642 OFFCURVE",
"711 647 OFFCURVE",
"711 647 CURVE",
"703 585 LINE",
"708 578 LINE",
"746 578 LINE SMOOTH",
"783 578 OFFCURVE",
"796 571 OFFCURVE",
"796 550 CURVE SMOOTH",
"796 519 OFFCURVE",
"699 201 OFFCURVE",
"673 131 CURVE",
"660 131 LINE",
"660 131 OFFCURVE",
"571 507 OFFCURVE",
"571 543 CURVE SMOOTH",
"571 571 OFFCURVE",
"581 575 OFFCURVE",
"646 581 CURVE",
"651 642 LINE",
"646 650 LINE",
"646 650 OFFCURVE",
"558 642 OFFCURVE",
"483 642 CURVE SMOOTH",
"437 642 OFFCURVE",
"346 644 OFFCURVE",
"346 644 CURVE",
"338 584 LINE",
"343 577 LINE",
"390 576 OFFCURVE",
"409 566 OFFCURVE",
"416 533 CURVE SMOOTH",
"419 521 OFFCURVE",
"422 507 OFFCURVE",
"424 491 CURVE",
"392 382 OFFCURVE",
"339 198 OFFCURVE",
"314 131 CURVE",
"301 131 LINE",
"301 131 OFFCURVE",
"212 504 OFFCURVE",
"212 544 CURVE SMOOTH",
"212 570 OFFCURVE",
"223 575 OFFCURVE",
"287 581 CURVE",
"292 642 LINE",
"287 650 LINE",
"287 650 OFFCURVE",
"204 642 OFFCURVE",
"123 642 CURVE SMOOTH",
"81 642 OFFCURVE",
"1 644 OFFCURVE",
"1 644 CURVE",
"-6 584 LINE",
"-5 582 OFFCURVE",
"-3 579 OFFCURVE",
"-2 577 CURVE",
"37 575 OFFCURVE",
"58 557 OFFCURVE",
"70 515 CURVE SMOOTH",
"126 328 OFFCURVE",
"211 -15 OFFCURVE",
"211 -15 CURVE",
"372 5 LINE",
"476 342 LINE",
"486 342 LINE",
"528 183 OFFCURVE",
"564 31 OFFCURVE",
"572 -15 CURVE"
);
}
);
width = 964;
}
);
leftKerningGroup = V;
rightKerningGroup = V;
unicode = 0057;
},
{
glyphname = X;
lastChange = "2014-09-12 03:52:47 -0300";
layers = (
{
anchors = (
{
name = bottom;
position = "{271, 0}";
},
{
name = top;
position = "{390, 647}";
}
);
layerId = "F8053E42-0B7C-4D2D-91AF-B2EFB3EA087D";
name = Bold;
paths = (
{
closed = 1;
nodes = (
"258 331 LINE",
"150 491 LINE SMOOTH",
"112 547 OFFCURVE",
"77 565 OFFCURVE",
"22 575 CURVE",
"18 580 LINE",
"26 644 LINE",
"26 644 OFFCURVE",
"110 642 OFFCURVE",
"185 642 CURVE SMOOTH",
"247 642 OFFCURVE",
"338 649 OFFCURVE",
"338 649 CURVE",
"343 640 LINE",
"338 582 LINE",
"296 580 OFFCURVE",
"279 571 OFFCURVE",
"279 552 CURVE SMOOTH",
"279 531 OFFCURVE",
"316 477 OFFCURVE",
"368 400 CURVE",
"403 453 OFFCURVE",
"465 534 OFFCURVE",
"465 557 CURVE SMOOTH",
"465 573 OFFCURVE",
"452 580 OFFCURVE",
"417 582 CURVE",
"415 587 LINE",
"421 645 LINE",
"446 645 OFFCURVE",
"508 642 OFFCURVE",
"552 642 CURVE SMOOTH",
"600 642 OFFCURVE",
"665 645 OFFCURVE",
"665 645 CURVE",
"669 638 LINE",
"663 577 LINE",
"601 556 OFFCURVE",
"576 532 OFFCURVE",
"531 470 CURVE SMOOTH",
"423 321 LINE",
"541 152 LINE SMOOTH",
"580 97 OFFCURVE",
"616 71 OFFCURVE",
"672 68 CURVE",
"675 64 LINE",
"667 -2 LINE",
"667 -2 OFFCURVE",
"580 1 OFFCURVE",
"538 1 CURVE SMOOTH",
"486 1 OFFCURVE",
"358 -7 OFFCURVE",
"358 -7 CURVE",
"353 0 LINE",
"358 61 LINE",
"395 63 OFFCURVE",
"413 71 OFFCURVE",
"413 89 CURVE SMOOTH",
"413 99 OFFCURVE",
"408 110 OFFCURVE",
"397 125 CURVE SMOOTH",
"311 252 LINE",
"245 159 LINE SMOOTH",
"220 124 OFFCURVE",
"210 107 OFFCURVE",
"210 93 CURVE SMOOTH",
"210 74 OFFCURVE",
"225 65 OFFCURVE",
"259 63 CURVE",
"263 56 LINE",
"257 -6 LINE",
"257 -6 OFFCURVE",
"162 1 OFFCURVE",
"127 1 CURVE SMOOTH",
"88 1 OFFCURVE",
"11 -4 OFFCURVE",
"11 -4 CURVE",
"7 6 LINE",
"14 66 LINE",
"58 82 OFFCURVE",
"109 136 OFFCURVE",
"158 200 CURVE SMOOTH"
);
}
);
width = 682;
}
);
leftKerningGroup = X;
rightKerningGroup = X;
unicode = 0058;
},
{
glyphname = Y;
lastChange = "2014-09-12 03:52:47 -0300";
layers = (
{
anchors = (
{
name = bottom;
position = "{333, 0}";
},
{
name = top;
position = "{364, 647}";
}
);
layerId = "F8053E42-0B7C-4D2D-91AF-B2EFB3EA087D";
name = Bold;
paths = (
{
closed = 1;
nodes = (
"228 572 OFFCURVE",
"242 580 OFFCURVE",
"287 582 CURVE",
"293 640 LINE",
"288 649 LINE",
"288 649 OFFCURVE",
"179 641 OFFCURVE",
"127 641 CURVE SMOOTH",
"88 641 OFFCURVE",
"-2 644 OFFCURVE",
"-2 644 CURVE",
"-10 580 LINE",
"-7 575 LINE",
"55 562 OFFCURVE",
"76 535 OFFCURVE",
"106 475 CURVE SMOOTH",
"204 284 LINE SMOOTH",
"227 240 OFFCURVE",
"233 216 OFFCURVE",
"233 182 CURVE SMOOTH",
"233 152 LINE SMOOTH",
"233 85 OFFCURVE",
"221 68 OFFCURVE",
"143 58 CURVE",
"136 -11 LINE",
"136 -11 OFFCURVE",
"235 0 OFFCURVE",
"292 0 CURVE SMOOTH",
"342 0 OFFCURVE",
"457 -4 OFFCURVE",
"457 -4 CURVE",
"466 65 LINE",
"463 70 LINE",
"463 70 OFFCURVE",
"435 67 OFFCURVE",
"413 67 CURVE SMOOTH",
"376 67 OFFCURVE",
"365 83 OFFCURVE",
"366 132 CURVE SMOOTH",
"367 205 OFFCURVE",
"366 234 OFFCURVE",
"385 270 CURVE SMOOTH",
"480 449 LINE SMOOTH",
"522 525 OFFCURVE",
"546 559 OFFCURVE",
"602 577 CURVE",
"609 638 LINE",
"605 645 LINE",
"605 645 OFFCURVE",
"548 641 OFFCURVE",
"502 641 CURVE SMOOTH",
"458 641 OFFCURVE",
"394 645 OFFCURVE",
"369 645 CURVE",
"362 587 LINE",
"364 582 LINE",
"400 580 OFFCURVE",
"415 573 OFFCURVE",
"415 559 CURVE SMOOTH",
"415 546 OFFCURVE",
"410 529 OFFCURVE",
"401 511 CURVE SMOOTH",
"322 346 LINE",
"313 346 LINE",
"302 370 OFFCURVE",
"228 529 OFFCURVE",
"228 552 CURVE SMOOTH"
);
}
);
width = 598;
}
);
leftKerningGroup = Y;
rightKerningGroup = Y;
unicode = 0059;
},
{
glyphname = Z;
lastChange = "2014-09-12 03:52:47 -0300";
layers = (
{
anchors = (
{
name = bottom;
position = "{313, 0}";
},
{
name = top;
position = "{331, 647}";
}
);
layerId = "F8053E42-0B7C-4D2D-91AF-B2EFB3EA087D";
name = Bold;
paths = (
{
closed = 1;
nodes = (
"531 16 LINE",
"535 114 OFFCURVE",
"555 245 OFFCURVE",
"555 245 CURVE",
"470 238 LINE",
"455 135 OFFCURVE",
"421 90 OFFCURVE",
"354 84 CURVE",
"198 73 LINE",
"247 149 OFFCURVE",
"389 373 OFFCURVE",
"559 599 CURVE",
"541 640 LINE",
"248 643 LINE",
"70 654 LINE",
"60 644 LINE",
"57 552 OFFCURVE",
"43 428 OFFCURVE",
"43 428 CURVE",
"128 434 LINE",
"135 527 OFFCURVE",
"158 551 OFFCURVE",
"243 561 CURVE",
"369 569 LINE",
"19 40 LINE",
"44 -5 LINE",
"119 3 LINE",
"514 -3 LINE"
);
}
);
width = 580;
}
);
leftKerningGroup = Z;
rightKerningGroup = Z;
unicode = 005A;
},
{
glyphname = a;
lastChange = "2014-09-12 03:52:47 -0300";
layers = (
{
anchors = (
{
name = bottom;
position = "{229, 0}";
},
{
name = ogonek;
position = "{420, 41}";
},
{
name = top;
position = "{235, 474}";
}
);
layerId = "F8053E42-0B7C-4D2D-91AF-B2EFB3EA087D";
name = Bold;
paths = (
{
closed = 1;
nodes = (
"278 266 LINE",
"85 221 LINE SMOOTH",
"50 213 OFFCURVE",
"27 180 OFFCURVE",
"27 138 CURVE SMOOTH",
"27 55 OFFCURVE",
"86 -8 OFFCURVE",
"164 -8 CURVE SMOOTH",
"186 -8 OFFCURVE",
"229 22 OFFCURVE",
"275 68 CURVE",
"282 65 LINE",
"288 15 OFFCURVE",
"323 -12 OFFCURVE",
"383 -12 CURVE",
"412 -4 OFFCURVE",
"453 38 OFFCURVE",
"480 88 CURVE",
"465 109 LINE",
"449 99 OFFCURVE",
"431 92 OFFCURVE",
"417 92 CURVE SMOOTH",
"395 92 OFFCURVE",
"382 107 OFFCURVE",
"382 132 CURVE SMOOTH",
"382 176 OFFCURVE",
"402 303 OFFCURVE",
"402 337 CURVE SMOOTH",
"402 423 OFFCURVE",
"340 474 OFFCURVE",
"234 474 CURVE SMOOTH",
"207 474 OFFCURVE",
"128 441 OFFCURVE",
"49 397 CURVE",
"68 337 LINE",
"76 332 LINE",
"111 359 OFFCURVE",
"160 379 OFFCURVE",
"194 379 CURVE SMOOTH",
"247 379 OFFCURVE",
"279 346 OFFCURVE",
"279 289 CURVE"
);
},
{
closed = 1;
nodes = (
"273 117 LINE",
"251 100 OFFCURVE",
"225 89 OFFCURVE",
"206 89 CURVE SMOOTH",
"169 89 OFFCURVE",
"147 112 OFFCURVE",
"147 150 CURVE SMOOTH",
"147 167 OFFCURVE",
"154 177 OFFCURVE",
"171 182 CURVE SMOOTH",
"275 211 LINE"
);
}
);
width = 479;
}
);
leftKerningGroup = a;
rightKerningGroup = n;
unicode = 0061;
},
{
glyphname = aogonek;
lastChange = "2014-09-12 03:52:47 -0300";
layers = (
{
layerId = "F8053E42-0B7C-4D2D-91AF-B2EFB3EA087D";
name = Bold;
paths = (
{
closed = 1;
nodes = (
"466 -146 LINE",
"466 -146 OFFCURVE",
"429 -170 OFFCURVE",
"394 -170 CURVE SMOOTH",
"364 -170 OFFCURVE",
"345 -150 OFFCURVE",
"345 -122 CURVE SMOOTH",
"345 -88 OFFCURVE",
"381 -33 OFFCURVE",
"482 84 CURVE",
"465 109 LINE",
"465 109 OFFCURVE",
"441 92 OFFCURVE",
"417 92 CURVE SMOOTH",
"395 92 OFFCURVE",
"382 108 OFFCURVE",
"382 132 CURVE SMOOTH",
"382 160 OFFCURVE",
"392 208 OFFCURVE",
"400 310 CURVE SMOOTH",
"401 336 OFFCURVE",
"400 349 OFFCURVE",
"397 362 CURVE SMOOTH",
"385 427 OFFCURVE",
"334 466 OFFCURVE",
"252 472 CURVE SMOOTH",
"243 473 OFFCURVE",
"232 473 OFFCURVE",
"221 471 CURVE SMOOTH",
"167 463 OFFCURVE",
"49 397 OFFCURVE",
"49 397 CURVE",
"68 337 LINE",
"76 332 LINE",
"76 332 OFFCURVE",
"135 379 OFFCURVE",
"194 379 CURVE SMOOTH",
"247 379 OFFCURVE",
"279 346 OFFCURVE",
"279 289 CURVE",
"278 266 LINE",
"85 221 LINE SMOOTH",
"51 213 OFFCURVE",
"27 179 OFFCURVE",
"27 138 CURVE SMOOTH",
"27 55 OFFCURVE",
"86 -8 OFFCURVE",
"164 -8 CURVE SMOOTH",
"186 -8 OFFCURVE",
"227 21 OFFCURVE",
"275 68 CURVE",
"277 67 OFFCURVE",
"280 66 OFFCURVE",
"282 65 CURVE",
"286 26 OFFCURVE",
"308 0 OFFCURVE",
"346 -8 CURVE",
"286 -72 OFFCURVE",
"263 -111 OFFCURVE",
"263 -149 CURVE SMOOTH",
"263 -206 OFFCURVE",
"309 -241 OFFCURVE",
"383 -241 CURVE",
"433 -224 OFFCURVE",
"485 -174 OFFCURVE",
"485 -174 CURVE"
);
},
{
closed = 1;
nodes = (
"273 117 LINE",
"252 100 OFFCURVE",
"223 89 OFFCURVE",
"202 89 CURVE SMOOTH",
"170 89 OFFCURVE",
"147 114 OFFCURVE",
"147 150 CURVE SMOOTH",
"147 167 OFFCURVE",
"154 177 OFFCURVE",
"171 182 CURVE SMOOTH",
"275 211 LINE"
);
}
);
width = 479;
}
);
leftKerningGroup = a;
rightKerningGroup = n;
unicode = 0105;
},
{
glyphname = ae;
lastChange = "2014-09-12 03:52:47 -0300";
layers = (
{
anchors = (
{
name = top;
position = "{350, 472}";
}
);
layerId = "F8053E42-0B7C-4D2D-91AF-B2EFB3EA087D";
name = Bold;
paths = (
{
closed = 1;
nodes = (
"636 113 LINE",
"629 116 LINE",
"629 116 OFFCURVE",
"570 84 OFFCURVE",
"508 84 CURVE SMOOTH",
"434 84 OFFCURVE",
"389 133 OFFCURVE",
"380 221 CURVE",
"635 265 LINE",
"646 277 LINE",
"646 277 OFFCURVE",
"648 290 OFFCURVE",
"648 306 CURVE SMOOTH",
"648 411 OFFCURVE",
"590 474 OFFCURVE",
"493 474 CURVE SMOOTH",
"434 474 OFFCURVE",
"381 451 OFFCURVE",
"343 409 CURVE",
"317 451 OFFCURVE",
"275 474 OFFCURVE",
"219 474 CURVE SMOOTH",
"172 474 OFFCURVE",
"35 397 OFFCURVE",
"35 397 CURVE",
"53 337 LINE",
"61 332 LINE",
"61 332 OFFCURVE",
"122 380 OFFCURVE",
"180 380 CURVE SMOOTH",
"234 380 OFFCURVE",
"264 348 OFFCURVE",
"264 292 CURVE SMOOTH",
"264 261 LINE",
"83 223 LINE SMOOTH",
"43 215 OFFCURVE",
"18 180 OFFCURVE",
"18 136 CURVE SMOOTH",
"18 54 OFFCURVE",
"77 -8 OFFCURVE",
"155 -8 CURVE SMOOTH",
"187 -3 OFFCURVE",
"239 32 OFFCURVE",
"295 86 CURVE",
"330 23 OFFCURVE",
"398 -12 OFFCURVE",
"486 -12 CURVE SMOOTH",
"556 -12 OFFCURVE",
"653 62 OFFCURVE",
"653 62 CURVE"
);
},
{
closed = 1;
nodes = (
"264 208 LINE",
"264 178 OFFCURVE",
"269 151 OFFCURVE",
"277 128 CURVE",
"245 102 OFFCURVE",
"213 87 OFFCURVE",
"191 87 CURVE SMOOTH",
"160 87 OFFCURVE",
"137 113 OFFCURVE",
"137 147 CURVE SMOOTH",
"137 166 OFFCURVE",
"145 178 OFFCURVE",
"166 182 CURVE SMOOTH"
);
},
{
closed = 1;
nodes = (
"377 292 LINE SMOOTH",
"377 352 OFFCURVE",
"411 390 OFFCURVE",
"464 390 CURVE SMOOTH",
"499 390 OFFCURVE",
"522 362 OFFCURVE",
"522 321 CURVE SMOOTH",
"522 313 OFFCURVE",
"516 309 OFFCURVE",
"504 306 CURVE SMOOTH",
"377 274 LINE"
);
}
);
width = 670;
}
);
leftKerningGroup = a;
rightKerningGroup = e;
unicode = 00E6;
},
{
glyphname = b;
lastChange = "2014-09-12 03:52:47 -0300";
layers = (
{
anchors = (
{
name = bottom;
position = "{252, 0}";
},
{
name = top;
position = "{215, 463}";
}
);
layerId = "F8053E42-0B7C-4D2D-91AF-B2EFB3EA087D";
name = Bold;
paths = (
{
closed = 1;
nodes = (
"67 16 LINE",
"76 6 LINE SMOOTH",
"76 6 OFFCURVE",
"156 -10 OFFCURVE",
"236 -10 CURVE SMOOTH",
"383 -10 OFFCURVE",
"488 98 OFFCURVE",
"488 250 CURVE SMOOTH",
"488 386 OFFCURVE",
"414 471 OFFCURVE",
"298 471 CURVE SMOOTH",
"285 471 OFFCURVE",
"243 445 OFFCURVE",
"189 406 CURVE SMOOTH",
"194 590 OFFCURVE",
"204 708 OFFCURVE",
"216 723 CURVE SMOOTH",
"209 742 LINE SMOOTH",
"209 742 OFFCURVE",
"96 722 OFFCURVE",
"3 710 CURVE SMOOTH",
"-3 656 LINE",
"1 652 LINE",
"5 652 OFFCURVE",
"15 653 OFFCURVE",
"24 653 CURVE SMOOTH",
"56 653 OFFCURVE",
"67 639 OFFCURVE",
"67 597 CURVE"
);
},
{
closed = 1;
nodes = (
"188 343 LINE SMOOTH",
"207 361 OFFCURVE",
"237 375 OFFCURVE",
"260 375 CURVE SMOOTH",
"319 375 OFFCURVE",
"358 312 OFFCURVE",
"358 212 CURVE SMOOTH",
"358 123 OFFCURVE",
"321 73 OFFCURVE",
"258 73 CURVE SMOOTH",
"229 73 OFFCURVE",
"197 82 OFFCURVE",
"185 89 CURVE SMOOTH"
);
}
);
width = 514;
}
);
leftKerningGroup = h;
rightKerningGroup = o;
unicode = 0062;
},
{
glyphname = c;
lastChange = "2014-09-12 03:52:47 -0300";
layers = (
{
anchors = (
{
name = bottom;
position = "{248, 0}";
},
{
name = top;
position = "{260, 472}";
}
);
layerId = "F8053E42-0B7C-4D2D-91AF-B2EFB3EA087D";
name = Bold;
paths = (
{
closed = 1;
nodes = (
"373 118 LINE",
"373 118 OFFCURVE",
"322 89 OFFCURVE",
"267 89 CURVE SMOOTH",
"196 89 OFFCURVE",
"157 148 OFFCURVE",
"157 257 CURVE SMOOTH",
"157 343 OFFCURVE",
"190 389 OFFCURVE",
"251 389 CURVE SMOOTH",
"290 389 OFFCURVE",
"313 364 OFFCURVE",
"313 318 CURVE SMOOTH",
"312.99 284.99 LINE",
"378 289 LINE",
"383 373 OFFCURVE",
"400 444 OFFCURVE",
"400 444 CURVE",
"396 453 LINE",
"396 453 OFFCURVE",
"344 474 OFFCURVE",
"269 474 CURVE SMOOTH",
"125 474 OFFCURVE",
"25 368 OFFCURVE",
"25 219 CURVE SMOOTH",
"25 76 OFFCURVE",
"109 -12 OFFCURVE",
"246 -12 CURVE SMOOTH",
"306 -12 OFFCURVE",
"397 63 OFFCURVE",
"397 63 CURVE",
"381 115 LINE"
);
}
);
width = 432;
}
);
leftKerningGroup = o;
rightKerningGroup = c;
unicode = 0063;
},
{
glyphname = d;
lastChange = "2014-09-12 03:52:47 -0300";
layers = (
{
anchors = (
{
name = bottom;
position = "{264, 0}";
},
{
name = center;
position = "{376, 236}";
},
{
name = top;
position = "{390, 730}";
}
);
layerId = "F8053E42-0B7C-4D2D-91AF-B2EFB3EA087D";
name = Bold;
paths = (
{
closed = 1;
nodes = (
"338 60 LINE",
"345 12 OFFCURVE",
"378 -12 OFFCURVE",
"438 -12 CURVE",
"494 7 OFFCURVE",
"538 88 OFFCURVE",
"538 88 CURVE",
"523 109 LINE",
"523 109 OFFCURVE",
"501 92 OFFCURVE",
"477 92 CURVE SMOOTH",
"458 92 OFFCURVE",
"446 108 OFFCURVE",
"446 133 CURVE SMOOTH",
"446 430 OFFCURVE",
"460 699 OFFCURVE",
"477 725 CURVE",
"468 742 LINE",
"468 742 OFFCURVE",
"363 721 OFFCURVE",
"268 709 CURVE",
"261 648 LINE",
"261 648 OFFCURVE",
"276 651 OFFCURVE",
"285 651 CURVE SMOOTH",
"317 651 OFFCURVE",
"328 637 OFFCURVE",
"328 595 CURVE SMOOTH",
"328 469 LINE",
"310 471 OFFCURVE",
"293 471 OFFCURVE",
"277 471 CURVE SMOOTH",
"130 471 OFFCURVE",
"25 362 OFFCURVE",
"25 211 CURVE SMOOTH",
"25 76 OFFCURVE",
"98 -8 OFFCURVE",
"215 -8 CURVE SMOOTH",
"227 -8 OFFCURVE",
"267 16 OFFCURVE",
"331 62 CURVE"
);
},
{
closed = 1;
nodes = (
"328 119 LINE",
"328 119 OFFCURVE",
"290 86 OFFCURVE",
"253 86 CURVE SMOOTH",
"195 86 OFFCURVE",
"156 149 OFFCURVE",
"156 248 CURVE SMOOTH",
"156 337 OFFCURVE",
"193 387 OFFCURVE",
"256 387 CURVE SMOOTH",
"299 387 OFFCURVE",
"328 370 OFFCURVE",
"328 370 CURVE"
);
}
);
width = 537;
}
);
leftKerningGroup = o;
unicode = 0064;
},
{
glyphname = eth;
lastChange = "2014-09-12 03:52:47 -0300";
layers = (
{
layerId = "F8053E42-0B7C-4D2D-91AF-B2EFB3EA087D";
name = Bold;
paths = (
{
closed = 1;
nodes = (
"393 716 LINE",
"252 646 LINE",
"203 682 OFFCURVE",
"146 714 OFFCURVE",
"82 741 CURVE",
"69 736 LINE",
"37 680 LINE",
"84 655 OFFCURVE",
"125 628 OFFCURVE",
"160 599 CURVE",
"61 550 LINE",
"78 489 LINE",
"88 486 LINE",
"217 550 LINE",
"249 518 OFFCURVE",
"274 482 OFFCURVE",
"293 444 CURVE",
"290 439 LINE",
"284 442 OFFCURVE",
"255 459 OFFCURVE",
"233 463 CURVE SMOOTH",
"118 463 OFFCURVE",
"29 353 OFFCURVE",
"29 210 CURVE SMOOTH",
"29 74 OFFCURVE",
"112 -12 OFFCURVE",
"244 -12 CURVE SMOOTH",
"385 -12 OFFCURVE",
"480 94 OFFCURVE",
"480 250 CURVE SMOOTH",
"480 379 OFFCURVE",
"420 500 OFFCURVE",
"312 599 CURVE",
"418 652 LINE",
"401 712 LINE"
);
},
{
closed = 1;
nodes = (
"344 112 OFFCURVE",
"317 65 OFFCURVE",
"266 65 CURVE SMOOTH",
"200 65 OFFCURVE",
"162 122 OFFCURVE",
"162 233 CURVE SMOOTH",
"162 337 OFFCURVE",
"190 375 OFFCURVE",
"252 375 CURVE SMOOTH",
"292 375 OFFCURVE",
"316 360 OFFCURVE",
"329 349 CURVE",
"339 305 OFFCURVE",
"344 258 OFFCURVE",
"344 204 CURVE SMOOTH"
);
}
);
width = 508;
}
);
leftKerningGroup = o;
unicode = 00F0;
},
{
glyphname = dcaron;
lastChange = "2014-09-12 03:52:47 -0300";
layers = (
{
components = (
{
disableAlignment = 1;
name = d;
transform = "{1, 0, 0, 1, 0, 0}";
}
);
layerId = "F8053E42-0B7C-4D2D-91AF-B2EFB3EA087D";
name = Bold;
paths = (
{
closed = 1;
nodes = (
"616 701 LINE",
"515 687 LINE",
"515 687 OFFCURVE",
"525 575 OFFCURVE",
"522 460 CURVE",
"537 456 LINE",
"585 475 LINE",
"609 582 OFFCURVE",
"624 691 OFFCURVE",
"624 691 CURVE"
);
}
);
width = 606;
}
);
leftKerningGroup = o;
unicode = 010F;
},
{
glyphname = dcroat;
lastChange = "2014-09-12 03:52:47 -0300";
layers = (
{
components = (
{
disableAlignment = 1;
name = d;
transform = "{1, 0, 0, 1, 0, 0}";
}
);
layerId = "F8053E42-0B7C-4D2D-91AF-B2EFB3EA087D";
name = Bold;
paths = (
{
closed = 1;
nodes = (
"403 579 LINE",
"220 580 LINE",
"213 532 LINE",
"223 522 LINE",
"379 523 LINE",
"536 524 LINE",
"541 570 LINE",
"527 584 LINE"
);
}
);
width = 537;
}
);
leftKerningGroup = o;
unicode = 0111;
},
{
glyphname = e;
lastChange = "2014-09-12 03:52:47 -0300";
layers = (
{
anchors = (
{
name = bottom;
position = "{261, 0}";
},
{
name = ogonek;
position = "{392, 41}";
},
{
name = top;
position = "{255, 472}";
}
);
layerId = "F8053E42-0B7C-4D2D-91AF-B2EFB3EA087D";
name = Bold;
paths = (
{
closed = 1;
nodes = (
"155 290 LINE",
"161 358 OFFCURVE",
"194 394 OFFCURVE",
"245 394 CURVE SMOOTH",
"286 394 OFFCURVE",
"308 369 OFFCURVE",
"308 320 CURVE SMOOTH",
"308 303 OFFCURVE",
"304 299 OFFCURVE",
"289 297 CURVE SMOOTH"
);
},
{
closed = 1;
nodes = (
"412 234 LINE",
"424 245 LINE",
"424 245 OFFCURVE",
"431 273 OFFCURVE",
"431 302 CURVE SMOOTH",
"431 416 OFFCURVE",
"374 474 OFFCURVE",
"262 474 CURVE SMOOTH",
"126 474 OFFCURVE",
"25 364 OFFCURVE",
"25 219 CURVE SMOOTH",
"25 76 OFFCURVE",
"111 -12 OFFCURVE",
"252 -12 CURVE SMOOTH",
"325 -12 OFFCURVE",
"424 62 OFFCURVE",
"424 62 CURVE",
"407 113 LINE",
"400 116 LINE",
"400 116 OFFCURVE",
"342 86 OFFCURVE",
"279 86 CURVE SMOOTH",
"205 86 OFFCURVE",
"159 136 OFFCURVE",
"155 225 CURVE SMOOTH",
"155 234 LINE"
);
}
);
width = 463;
}
);
leftKerningGroup = o;
rightKerningGroup = e;
unicode = 0065;
},
{
glyphname = eogonek;
lastChange = "2014-09-12 03:52:47 -0300";
layers = (
{
layerId = "F8053E42-0B7C-4D2D-91AF-B2EFB3EA087D";
name = Bold;
paths = (
{
closed = 1;
nodes = (
"155 290 LINE",
"161 358 OFFCURVE",
"194 394 OFFCURVE",
"245 394 CURVE SMOOTH",
"286 394 OFFCURVE",
"308 369 OFFCURVE",
"308 320 CURVE SMOOTH",
"308 303 OFFCURVE",
"304 299 OFFCURVE",
"289 297 CURVE SMOOTH"
);
},
{
closed = 1;
nodes = (
"412 234 LINE",
"424 245 LINE",
"424 245 OFFCURVE",
"431 273 OFFCURVE",
"431 302 CURVE SMOOTH",
"431 416 OFFCURVE",
"374 474 OFFCURVE",
"262 474 CURVE SMOOTH",
"126 474 OFFCURVE",
"25 364 OFFCURVE",
"25 219 CURVE SMOOTH",
"25 76 OFFCURVE",
"111 -12 OFFCURVE",
"252 -12 CURVE SMOOTH",
"325 -12 OFFCURVE",
"424 62 OFFCURVE",
"424 62 CURVE",
"407 113 LINE",
"400 116 LINE",
"400 116 OFFCURVE",
"342 86 OFFCURVE",
"279 86 CURVE SMOOTH",
"205 86 OFFCURVE",
"159 136 OFFCURVE",
"155 225 CURVE SMOOTH",
"155 234 LINE"
);
},
{
closed = 1;
nodes = (
"422 -146 LINE",
"422 -146 OFFCURVE",
"385 -170 OFFCURVE",
"350 -170 CURVE SMOOTH",
"320 -170 OFFCURVE",
"300 -150 OFFCURVE",
"300 -122 CURVE SMOOTH",
"300 -78 OFFCURVE",
"334 -39 OFFCURVE",
"424 62 CURVE",
"370 62 LINE",
"277 -32 OFFCURVE",
"219 -90 OFFCURVE",
"219 -149 CURVE SMOOTH",
"219 -207 OFFCURVE",
"266 -241 OFFCURVE",
"339 -241 CURVE",
"388 -224 OFFCURVE",
"441 -174 OFFCURVE",
"441 -174 CURVE"
);
}
);
width = 463;
}
);
leftKerningGroup = o;
rightKerningGroup = e;
unicode = 0119;
},
{
glyphname = f;
lastChange = "2014-09-12 03:52:47 -0300";
layers = (
{
anchors = (
{
name = bottom;
position = "{157, 0}";
},
{
name = top;
position = "{265, 749}";
}
);
layerId = "F8053E42-0B7C-4D2D-91AF-B2EFB3EA087D";
name = Bold;
paths = (
{
closed = 1;
nodes = (
"28 386 LINE",
"78 384 OFFCURVE",
"91 377 OFFCURVE",
"93 346 CURVE",
"93 113 LINE SMOOTH",
"93 78 OFFCURVE",
"76 61 OFFCURVE",
"37 56 CURVE",
"30 -6 LINE",
"30 -6 OFFCURVE",
"107 0 OFFCURVE",
"163 0 CURVE SMOOTH",
"206 0 OFFCURVE",
"308 -3 OFFCURVE",
"308 -3 CURVE",
"317 64 LINE",
"314 69 LINE",
"314 69 OFFCURVE",
"282 67 OFFCURVE",
"253 67 CURVE SMOOTH",
"224 67 OFFCURVE",
"211 81 OFFCURVE",
"211 113 CURVE SMOOTH",
"214 383 LINE",
"284 382 OFFCURVE",
"336 380 OFFCURVE",
"336 380 CURVE",
"347 448 LINE",
"343 453 LINE",
"343 453 OFFCURVE",
"286 450 OFFCURVE",
"215 450 CURVE",
"215 496 LINE SMOOTH",
"216 608 OFFCURVE",
"243 651 OFFCURVE",
"312 651 CURVE SMOOTH",
"372 651 OFFCURVE",
"417 613 OFFCURVE",
"417 613 CURVE",
"430 616 LINE",
"447 665 OFFCURVE",
"464 705 OFFCURVE",
"464 705 CURVE",
"460 721 LINE",
"460 721 OFFCURVE",
"413 742 OFFCURVE",
"345 742 CURVE SMOOTH",
"192 742 OFFCURVE",
"93 634 OFFCURVE",
"93 462 CURVE SMOOTH",
"93 454 LINE",
"31 444 LINE",
"24 392 LINE"
);
}
);
width = 342;
}
);
leftKerningGroup = f;
rightKerningGroup = f;
unicode = 0066;
},
{
glyphname = g;
lastChange = "2014-09-12 03:52:47 -0300";
layers = (
{
anchors = (
{
name = bottom;
position = "{245, -215}";
},
{
name = top;
position = "{264, 472}";
}
);
layerId = "F8053E42-0B7C-4D2D-91AF-B2EFB3EA087D";
name = Bold;
paths = (
{
closed = 1;
nodes = (
"364 127 OFFCURVE",
"454 203 OFFCURVE",
"454 305 CURVE SMOOTH",
"454 343 OFFCURVE",
"442 375 OFFCURVE",
"415 404 CURVE",
"419 410 LINE",
"449 411 OFFCURVE",
"481 414 OFFCURVE",
"492 416 CURVE",
"505 493 LINE",
"499 498 LINE",
"470 491 OFFCURVE",
"396 468 OFFCURVE",
"359 465 CURVE",
"328 465 OFFCURVE",
"298 475 OFFCURVE",
"255 475 CURVE SMOOTH",
"136 475 OFFCURVE",
"48 396 OFFCURVE",
"48 290 CURVE SMOOTH",
"48 231 OFFCURVE",
"75 181 OFFCURVE",
"123 155 CURVE",
"123 148 LINE",
"93 129 OFFCURVE",
"66 107 OFFCURVE",
"41 81 CURVE",
"44 27 OFFCURVE",
"80 -10 OFFCURVE",
"144 -22 CURVE",
"144 -28 LINE",
"123 -43 OFFCURVE",
"65 -79 OFFCURVE",
"44 -101 CURVE",
"44 -187 OFFCURVE",
"114 -242 OFFCURVE",
"221 -242 CURVE SMOOTH",
"357 -242 OFFCURVE",
"488 -152 OFFCURVE",
"488 -55 CURVE SMOOTH",
"488 101 OFFCURVE",
"151 30 OFFCURVE",
"151 102 CURVE SMOOTH",
"151 112 OFFCURVE",
"158 121 OFFCURVE",
"177 134 CURVE",
"199 129 OFFCURVE",
"218 127 OFFCURVE",
"239 127 CURVE SMOOTH"
);
},
{
closed = 1;
nodes = (
"202 195 OFFCURVE",
"173 238 OFFCURVE",
"173 302 CURVE SMOOTH",
"172.99 370 OFFCURVE",
"201 399 OFFCURVE",
"246 399 CURVE SMOOTH",
"300 399 OFFCURVE",
"330 356 OFFCURVE",
"330 291 CURVE SMOOTH",
"330 227 OFFCURVE",
"303 195 OFFCURVE",
"256 195 CURVE SMOOTH"
);
},
{
closed = 1;
nodes = (
"203 -167 OFFCURVE",
"170 -144 OFFCURVE",
"170 -105 CURVE SMOOTH",
"170 -78 OFFCURVE",
"189 -47 OFFCURVE",
"207 -35 CURVE",
"348 -54 OFFCURVE",
"373 -63 OFFCURVE",
"373 -93 CURVE SMOOTH",
"373 -135 OFFCURVE",
"325 -167 OFFCURVE",
"260 -167 CURVE SMOOTH"
);
}
);
width = 512;
}
);
leftKerningGroup = g;
rightKerningGroup = g;
unicode = 0067;
},
{
glyphname = h;
lastChange = "2014-09-12 03:52:47 -0300";
layers = (
{
anchors = (
{
name = bottom;
position = "{265, 0}";
},
{
name = center;
position = "{277, 236}";
},
{
name = top;
position = "{128, 710}";
}
);
layerId = "F8053E42-0B7C-4D2D-91AF-B2EFB3EA087D";
name = Bold;
paths = (
{
closed = 1;
nodes = (
"16 -3 LINE",
"16 -3 OFFCURVE",
"78 0 OFFCURVE",
"128 0 CURVE SMOOTH",
"169 0 OFFCURVE",
"237 -3 OFFCURVE",
"237 -3 CURVE",
"247 58 LINE",
"244 64 LINE",
"244 64 OFFCURVE",
"229 62 OFFCURVE",
"219 62 CURVE SMOOTH",
"198 62 OFFCURVE",
"190 74 OFFCURVE",
"190 107 CURVE SMOOTH",
"190 184 OFFCURVE",
"190 259 OFFCURVE",
"192 328 CURVE",
"206 339 OFFCURVE",
"247 369 OFFCURVE",
"283 369 CURVE SMOOTH",
"326 369 OFFCURVE",
"347 341 OFFCURVE",
"346 282 CURVE SMOOTH",
"342 111 LINE SMOOTH",
"342 78 OFFCURVE",
"329 63 OFFCURVE",
"296 55 CURVE",
"291 -8 LINE",
"291 -8 OFFCURVE",
"364 0 OFFCURVE",
"403 0 CURVE SMOOTH",
"441 0 OFFCURVE",
"511 -3 OFFCURVE",
"511 -3 CURVE",
"521 59 LINE",
"519 63 LINE",
"519 63 OFFCURVE",
"500 62 OFFCURVE",
"489 62 CURVE SMOOTH",
"466 62 OFFCURVE",
"457 75 OFFCURVE",
"457 109 CURVE SMOOTH",
"457 158 OFFCURVE",
"476 305 OFFCURVE",
"476 344 CURVE SMOOTH",
"476 428 OFFCURVE",
"422 474 OFFCURVE",
"325 474 CURVE SMOOTH",
"296 474 OFFCURVE",
"222 414 OFFCURVE",
"193 387 CURVE",
"198 579 OFFCURVE",
"208 707 OFFCURVE",
"221 723 CURVE",
"213.99 742 LINE",
"213.99 742 OFFCURVE",
"100 722 OFFCURVE",
"8 710 CURVE",
"2 657 LINE",
"6 652 LINE",
"29 652 LINE",
"62 652 OFFCURVE",
"72 638 OFFCURVE",
"72 597 CURVE SMOOTH",
"72 113 LINE",
"72 76 OFFCURVE",
"60 63 OFFCURVE",
"24 59 CURVE"
);
}
);
width = 544;
}
);
leftKerningGroup = h;
rightKerningGroup = n;
unicode = 0068;
},
{
glyphname = hbar;
lastChange = "2014-09-12 03:52:47 -0300";
layers = (
{
components = (
{
disableAlignment = 1;
name = h;
transform = "{1, 0, 0, 1, 3, 0}";
}
);
layerId = "F8053E42-0B7C-4D2D-91AF-B2EFB3EA087D";
name = Bold;
paths = (
{
closed = 1;
nodes = (
"98 571 OFFCURVE",
"-5 572 OFFCURVE",
"-5 572 CURVE",
"-12 524 LINE",
"-2 515 LINE",
"-2 515 OFFCURVE",
"80 516 OFFCURVE",
"143 516 CURVE SMOOTH",
"295 516 LINE",
"300 562 LINE",
"286 576 LINE",
"286 576 OFFCURVE",
"216 571 OFFCURVE",
"167 571 CURVE SMOOTH"
);
}
);
width = 547;
}
);
leftKerningGroup = h;
rightKerningGroup = n;
unicode = 0127;
},
{
glyphname = i;
lastChange = "2014-09-12 03:52:47 -0300";
layers = (
{
anchors = (
{
name = bottom;
position = "{159, 0}";
},
{
name = ogonek;
position = "{159, 49}";
},
{
name = top;
position = "{147, 472}";
}
);
layerId = "F8053E42-0B7C-4D2D-91AF-B2EFB3EA087D";
name = Bold;
paths = (
{
closed = 1;
nodes = (
"196 574 OFFCURVE",
"228 606 OFFCURVE",
"228 654 CURVE SMOOTH",
"228 699 OFFCURVE",
"201 726 OFFCURVE",
"158 726 CURVE SMOOTH",
"110 726 OFFCURVE",
"78 694 OFFCURVE",
"78 646 CURVE SMOOTH",
"78 601 OFFCURVE",
"104 574 OFFCURVE",
"149 574 CURVE SMOOTH"
);
},
{
closed = 1;
nodes = (
"27 -11 LINE",
"27 -11 OFFCURVE",
"100 0 OFFCURVE",
"150 0 CURVE SMOOTH",
"191 0 OFFCURVE",
"261 -3 OFFCURVE",
"261 -3 CURVE",
"271 60 LINE",
"268 64 LINE",
"268 64 OFFCURVE",
"250 62 OFFCURVE",
"239 62 CURVE SMOOTH",
"217 62 OFFCURVE",
"209 74 OFFCURVE",
"209 106 CURVE SMOOTH",
"209 284 OFFCURVE",
"218 428 OFFCURVE",
"232 457 CURVE",
"223 474 LINE",
"223 474 OFFCURVE",
"123 453 OFFCURVE",
"31 441 CURVE",
"25 382 LINE",
"25 382 OFFCURVE",
"40 385 OFFCURVE",
"49 385 CURVE SMOOTH",
"80 385 OFFCURVE",
"91 371 OFFCURVE",
"91 329 CURVE SMOOTH",
"91 115 LINE SMOOTH",
"91 79 OFFCURVE",
"74 60 OFFCURVE",
"34 53 CURVE"
);
}
);
width = 293;
}
);
leftKerningGroup = n;
rightKerningGroup = i;
unicode = 0069;
},
{
glyphname = dotlessi;
lastChange = "2014-09-12 03:52:47 -0300";
layers = (
{
anchors = (
{
name = bottom;
position = "{159, 0}";
},
{
name = ogonek;
position = "{238, 49}";
},
{
name = top;
position = "{148, 472}";
}
);
layerId = "F8053E42-0B7C-4D2D-91AF-B2EFB3EA087D";
name = Bold;
paths = (
{
closed = 1;
nodes = (
"27 -11 LINE",
"27 -11 OFFCURVE",
"100 0 OFFCURVE",
"150 0 CURVE SMOOTH",
"191 0 OFFCURVE",
"261 -3 OFFCURVE",
"261 -3 CURVE",
"271 60 LINE",
"268 64 LINE",
"268 64 OFFCURVE",
"250 62 OFFCURVE",
"239 62 CURVE SMOOTH",
"217 62 OFFCURVE",
"209 74 OFFCURVE",
"209 106 CURVE SMOOTH",
"209 284 OFFCURVE",
"218 428 OFFCURVE",
"232 457 CURVE",
"223 474 LINE",
"223 474 OFFCURVE",
"123 453 OFFCURVE",
"31 441 CURVE",
"25 382 LINE",
"25 382 OFFCURVE",
"40 385 OFFCURVE",
"49 385 CURVE SMOOTH",
"80 385 OFFCURVE",
"91 371 OFFCURVE",
"91 329 CURVE SMOOTH",
"91 115 LINE SMOOTH",
"91 79 OFFCURVE",
"74 60 OFFCURVE",
"34 53 CURVE"
);
}
);
width = 293;
}
);
unicode = 0131;
},
{
glyphname = idotaccent;
lastChange = "2014-09-12 03:52:47 -0300";
layers = (
{
anchors = (
{
name = bottom;
position = "{159, 0}";
},
{
name = ogonek;
position = "{159, 49}";
},
{
name = top;
position = "{147, 472}";
}
);
layerId = "F8053E42-0B7C-4D2D-91AF-B2EFB3EA087D";
name = Bold;
paths = (
{
closed = 1;
nodes = (
"196 574 OFFCURVE",
"228 606 OFFCURVE",
"228 654 CURVE SMOOTH",
"228 699 OFFCURVE",
"201 726 OFFCURVE",
"158 726 CURVE SMOOTH",
"110 726 OFFCURVE",
"78 694 OFFCURVE",
"78 646 CURVE SMOOTH",
"78 601 OFFCURVE",
"104 574 OFFCURVE",
"149 574 CURVE SMOOTH"
);
},
{
closed = 1;
nodes = (
"27 -11 LINE",
"27 -11 OFFCURVE",
"100 0 OFFCURVE",
"150 0 CURVE SMOOTH",
"191 0 OFFCURVE",
"261 -3 OFFCURVE",
"261 -3 CURVE",
"271 60 LINE",
"268 64 LINE",
"268 64 OFFCURVE",
"250 62 OFFCURVE",
"239 62 CURVE SMOOTH",
"217 62 OFFCURVE",
"209 74 OFFCURVE",
"209 106 CURVE SMOOTH",
"209 284 OFFCURVE",
"218 428 OFFCURVE",
"232 457 CURVE",
"223 474 LINE",
"223 474 OFFCURVE",
"123 453 OFFCURVE",
"31 441 CURVE",
"25 382 LINE",
"25 382 OFFCURVE",
"40 385 OFFCURVE",
"49 385 CURVE SMOOTH",
"80 385 OFFCURVE",
"91 371 OFFCURVE",
"91 329 CURVE SMOOTH",
"91 115 LINE SMOOTH",
"91 79 OFFCURVE",
"74 60 OFFCURVE",
"34 53 CURVE"
);
}
);
width = 293;
}
);
leftKerningGroup = n;
rightKerningGroup = i;
},
{
glyphname = j;
lastChange = "2014-09-12 03:52:47 -0300";
layers = (
{
anchors = (
{
name = bottom;
position = "{243, 0}";
},
{
name = top;
position = "{125, 463}";
}
);
layerId = "F8053E42-0B7C-4D2D-91AF-B2EFB3EA087D";
name = Bold;
paths = (
{
closed = 1;
nodes = (
"39 -244 LINE",
"140 -194 OFFCURVE",
"201 -108 OFFCURVE",
"201 -14 CURVE SMOOTH",
"201 266 OFFCURVE",
"208 427 OFFCURVE",
"222 457 CURVE",
"213 474 LINE",
"213 474 OFFCURVE",
"104 452 OFFCURVE",
"22 440 CURVE",
"16 382 LINE",
"16 382 OFFCURVE",
"32 385 OFFCURVE",
"46 385 CURVE SMOOTH",
"73 385 OFFCURVE",
"83 372 OFFCURVE",
"83 329 CURVE SMOOTH",
"83 36 LINE SMOOTH",
"83 -93 OFFCURVE",
"66 -146 OFFCURVE",
"9 -202 CURVE",
"7 -214 LINE"
);
},
{
closed = 1;
nodes = (
"188 574 OFFCURVE",
"220 606 OFFCURVE",
"220 654 CURVE SMOOTH",
"220 699 OFFCURVE",
"193 726 OFFCURVE",
"150 726 CURVE SMOOTH",
"102 726 OFFCURVE",
"70 694 OFFCURVE",
"70 646 CURVE SMOOTH",
"70 601 OFFCURVE",
"96 574 OFFCURVE",
"141 574 CURVE SMOOTH"
);
}
);
width = 275;
}
);
leftKerningGroup = j;
rightKerningGroup = j;
unicode = 006A;
},
{
glyphname = dotlessj;
lastChange = "2014-09-12 03:52:47 -0300";
layers = (
{
layerId = "F8053E42-0B7C-4D2D-91AF-B2EFB3EA087D";
name = Bold;
paths = (
{
closed = 1;
nodes = (
"39 -244 LINE",
"140 -194 OFFCURVE",
"201 -108 OFFCURVE",
"201 -14 CURVE SMOOTH",
"201 266 OFFCURVE",
"208 427 OFFCURVE",
"222 457 CURVE",
"213 474 LINE",
"213 474 OFFCURVE",
"104 452 OFFCURVE",
"22 440 CURVE",
"16 382 LINE",
"16 382 OFFCURVE",
"32 385 OFFCURVE",
"46 385 CURVE SMOOTH",
"73 385 OFFCURVE",
"83 372 OFFCURVE",
"83 329 CURVE SMOOTH",
"83 36 LINE SMOOTH",
"83 -93 OFFCURVE",
"66 -146 OFFCURVE",
"9 -202 CURVE",
"7 -214 LINE"
);
}
);
width = 275;
}
);
leftKerningGroup = j;
unicode = 0237;
},
{
glyphname = k;
lastChange = "2014-09-12 03:52:47 -0300";
layers = (
{
anchors = (
{
name = bottom;
position = "{282, 0}";
},
{
name = top;
position = "{119, 687}";
}
);
layerId = "F8053E42-0B7C-4D2D-91AF-B2EFB3EA087D";
name = Bold;
paths = (
{
closed = 1;
nodes = (
"16 -6 LINE",
"16 -6 OFFCURVE",
"78 0 OFFCURVE",
"128 0 CURVE SMOOTH",
"167 0 OFFCURVE",
"237 -4 OFFCURVE",
"237 -4 CURVE",
"248 57 LINE",
"245 63 LINE",
"245 63 OFFCURVE",
"228 61 OFFCURVE",
"219 61 CURVE SMOOTH",
"198 61 OFFCURVE",
"190 73 OFFCURVE",
"190 106 CURVE SMOOTH",
"190 440 OFFCURVE",
"203 701 OFFCURVE",
"221 723 CURVE",
"213.99 742 LINE",
"213.99 742 OFFCURVE",
"100 722 OFFCURVE",
"8 710 CURVE",
"3 664 LINE SMOOTH",
"3 660 OFFCURVE",
"3 655 OFFCURVE",
"4 651 CURVE SMOOTH",
"14 651 OFFCURVE",
"32 653 OFFCURVE",
"44 651 CURVE SMOOTH",
"63 647 OFFCURVE",
"72 631 OFFCURVE",
"72 597 CURVE SMOOTH",
"72 134 LINE SMOOTH",
"72 82 OFFCURVE",
"68 63 OFFCURVE",
"24 57 CURVE"
);
},
{
closed = 1;
nodes = (
"305 68 LINE SMOOTH",
"333 18 OFFCURVE",
"355 -2 OFFCURVE",
"389 -10 CURVE SMOOTH",
"399 -12 OFFCURVE",
"415 -14 OFFCURVE",
"433 -13 CURVE SMOOTH",
"458 -12 OFFCURVE",
"506 -1 OFFCURVE",
"506 -1 CURVE",
"514 49 LINE",
"509 57 LINE",
"471 61 OFFCURVE",
"441 83 OFFCURVE",
"408 131 CURVE SMOOTH",
"324 261 LINE",
"378 314 OFFCURVE",
"437 380 OFFCURVE",
"500 404 CURVE",
"509 461 LINE",
"506 466 LINE",
"506 466 OFFCURVE",
"445 462 OFFCURVE",
"399 462 CURVE SMOOTH",
"348 462 OFFCURVE",
"279 464 OFFCURVE",
"279 464 CURVE",
"270 413 LINE",
"273 408 LINE",
"310 408 OFFCURVE",
"325 403 OFFCURVE",
"325 388 CURVE SMOOTH",
"325 378 OFFCURVE",
"320 370 OFFCURVE",
"304 354 CURVE SMOOTH",
"207 258 LINE",
"205 236 LINE"
);
}
);
width = 519;
}
);
leftKerningGroup = h;
rightKerningGroup = x;
unicode = 006B;
},
{
glyphname = kgreenlandic;
lastChange = "2014-09-12 03:52:47 -0300";
layers = (
{
layerId = "F8053E42-0B7C-4D2D-91AF-B2EFB3EA087D";
name = Bold;
paths = (
{
closed = 1;
nodes = (
"30 -6 LINE",
"30 -6 OFFCURVE",
"98 0 OFFCURVE",
"147 0 CURVE SMOOTH",
"187 0 OFFCURVE",
"256 -4 OFFCURVE",
"256 -4 CURVE",
"267 57 LINE",
"264 63 LINE",
"264 63 OFFCURVE",
"247 61 OFFCURVE",
"239 61 CURVE SMOOTH",
"217 61 OFFCURVE",
"209 73 OFFCURVE",
"209 106 CURVE SMOOTH",
"209 360 OFFCURVE",
"216 437 OFFCURVE",
"222 461 CURVE",
"214 474 LINE",
"214 474 OFFCURVE",
"114 459 OFFCURVE",
"30 452 CURVE",
"24 398 LINE",
"30 392 LINE",
"81 392 OFFCURVE",
"91 379 OFFCURVE",
"91 338 CURVE SMOOTH",
"91 134 LINE SMOOTH",
"91 82 OFFCURVE",
"82 63 OFFCURVE",
"38 57 CURVE"
);
},
{
closed = 1;
nodes = (
"324 68 LINE SMOOTH",
"352 18 OFFCURVE",
"374 -2 OFFCURVE",
"408 -10 CURVE SMOOTH",
"418 -12 OFFCURVE",
"434 -14 OFFCURVE",
"452 -13 CURVE SMOOTH",
"477 -12 OFFCURVE",
"525 -1 OFFCURVE",
"525 -1 CURVE",
"533 49 LINE",
"528 57 LINE",
"490 61 OFFCURVE",
"460 83 OFFCURVE",
"427 131 CURVE SMOOTH",
"343 261 LINE",
"397 314 OFFCURVE",
"456 380 OFFCURVE",
"519 404 CURVE",
"528 461 LINE",
"525 466 LINE",
"525 466 OFFCURVE",
"464 462 OFFCURVE",
"418 462 CURVE SMOOTH",
"367 462 OFFCURVE",
"298 464 OFFCURVE",
"298 464 CURVE",
"289 413 LINE",
"292 408 LINE",
"329 408 OFFCURVE",
"344 403 OFFCURVE",
"344 388 CURVE SMOOTH",
"344 378 OFFCURVE",
"339 370 OFFCURVE",
"323 354 CURVE SMOOTH",
"226 258 LINE",
"224 236 LINE"
);
}
);
width = 537;
}
);
rightKerningGroup = x;
unicode = 0138;
},
{
glyphname = l;
lastChange = "2014-09-12 03:52:47 -0300";
layers = (
{
anchors = (
{
name = bottom;
position = "{140, 0}";
},
{
name = top;
position = "{146, 720}";
},
{
name = topright;
position = "{267, 472}";
}
);
layerId = "F8053E42-0B7C-4D2D-91AF-B2EFB3EA087D";
name = Bold;
paths = (
{
closed = 1;
nodes = (
"15 -9 LINE",
"15 -9 OFFCURVE",
"79 0 OFFCURVE",
"129 0 CURVE SMOOTH",
"170 0 OFFCURVE",
"244 -3 OFFCURVE",
"244 -3 CURVE",
"255 57 LINE",
"252 63 LINE",
"252 63 OFFCURVE",
"228 61 OFFCURVE",
"219 61 CURVE SMOOTH",
"198 61 OFFCURVE",
"190 73 OFFCURVE",
"190 106 CURVE SMOOTH",
"190 439 OFFCURVE",
"203 701 OFFCURVE",
"221 723 CURVE",
"213.99 742 LINE",
"213.99 742 OFFCURVE",
"100 722 OFFCURVE",
"8 710 CURVE",
"3 664 LINE SMOOTH",
"3 660 OFFCURVE",
"3 655 OFFCURVE",
"4 651 CURVE SMOOTH",
"14 651 OFFCURVE",
"32 653 OFFCURVE",
"44 651 CURVE SMOOTH",
"63 647 OFFCURVE",
"72 631 OFFCURVE",
"72 597 CURVE SMOOTH",
"72 134 LINE SMOOTH",
"72 84 OFFCURVE",
"68 64 OFFCURVE",
"22 54 CURVE"
);
}
);
width = 265;
}
);
leftKerningGroup = h;
rightKerningGroup = l;
unicode = 006C;
},
{
glyphname = lcaron;
lastChange = "2014-09-12 03:52:47 -0300";
layers = (
{
components = (
{
disableAlignment = 1;
name = l;
transform = "{1, 0, 0, 1, 0, 0}";
}
);
layerId = "F8053E42-0B7C-4D2D-91AF-B2EFB3EA087D";
name = Bold;
paths = (
{
closed = 1;
nodes = (
"356 692 LINE",
"255 678 LINE",
"255 678 OFFCURVE",
"265 565 OFFCURVE",
"262 451 CURVE",
"277 447 LINE",
"325 466 LINE",
"349 573 OFFCURVE",
"364 682 OFFCURVE",
"364 682 CURVE"
);
}
);
width = 364;
}
);
leftKerningGroup = h;
rightKerningGroup = l;
unicode = 013E;
},
{
glyphname = lslash;
lastChange = "2014-09-12 03:52:47 -0300";
layers = (
{
components = (
{
disableAlignment = 1;
name = l;
transform = "{1, 0, 0, 1, 14, 0}";
}
);
layerId = "F8053E42-0B7C-4D2D-91AF-B2EFB3EA087D";
name = Bold;
paths = (
{
closed = 1;
nodes = (
"157 332 LINE",
"295 404 LINE",
"277 465 LINE",
"269 469 LINE",
"157 410 LINE",
"157 423 LINE",
"-2 340 LINE",
"16 278 LINE",
"26 276 LINE",
"157 344 LINE"
);
}
);
width = 296;
}
);
leftKerningGroup = h;
rightKerningGroup = l;
unicode = 0142;
},
{
glyphname = m;
lastChange = "2014-09-12 03:52:47 -0300";
layers = (
{
anchors = (
{
name = bottom;
position = "{438, 0}";
},
{
name = top;
position = "{435, 463}";
}
);
layerId = "F8053E42-0B7C-4D2D-91AF-B2EFB3EA087D";
name = Bold;
paths = (
{
closed = 1;
nodes = (
"312 -8 LINE",
"312 -8 OFFCURVE",
"385 0 OFFCURVE",
"424 0 CURVE SMOOTH",
"462 0 OFFCURVE",
"530 -3 OFFCURVE",
"530 -3 CURVE",
"540 59 LINE",
"538 63 LINE",
"538 63 OFFCURVE",
"521 62 OFFCURVE",
"510 62 CURVE SMOOTH",
"488 62 OFFCURVE",
"480 75 OFFCURVE",
"480 109 CURVE",
"493 333 LINE",
"510 346 OFFCURVE",
"545 369 OFFCURVE",
"577 369 CURVE SMOOTH",
"620 369 OFFCURVE",
"641 341 OFFCURVE",
"641 282 CURVE SMOOTH",
"638 111 LINE",
"637 76 OFFCURVE",
"626 63 OFFCURVE",
"595 59 CURVE",
"588 -5 LINE",
"588 -5 OFFCURVE",
"658 0 OFFCURVE",
"697 0 CURVE SMOOTH",
"735 0 OFFCURVE",
"807 -3 OFFCURVE",
"807 -3 CURVE",
"817 59 LINE",
"815 63 LINE",
"815 63 OFFCURVE",
"796 62 OFFCURVE",
"785 62 CURVE SMOOTH",
"761 62 OFFCURVE",
"753 74 OFFCURVE",
"753 109 CURVE SMOOTH",
"753 158 OFFCURVE",
"771 305 OFFCURVE",
"771 344 CURVE SMOOTH",
"771 426 OFFCURVE",
"716 474 OFFCURVE",
"620 474 CURVE SMOOTH",
"594 474 OFFCURVE",
"517 416 OFFCURVE",
"488 390 CURVE",
"470 445 OFFCURVE",
"422 474 OFFCURVE",
"346 474 CURVE SMOOTH",
"321 474 OFFCURVE",
"250 420 OFFCURVE",
"216 392 CURVE",
"213 395 LINE",
"215 429 OFFCURVE",
"224 464 OFFCURVE",
"224 464 CURVE",
"216 474 LINE",
"216 474 OFFCURVE",
"121 455 OFFCURVE",
"29 441 CURVE",
"24 388 LINE",
"28 383 LINE",
"41 383 LINE",
"79 383 OFFCURVE",
"90 369 OFFCURVE",
"90 323 CURVE SMOOTH",
"90 113 LINE",
"90 76 OFFCURVE",
"77 63 OFFCURVE",
"38 60 CURVE",
"29 -3 LINE",
"29 -3 OFFCURVE",
"97 0 OFFCURVE",
"149 0 CURVE SMOOTH",
"189 0 OFFCURVE",
"255 -3 OFFCURVE",
"255 -3 CURVE",
"265 60 LINE",
"263 65 LINE",
"263 65 OFFCURVE",
"245 63 OFFCURVE",
"237 63 CURVE SMOOTH",
"214 63 OFFCURVE",
"207 74 OFFCURVE",
"207 108 CURVE SMOOTH",
"207 136 OFFCURVE",
"213 259 OFFCURVE",
"217 331 CURVE",
"234 344 OFFCURVE",
"270 369 OFFCURVE",
"303 369 CURVE SMOOTH",
"346 369 OFFCURVE",
"367 341 OFFCURVE",
"367 282 CURVE SMOOTH",
"364 111 LINE",
"363 78 OFFCURVE",
"350 63 OFFCURVE",
"318 55 CURVE"
);
}
);
width = 839;
}
);
leftKerningGroup = n;
rightKerningGroup = n;
unicode = 006D;
},
{
glyphname = n;
lastChange = "2014-09-12 03:52:47 -0300";
layers = (
{
anchors = (
{
name = bottom;
position = "{291, 0}";
},
{
name = top;
position = "{308, 472}";
}
);
layerId = "F8053E42-0B7C-4D2D-91AF-B2EFB3EA087D";
name = Bold;
paths = (
{
closed = 1;
nodes = (
"312 -8 LINE",
"312 -8 OFFCURVE",
"385 0 OFFCURVE",
"424 0 CURVE SMOOTH",
"462 0 OFFCURVE",
"533 -3 OFFCURVE",
"533 -3 CURVE",
"542 59 LINE",
"540 63 LINE",
"540 63 OFFCURVE",
"521 62 OFFCURVE",
"510 62 CURVE SMOOTH",
"487 62 OFFCURVE",
"479 75 OFFCURVE",
"479 109 CURVE SMOOTH",
"479 158 OFFCURVE",
"497 305 OFFCURVE",
"497 344 CURVE SMOOTH",
"497 426 OFFCURVE",
"441 474 OFFCURVE",
"346 474 CURVE SMOOTH",
"319 474 OFFCURVE",
"249 419 OFFCURVE",
"217 391 CURVE",
"213 395 LINE",
"215 429 OFFCURVE",
"224 464 OFFCURVE",
"224 464 CURVE",
"216 474 LINE",
"216 474 OFFCURVE",
"121 455 OFFCURVE",
"29 441 CURVE",
"24 388 LINE",
"28 383 LINE",
"41 383 LINE SMOOTH",
"79 383 OFFCURVE",
"90 369 OFFCURVE",
"90 323 CURVE SMOOTH",
"90 113 LINE SMOOTH",
"90 76 OFFCURVE",
"76 62 OFFCURVE",
"38 58 CURVE",
"29 -6 LINE",
"29 -6 OFFCURVE",
"97 0 OFFCURVE",
"149 0 CURVE SMOOTH",
"189 0 OFFCURVE",
"255 -3 OFFCURVE",
"255 -3 CURVE",
"265 60 LINE",
"263 65 LINE",
"263 65 OFFCURVE",
"245 63 OFFCURVE",
"237 63 CURVE SMOOTH",
"214 63 OFFCURVE",
"207 74 OFFCURVE",
"207 108 CURVE SMOOTH",
"207 136 OFFCURVE",
"213 259 OFFCURVE",
"217 332 CURVE",
"234 344 OFFCURVE",
"270 369 OFFCURVE",
"303 369 CURVE SMOOTH",
"346 369 OFFCURVE",
"367 341 OFFCURVE",
"367 282 CURVE SMOOTH",
"364 111 LINE SMOOTH",
"363 78 OFFCURVE",
"350 63 OFFCURVE",
"318 55 CURVE"
);
}
);
width = 570;
}
);
leftKerningGroup = n;
rightKerningGroup = n;
unicode = 006E;
},
{
glyphname = eng;
lastChange = "2014-09-12 03:52:47 -0300";
layers = (
{
anchors = (
{
name = bottom;
position = "{291, 0}";
},
{
name = top;
position = "{308, 472}";
}
);
layerId = "F8053E42-0B7C-4D2D-91AF-B2EFB3EA087D";
name = Bold;
paths = (
{
closed = 1;
nodes = (
"321 474 OFFCURVE",
"255 427 OFFCURVE",
"217 391 CURVE",
"213 395 LINE",
"215 429 OFFCURVE",
"224 464 OFFCURVE",
"224 464 CURVE",
"216 474 LINE",
"216 474 OFFCURVE",
"121 455 OFFCURVE",
"29 441 CURVE",
"24 388 LINE",
"28 383 LINE",
"41 383 LINE SMOOTH",
"79 383 OFFCURVE",
"90 369 OFFCURVE",
"90 323 CURVE SMOOTH",
"90 113 LINE SMOOTH",
"90 76 OFFCURVE",
"76 62 OFFCURVE",
"38 58 CURVE",
"29 -6 LINE",
"29 -6 OFFCURVE",
"97 0 OFFCURVE",
"149 0 CURVE SMOOTH",
"189 0 OFFCURVE",
"255 -3 OFFCURVE",
"255 -3 CURVE",
"265 60 LINE",
"263 65 LINE",
"263 65 OFFCURVE",
"245 63 OFFCURVE",
"237 63 CURVE SMOOTH",
"214 63 OFFCURVE",
"207 74 OFFCURVE",
"207 108 CURVE SMOOTH",
"207 133 OFFCURVE",
"211 227 OFFCURVE",
"217 332 CURVE",
"236 346 OFFCURVE",
"272 369 OFFCURVE",
"303 369 CURVE SMOOTH",
"346 369 OFFCURVE",
"367 341 OFFCURVE",
"367 282 CURVE SMOOTH",
"366 111 LINE SMOOTH",
"364 -7 OFFCURVE",
"344 -48 OFFCURVE",
"257 -102 CURVE",
"255 -113 LINE",
"283 -154 LINE",
"420 -112 OFFCURVE",
"470 -46 OFFCURVE",
"481 93 CURVE SMOOTH",
"497 344 LINE",
"497 426 OFFCURVE",
"441 474 OFFCURVE",
"346 474 CURVE SMOOTH"
);
}
);
width = 548;
}
);
unicode = 014B;
},
{
glyphname = o;
lastChange = "2014-09-12 03:52:47 -0300";
layers = (
{
anchors = (
{
name = bottom;
position = "{259, 0}";
},
{
name = top;
position = "{263, 472}";
}
);
layerId = "F8053E42-0B7C-4D2D-91AF-B2EFB3EA087D";
name = Bold;
paths = (
{
closed = 1;
nodes = (
"380 -12 OFFCURVE",
"477 92 OFFCURVE",
"477 245 CURVE SMOOTH",
"477 386 OFFCURVE",
"397 474 OFFCURVE",
"267 474 CURVE SMOOTH",
"123 474 OFFCURVE",
"25 370 OFFCURVE",
"25 217 CURVE SMOOTH",
"25 79 OFFCURVE",
"108 -12 OFFCURVE",
"236 -12 CURVE SMOOTH"
);
},
{
closed = 1;
nodes = (
"194 65 OFFCURVE",
"158 127 OFFCURVE",
"158 254 CURVE SMOOTH",
"158 343 OFFCURVE",
"188 388 OFFCURVE",
"243 388 CURVE SMOOTH",
"306 388 OFFCURVE",
"342 326 OFFCURVE",
"342 199 CURVE SMOOTH",
"342 109 OFFCURVE",
"313 65 OFFCURVE",
"257 65 CURVE SMOOTH"
);
}
);
width = 503;
}
);
leftKerningGroup = o;
rightKerningGroup = o;
unicode = 006F;
},
{
glyphname = oslash;
lastChange = "2014-09-12 03:52:47 -0300";
layers = (
{
anchors = (
{
name = top;
position = "{255, 472}";
}
);
components = (
{
disableAlignment = 1;
name = o;
transform = "{1, 0, 0, 1, 0, 0}";
}
);
layerId = "F8053E42-0B7C-4D2D-91AF-B2EFB3EA087D";
name = Bold;
paths = (
{
closed = 1;
nodes = (
"473 530 LINE",
"471 542 LINE",
"409 572 LINE",
"316 416 LINE",
"379 374 LINE"
);
},
{
closed = 1;
nodes = (
"379 374 LINE",
"316 416 LINE",
"133 102 LINE",
"194 61 LINE"
);
},
{
closed = 1;
nodes = (
"24 -78 LINE",
"27 -88 LINE",
"87 -117 LINE",
"195 61 LINE",
"134 102 LINE"
);
}
);
width = 503;
}
);
leftKerningGroup = o;
rightKerningGroup = o;
unicode = 00F8;
},
{
glyphname = oslashacute;
lastChange = "2014-09-12 03:52:47 -0300";
layers = (
{
components = (
{
disableAlignment = 1;
name = o;
transform = "{1, 0, 0, 1, 0, 0}";
},
{
disableAlignment = 1;
name = acute;
transform = "{1, 0, 0, 1, 60, 0}";
}
);
layerId = "F8053E42-0B7C-4D2D-91AF-B2EFB3EA087D";
name = Bold;
paths = (
{
closed = 1;
nodes = (
"473 530 LINE",
"471 542 LINE",
"409 572 LINE",
"316 416 LINE",
"379 374 LINE"
);
},
{
closed = 1;
nodes = (
"379 374 LINE",
"316 416 LINE",
"133 102 LINE",
"194 61 LINE"
);
},
{
closed = 1;
nodes = (
"24 -78 LINE",
"27 -88 LINE",
"87 -117 LINE",
"195 61 LINE",
"134 102 LINE"
);
}
);
width = 503;
}
);
leftKerningGroup = o;
rightKerningGroup = o;
unicode = 01FF;
},
{
glyphname = oe;
lastChange = "2014-09-12 03:52:47 -0300";
layers = (
{
anchors = (
{
name = top;
position = "{405, 472}";
}
);
layerId = "F8053E42-0B7C-4D2D-91AF-B2EFB3EA087D";
name = Bold;
paths = (
{
closed = 1;
nodes = (
"513 86 OFFCURVE",
"468 136 OFFCURVE",
"463 224 CURVE SMOOTH",
"463 234 LINE",
"718 234 LINE",
"730 245 LINE",
"730 245 OFFCURVE",
"740 273 OFFCURVE",
"740 308 CURVE SMOOTH",
"740 407 OFFCURVE",
"690 474 OFFCURVE",
"570 474 CURVE SMOOTH",
"505 474 OFFCURVE",
"438 430 OFFCURVE",
"413 398 CURVE",
"396 427 OFFCURVE",
"335 474 OFFCURVE",
"264 474 CURVE SMOOTH",
"122 474 OFFCURVE",
"25 370 OFFCURVE",
"25 217 CURVE SMOOTH",
"25 79 OFFCURVE",
"107 -12 OFFCURVE",
"234 -12 CURVE SMOOTH",
"307 -12 OFFCURVE",
"374 36 OFFCURVE",
"396 64 CURVE",
"418 30 OFFCURVE",
"484 -12 OFFCURVE",
"560 -12 CURVE SMOOTH",
"633 -12 OFFCURVE",
"732 62 OFFCURVE",
"732 62 CURVE",
"715 113 LINE",
"708 116 LINE",
"708 116 OFFCURVE",
"650 86 OFFCURVE",
"587 86 CURVE SMOOTH"
);
},
{
closed = 1;
nodes = (
"193 65 OFFCURVE",
"158 127 OFFCURVE",
"158 254 CURVE SMOOTH",
"158 343 OFFCURVE",
"187 388 OFFCURVE",
"241 388 CURVE SMOOTH",
"302 388 OFFCURVE",
"337 326 OFFCURVE",
"337 199 CURVE SMOOTH",
"337 109 OFFCURVE",
"308 65 OFFCURVE",
"254 65 CURVE SMOOTH"
);
},
{
closed = 1;
nodes = (
"594 394 OFFCURVE",
"616 369 OFFCURVE",
"616 320 CURVE SMOOTH",
"616 303 OFFCURVE",
"612 298 OFFCURVE",
"597 297 CURVE SMOOTH",
"463 289 LINE",
"469 358 OFFCURVE",
"501 394 OFFCURVE",
"553 394 CURVE SMOOTH"
);
}
);
width = 771;
}
);
leftKerningGroup = o;
rightKerningGroup = e;
unicode = 0153;
},
{
glyphname = p;
lastChange = "2014-09-12 03:52:47 -0300";
layers = (
{
anchors = (
{
name = bottom;
position = "{380, 0}";
},
{
name = top;
position = "{291, 472}";
}
);
layerId = "F8053E42-0B7C-4D2D-91AF-B2EFB3EA087D";
name = Bold;
paths = (
{
closed = 1;
nodes = (
"29 -236 LINE",
"29 -236 OFFCURVE",
"95 -230 OFFCURVE",
"151 -230 CURVE SMOOTH",
"189 -230 OFFCURVE",
"257 -232 OFFCURVE",
"273 -232 CURVE",
"284 -170 LINE",
"282 -166 LINE",
"276 -166 OFFCURVE",
"256 -168 OFFCURVE",
"241 -168 CURVE SMOOTH",
"209 -168 OFFCURVE",
"205 -150 OFFCURVE",
"205 -99 CURVE SMOOTH",
"205 -68 OFFCURVE",
"205 -37 OFFCURVE",
"205 -7 CURVE SMOOTH",
"205 -7 OFFCURVE",
"232 -10 OFFCURVE",
"247 -10 CURVE SMOOTH",
"402 -10 OFFCURVE",
"512 93 OFFCURVE",
"512 250 CURVE SMOOTH",
"512 382 OFFCURVE",
"433 470 OFFCURVE",
"314 470 CURVE SMOOTH",
"302 470 OFFCURVE",
"266 444 OFFCURVE",
"214 396 CURVE",
"210 401 LINE",
"213 430 OFFCURVE",
"221 464 OFFCURVE",
"221 464 CURVE",
"212 474 LINE",
"212 474 OFFCURVE",
"119 455 OFFCURVE",
"27 441 CURVE",
"22 388 LINE",
"26 383 LINE",
"39 383 LINE SMOOTH",
"77 383 OFFCURVE",
"88 369 OFFCURVE",
"88 323 CURVE SMOOTH",
"88 41 LINE SMOOTH",
"87 -3 OFFCURVE",
"84 -73 OFFCURVE",
"83 -112 CURVE SMOOTH",
"83 -159 OFFCURVE",
"75 -170 OFFCURVE",
"37 -174 CURVE"
);
},
{
closed = 1;
nodes = (
"208 160 OFFCURVE",
"211 263 OFFCURVE",
"214 341 CURVE",
"238 359 OFFCURVE",
"265 370 OFFCURVE",
"284 370 CURVE SMOOTH",
"343 370 OFFCURVE",
"382 310 OFFCURVE",
"382 212 CURVE SMOOTH",
"382 123 OFFCURVE",
"345 73 OFFCURVE",
"282 73 CURVE SMOOTH",
"253 73 OFFCURVE",
"222 82 OFFCURVE",
"208 87 CURVE"
);
}
);
width = 538;
}
);
leftKerningGroup = p;
rightKerningGroup = o;
unicode = 0070;
},
{
glyphname = thorn;
lastChange = "2014-09-12 03:52:47 -0300";
layers = (
{
anchors = (
{
name = bottom;
position = "{217, 0}";
},
{
name = top;
position = "{217, 463}";
}
);
layerId = "F8053E42-0B7C-4D2D-91AF-B2EFB3EA087D";
name = Bold;
paths = (
{
closed = 1;
nodes = (
"68 75 LINE",
"64 -97 LINE SMOOTH",
"62 -153 OFFCURVE",
"59 -169 OFFCURVE",
"12 -174 CURVE",
"4 -236 LINE SMOOTH",
"4 -235 OFFCURVE",
"86 -230 OFFCURVE",
"148 -230 CURVE SMOOTH",
"180 -230 OFFCURVE",
"246 -232 OFFCURVE",
"257 -232 CURVE",
"268 -170 LINE",
"266 -166 LINE",
"266 -166 OFFCURVE",
"238 -168 OFFCURVE",
"221 -168 CURVE SMOOTH",
"175 -168 OFFCURVE",
"185 -100 OFFCURVE",
"185 -7 CURVE",
"198 -9 OFFCURVE",
"217 -10 OFFCURVE",
"236 -10 CURVE SMOOTH",
"384 -10 OFFCURVE",
"489 99 OFFCURVE",
"489 250 CURVE SMOOTH",
"489 378 OFFCURVE",
"424 460 OFFCURVE",
"320 469 CURVE SMOOTH",
"312 471 OFFCURVE",
"302 470 OFFCURVE",
"291 468 CURVE SMOOTH",
"277 464 OFFCURVE",
"241 443 OFFCURVE",
"190 406 CURVE",
"195 591 OFFCURVE",
"205 708 OFFCURVE",
"217 723 CURVE",
"210 742 LINE",
"210 742 OFFCURVE",
"96 722 OFFCURVE",
"4 710 CURVE",
"-1 664 LINE SMOOTH",
"0 660 OFFCURVE",
"-1 655 OFFCURVE",
"0 651 CURVE SMOOTH",
"4 651 OFFCURVE",
"16 653 OFFCURVE",
"25 653 CURVE SMOOTH",
"57 653 OFFCURVE",
"68 639 OFFCURVE",
"68 597 CURVE SMOOTH"
);
},
{
closed = 1;
nodes = (
"188 342 LINE",
"210 362 OFFCURVE",
"241 375 OFFCURVE",
"261 375 CURVE SMOOTH",
"320 375 OFFCURVE",
"359 312 OFFCURVE",
"359 212 CURVE SMOOTH",
"359 123 OFFCURVE",
"322 73 OFFCURVE",
"259 73 CURVE SMOOTH",
"230 73 OFFCURVE",
"198 82 OFFCURVE",
"186 89 CURVE"
);
}
);
width = 513;
}
);
leftKerningGroup = h;
rightKerningGroup = o;
unicode = 00FE;
},
{
glyphname = q;
lastChange = "2014-09-12 03:52:47 -0300";
layers = (
{
anchors = (
{
name = bottom;
position = "{149, 0}";
},
{
name = top;
position = "{272, 472}";
}
);
layerId = "F8053E42-0B7C-4D2D-91AF-B2EFB3EA087D";
name = Bold;
paths = (
{
closed = 1;
nodes = (
"245 -234 LINE",
"245 -234 OFFCURVE",
"321 -230 OFFCURVE",
"369 -230 CURVE SMOOTH",
"497 -230 LINE",
"504 -168 LINE",
"502 -165 LINE",
"502 -165 OFFCURVE",
"490 -166 OFFCURVE",
"476 -166 CURVE SMOOTH",
"450 -166 OFFCURVE",
"445 -156 OFFCURVE",
"445 -101 CURVE SMOOTH",
"445 219 OFFCURVE",
"453 448 OFFCURVE",
"466 476 CURVE",
"455 488 LINE",
"455 488 OFFCURVE",
"425 475 OFFCURVE",
"388 461 CURVE",
"347 468 OFFCURVE",
"308 471 OFFCURVE",
"277 471 CURVE SMOOTH",
"130 471 OFFCURVE",
"25 362 OFFCURVE",
"25 211 CURVE SMOOTH",
"25 75 OFFCURVE",
"99 -10 OFFCURVE",
"215 -10 CURVE SMOOTH",
"227 -10 OFFCURVE",
"266 15 OFFCURVE",
"328 59 CURVE",
"324 -111 LINE SMOOTH",
"322 -160 OFFCURVE",
"311 -169 OFFCURVE",
"252 -172 CURVE"
);
},
{
closed = 1;
nodes = (
"328 119 LINE",
"328 119 OFFCURVE",
"290 85 OFFCURVE",
"253 85 CURVE SMOOTH",
"195 85 OFFCURVE",
"156 148 OFFCURVE",
"156 248 CURVE SMOOTH",
"156 337 OFFCURVE",
"193 387 OFFCURVE",
"256 387 CURVE SMOOTH",
"299 387 OFFCURVE",
"328 370 OFFCURVE",
"328 370 CURVE"
);
}
);
width = 517;
}
);
leftKerningGroup = o;
unicode = 0071;
},
{
glyphname = r;
lastChange = "2014-09-12 03:52:47 -0300";
layers = (
{
anchors = (
{
name = bottom;
position = "{149, 0}";
},
{
name = top;
position = "{152, 472}";
}
);
layerId = "F8053E42-0B7C-4D2D-91AF-B2EFB3EA087D";
name = Bold;
paths = (
{
closed = 1;
nodes = (
"35 -4 LINE SMOOTH",
"35 -4 OFFCURVE",
"100 0 OFFCURVE",
"161 0 CURVE SMOOTH",
"208 0 OFFCURVE",
"292 -4 OFFCURVE",
"292 -4 CURVE SMOOTH",
"303 64 LINE",
"300 70 LINE SMOOTH",
"300 70 OFFCURVE",
"268 66 OFFCURVE",
"249 66 CURVE SMOOTH",
"220 66 OFFCURVE",
"210 78 OFFCURVE",
"210 112 CURVE SMOOTH",
"210 130 OFFCURVE",
"220 304 OFFCURVE",
"220 304 CURVE",
"240 331 OFFCURVE",
"265 347 OFFCURVE",
"286 347 CURVE SMOOTH",
"309 347 OFFCURVE",
"314 332 OFFCURVE",
"314 268 CURVE SMOOTH",
"380 272 LINE SMOOTH",
"384 354 OFFCURVE",
"400 455 OFFCURVE",
"400 455 CURVE SMOOTH",
"396 463 LINE SMOOTH",
"396 463 OFFCURVE",
"381 467 OFFCURVE",
"361 467 CURVE SMOOTH",
"316 467 OFFCURVE",
"263 430 OFFCURVE",
"221 368 CURVE SMOOTH",
"215 372 LINE SMOOTH",
"216 415 OFFCURVE",
"225 465 OFFCURVE",
"225 465 CURVE SMOOTH",
"216 474 LINE SMOOTH",
"216 474 OFFCURVE",
"120 454 OFFCURVE",
"32 441 CURVE SMOOTH",
"27 389 LINE",
"32 382 LINE",
"32 382 OFFCURVE",
"42 383 OFFCURVE",
"51 383 CURVE SMOOTH",
"84 383 OFFCURVE",
"93 370 OFFCURVE",
"93 324 CURVE SMOOTH",
"93 126 LINE SMOOTH",
"93 75 OFFCURVE",
"82 61 OFFCURVE",
"43 58 CURVE SMOOTH"
);
}
);
width = 413;
}
);
leftKerningGroup = n;
rightKerningGroup = r;
unicode = 0072;
},
{
glyphname = s;
lastChange = "2014-09-12 03:52:47 -0300";
layers = (
{
layerId = "F8053E42-0B7C-4D2D-91AF-B2EFB3EA087D";
name = Bold;
paths = (
{
closed = 1;
nodes = (
"285 -12 OFFCURVE",
"375 54 OFFCURVE",
"375 138 CURVE SMOOTH",
"375 198 OFFCURVE",
"344 231 OFFCURVE",
"228 286 CURVE SMOOTH",
"180 309 OFFCURVE",
"160 329 OFFCURVE",
"160 354 CURVE SMOOTH",
"160 379 OFFCURVE",
"186 397 OFFCURVE",
"221 397 CURVE SMOOTH",
"268 397 OFFCURVE",
"289 376 OFFCURVE",
"290 329 CURVE SMOOTH",
"290 324 OFFCURVE",
"289 312 OFFCURVE",
"289 312 CURVE",
"346 315 LINE",
"352 382 OFFCURVE",
"365 445 OFFCURVE",
"365 445 CURVE",
"359 456 LINE",
"359 456 OFFCURVE",
"313 474 OFFCURVE",
"247 474 CURVE SMOOTH",
"125 474 OFFCURVE",
"39 411 OFFCURVE",
"39 320 CURVE SMOOTH",
"39 263 OFFCURVE",
"74 223 OFFCURVE",
"154 186 CURVE SMOOTH",
"234 148 OFFCURVE",
"253 132 OFFCURVE",
"253 106 CURVE SMOOTH",
"253 81 OFFCURVE",
"224 62 OFFCURVE",
"187 62 CURVE SMOOTH",
"129 62 OFFCURVE",
"100 96 OFFCURVE",
"99 163 CURVE",
"42 157 LINE",
"40 119 OFFCURVE",
"33 53 OFFCURVE",
"29 26 CURVE",
"35 15 LINE",
"35 15 OFFCURVE",
"89 -12 OFFCURVE",
"169 -12 CURVE SMOOTH"
);
}
);
width = 409;
}
);
leftKerningGroup = s;
rightKerningGroup = s;
unicode = 0073;
},
{
glyphname = germandbls;
lastChange = "2014-09-12 03:52:47 -0300";
layers = (
{
layerId = "F8053E42-0B7C-4D2D-91AF-B2EFB3EA087D";
name = Bold;
paths = (
{
closed = 1;
nodes = (
"309 13 OFFCURVE",
"367 -12 OFFCURVE",
"435 -12 CURVE SMOOTH",
"547 -12 OFFCURVE",
"635 62 OFFCURVE",
"635 156 CURVE SMOOTH",
"635 307 OFFCURVE",
"421 315 OFFCURVE",
"421 398 CURVE SMOOTH",
"421 466 OFFCURVE",
"533 501 OFFCURVE",
"533 601 CURVE SMOOTH",
"533 683 OFFCURVE",
"454 742 OFFCURVE",
"345 742 CURVE SMOOTH",
"187 742 OFFCURVE",
"93 635 OFFCURVE",
"93 454 CURVE SMOOTH",
"31 444 LINE",
"24 392 LINE",
"28 386 LINE SMOOTH",
"78 384 OFFCURVE",
"90 376 OFFCURVE",
"93 346 CURVE SMOOTH",
"93 120 LINE SMOOTH",
"93 77 OFFCURVE",
"81 61 OFFCURVE",
"37 56 CURVE SMOOTH",
"30 -6 LINE SMOOTH",
"30 -5 OFFCURVE",
"116 0 OFFCURVE",
"163 0 CURVE SMOOTH",
"199 0 OFFCURVE",
"276 -3 OFFCURVE",
"276 -3 CURVE SMOOTH",
"285 64 LINE",
"282 68 LINE SMOOTH",
"282 68 OFFCURVE",
"267 67 OFFCURVE",
"245 67 CURVE SMOOTH",
"222 67 OFFCURVE",
"211 83 OFFCURVE",
"211 113 CURVE SMOOTH",
"215 496 LINE SMOOTH",
"216 609 OFFCURVE",
"242 651 OFFCURVE",
"312 651 CURVE SMOOTH",
"372 651 OFFCURVE",
"413 618 OFFCURVE",
"413 568 CURVE SMOOTH",
"413 497 OFFCURVE",
"299 459 OFFCURVE",
"299 368 CURVE SMOOTH",
"299 225 OFFCURVE",
"509 220 OFFCURVE",
"509 129 CURVE SMOOTH",
"509 95 OFFCURVE",
"483 68 OFFCURVE",
"450 68 CURVE SMOOTH",
"401 68 OFFCURVE",
"368 103 OFFCURVE",
"365 156 CURVE",
"345 157 LINE",
"326 133 OFFCURVE",
"303 76 OFFCURVE",
"302 47 CURVE SMOOTH"
);
}
);
width = 640;
}
);
leftKerningGroup = f;
unicode = 00DF;
},
{
glyphname = t;
lastChange = "2014-09-12 03:52:47 -0300";
layers = (
{
anchors = (
{
name = bottom;
position = "{195, 0}";
},
{
name = center;
position = "{167, 236}";
},
{
name = top;
position = "{134, 531}";
}
);
layerId = "F8053E42-0B7C-4D2D-91AF-B2EFB3EA087D";
name = Bold;
paths = (
{
closed = 1;
nodes = (
"68 111 LINE SMOOTH",
"68 26 OFFCURVE",
"110 -12 OFFCURVE",
"205 -12 CURVE SMOOTH",
"237 -12 OFFCURVE",
"321 68 OFFCURVE",
"321 68 CURVE",
"308 101 LINE",
"308 101 OFFCURVE",
"277 87 OFFCURVE",
"249 87 CURVE SMOOTH",
"204 87 OFFCURVE",
"186 111 OFFCURVE",
"186 167 CURVE SMOOTH",
"186 254 OFFCURVE",
"188 325 OFFCURVE",
"192 383 CURVE",
"309 380 LINE",
"319 448 LINE",
"315 453 LINE",
"198 450 LINE",
"203 505 OFFCURVE",
"209 537 OFFCURVE",
"209 537 CURVE",
"181 552 LINE",
"181 552 OFFCURVE",
"98 485 OFFCURVE",
"10 444 CURVE",
"4 394 LINE",
"14 387 LINE",
"57 386 OFFCURVE",
"68 375 OFFCURVE",
"68 333 CURVE SMOOTH"
);
}
);
width = 332;
}
);
unicode = 0074;
},
{
glyphname = tbar;
lastChange = "2014-09-12 03:52:47 -0300";
layers = (
{
components = (
{
disableAlignment = 1;
name = t;
transform = "{1, 0, 0, 1, 7, 0}";
}
);
layerId = "F8053E42-0B7C-4D2D-91AF-B2EFB3EA087D";
name = Bold;
paths = (
{
closed = 1;
nodes = (
"112 282 OFFCURVE",
"13 283 OFFCURVE",
"13 283 CURVE",
"6 235 LINE",
"16 225 LINE",
"16 225 OFFCURVE",
"94 226 OFFCURVE",
"156 226 CURVE SMOOTH",
"309 227 LINE",
"313 272 LINE",
"299 286 LINE",
"299 286 OFFCURVE",
"230 282 OFFCURVE",
"180 282 CURVE SMOOTH"
);
}
);
width = 347;
}
);
unicode = 0167;
},
{
glyphname = tcaron;
lastChange = "2014-09-12 03:52:47 -0300";
layers = (
{
layerId = "F8053E42-0B7C-4D2D-91AF-B2EFB3EA087D";
name = Bold;
paths = (
{
closed = 1;
nodes = (
"438 535 LINE",
"337 521 LINE",
"337 521 OFFCURVE",
"347 408 OFFCURVE",
"344 293 CURVE",
"359 290 LINE",
"407 309 LINE",
"431 416 OFFCURVE",
"446 525 OFFCURVE",
"446 525 CURVE"
);
},
{
closed = 1;
nodes = (
"68 111 LINE SMOOTH",
"68 26 OFFCURVE",
"110 -12 OFFCURVE",
"205 -12 CURVE SMOOTH",
"237 -12 OFFCURVE",
"321 68 OFFCURVE",
"321 68 CURVE",
"308 101 LINE",
"308 101 OFFCURVE",
"277 87 OFFCURVE",
"249 87 CURVE SMOOTH",
"204 87 OFFCURVE",
"186 111 OFFCURVE",
"186 167 CURVE SMOOTH",
"186 254 OFFCURVE",
"188 325 OFFCURVE",
"192 383 CURVE",
"298 380 LINE",
"308 448 LINE",
"304 453 LINE",
"198 450 LINE",
"203 505 OFFCURVE",
"209 537 OFFCURVE",
"209 537 CURVE",
"181 552 LINE",
"181 552 OFFCURVE",
"98 485 OFFCURVE",
"10 444 CURVE",
"4 394 LINE",
"14 387 LINE",
"57 386 OFFCURVE",
"68 375 OFFCURVE",
"68 333 CURVE SMOOTH"
);
}
);
width = 438;
}
);
unicode = 0165;
},
{
glyphname = u;
lastChange = "2014-09-12 03:52:47 -0300";
layers = (
{
anchors = (
{
name = bottom;
position = "{273, 0}";
},
{
name = ogonek;
position = "{480, 41}";
},
{
name = top;
position = "{271, 472}";
}
);
layerId = "F8053E42-0B7C-4D2D-91AF-B2EFB3EA087D";
name = Bold;
paths = (
{
closed = 1;
nodes = (
"67 115 LINE",
"67 33 OFFCURVE",
"122 -11 OFFCURVE",
"224 -11 CURVE SMOOTH",
"239 -11 OFFCURVE",
"284 21 OFFCURVE",
"335 69 CURVE",
"343 65 LINE",
"350 14 OFFCURVE",
"384 -12 OFFCURVE",
"445 -12 CURVE SMOOTH",
"494 0 OFFCURVE",
"550 88 OFFCURVE",
"550 88 CURVE",
"534 109 LINE",
"534 109 OFFCURVE",
"511 92 OFFCURVE",
"487 92 CURVE SMOOTH",
"465 92 OFFCURVE",
"452 108 OFFCURVE",
"452 133 CURVE SMOOTH",
"452 283 OFFCURVE",
"464 424 OFFCURVE",
"479 455 CURVE",
"469 472 LINE",
"469 472 OFFCURVE",
"369 453 OFFCURVE",
"282 441 CURVE",
"274 383 LINE",
"275 383 OFFCURVE",
"286 384 OFFCURVE",
"291 384 CURVE SMOOTH",
"325 383 OFFCURVE",
"334 374 OFFCURVE",
"334 335 CURVE SMOOTH",
"334 131 LINE",
"308 114 OFFCURVE",
"278 94 OFFCURVE",
"249 94 CURVE SMOOTH",
"207 94 OFFCURVE",
"187 120 OFFCURVE",
"187 175 CURVE SMOOTH",
"187 293 OFFCURVE",
"199 424 OFFCURVE",
"214 457 CURVE",
"204 474 LINE",
"204 474 OFFCURVE",
"106 453 OFFCURVE",
"21 441 CURVE",
"15 382 LINE",
"15 382 OFFCURVE",
"29 385 OFFCURVE",
"40 385 CURVE SMOOTH",
"64 385 OFFCURVE",
"74 370 OFFCURVE",
"74 336 CURVE SMOOTH"
);
}
);
width = 547;
}
);
rightKerningGroup = u;
unicode = 0075;
},
{
glyphname = uogonek;
lastChange = "2014-09-12 03:52:47 -0300";
layers = (
{
layerId = "F8053E42-0B7C-4D2D-91AF-B2EFB3EA087D";
name = Bold;
paths = (
{
closed = 1;
nodes = (
"67 115 LINE",
"67 33 OFFCURVE",
"122 -11 OFFCURVE",
"224 -11 CURVE SMOOTH",
"239 -11 OFFCURVE",
"281 19 OFFCURVE",
"335 69 CURVE",
"343 65 LINE",
"350 14 OFFCURVE",
"384 -12 OFFCURVE",
"445 -12 CURVE",
"553 85 LINE",
"534 109 LINE",
"534 109 OFFCURVE",
"511 92 OFFCURVE",
"487 92 CURVE SMOOTH",
"465 92 OFFCURVE",
"452 108 OFFCURVE",
"452 133 CURVE SMOOTH",
"452 283 OFFCURVE",
"464 424 OFFCURVE",
"479 455 CURVE",
"469 472 LINE",
"469 472 OFFCURVE",
"369 453 OFFCURVE",
"282 441 CURVE",
"274 383 LINE",
"275 383 OFFCURVE",
"286 384 OFFCURVE",
"291 384 CURVE SMOOTH",
"326 382 OFFCURVE",
"334 373 OFFCURVE",
"334 335 CURVE SMOOTH",
"334 131 LINE",
"294 104 OFFCURVE",
"270 94 OFFCURVE",
"249 94 CURVE SMOOTH",
"207 94 OFFCURVE",
"187 120 OFFCURVE",
"187 175 CURVE SMOOTH",
"187 291 OFFCURVE",
"199 423 OFFCURVE",
"214 457 CURVE",
"204 474 LINE",
"204 474 OFFCURVE",
"106 453 OFFCURVE",
"21 441 CURVE",
"15 382 LINE",
"15 382 OFFCURVE",
"29 385 OFFCURVE",
"40 385 CURVE SMOOTH",
"64 385 OFFCURVE",
"74 371 OFFCURVE",
"74 336 CURVE SMOOTH"
);
},
{
closed = 1;
nodes = (
"541 -146 LINE",
"541 -146 OFFCURVE",
"504 -170 OFFCURVE",
"469 -170 CURVE SMOOTH",
"439 -170 OFFCURVE",
"419 -148 OFFCURVE",
"419 -118 CURVE SMOOTH",
"419 -76 OFFCURVE",
"446 -38 OFFCURVE",
"552 85 CURVE",
"493 82 LINE",
"365 -59 OFFCURVE",
"338 -98 OFFCURVE",
"338 -149 CURVE SMOOTH",
"338 -206 OFFCURVE",
"384 -241 OFFCURVE",
"458 -241 CURVE",
"507 -224 OFFCURVE",
"560 -174 OFFCURVE",
"560 -174 CURVE"
);
}
);
width = 547;
}
);
rightKerningGroup = u;
unicode = 0173;
},
{
glyphname = v;
lastChange = "2014-09-12 03:52:47 -0300";
layers = (
{
anchors = (
{
name = bottom;
position = "{200, 0}";
},
{
name = top;
position = "{270, 474}";
}
);
layerId = "F8053E42-0B7C-4D2D-91AF-B2EFB3EA087D";
name = Bold;
paths = (
{
closed = 1;
nodes = (
"332 360 OFFCURVE",
"296 256 OFFCURVE",
"243 112 CURVE",
"233 112 LINE",
"233 112 OFFCURVE",
"172 352 OFFCURVE",
"172 379 CURVE SMOOTH",
"172 397 OFFCURVE",
"179 401 OFFCURVE",
"221 405 CURVE",
"229 464 LINE",
"227 469 LINE",
"227 469 OFFCURVE",
"156 462 OFFCURVE",
"90 462 CURVE SMOOTH",
"57 462 OFFCURVE",
"-5 463 OFFCURVE",
"-5 463 CURVE",
"-12 406 LINE",
"-10 401 LINE",
"22 400 OFFCURVE",
"42 384 OFFCURVE",
"52 351 CURVE SMOOTH",
"76 276 OFFCURVE",
"156 -15 OFFCURVE",
"156 -15 CURVE",
"288 0 LINE",
"413 343 LINE",
"431 388 OFFCURVE",
"438 397 OFFCURVE",
"468 401 CURVE",
"476 463 LINE",
"476 463 OFFCURVE",
"425 462 OFFCURVE",
"385 462 CURVE SMOOTH",
"339 462 OFFCURVE",
"276 463 OFFCURVE",
"276 463 CURVE",
"268 407 LINE",
"272 400 LINE",
"300 400 LINE",
"325 400 OFFCURVE",
"332 396 OFFCURVE",
"332 380 CURVE SMOOTH"
);
}
);
width = 468;
}
);
leftKerningGroup = v;
rightKerningGroup = v;
unicode = 0076;
},
{
glyphname = w;
lastChange = "2014-09-12 03:52:47 -0300";
layers = (
{
anchors = (
{
name = bottom;
position = "{345, 0}";
},
{
name = top;
position = "{394, 472}";
}
);
layerId = "F8053E42-0B7C-4D2D-91AF-B2EFB3EA087D";
name = Bold;
paths = (
{
closed = 1;
nodes = (
"602 360 OFFCURVE",
"567 256 OFFCURVE",
"515 112 CURVE",
"505 112 LINE",
"505 112 OFFCURVE",
"446 352 OFFCURVE",
"446 379 CURVE SMOOTH",
"446 397 OFFCURVE",
"452 400 OFFCURVE",
"493 404 CURVE",
"502 463 LINE",
"500 468 LINE",
"500 468 OFFCURVE",
"432 462 OFFCURVE",
"367 462 CURVE SMOOTH",
"335 462 OFFCURVE",
"275 463 OFFCURVE",
"275 463 CURVE",
"266 406 LINE",
"269 400 LINE",
"306 400 OFFCURVE",
"317 388 OFFCURVE",
"324 359 CURVE",
"315 327 OFFCURVE",
"269 179 OFFCURVE",
"243 112 CURVE",
"233 112 LINE",
"233 112 OFFCURVE",
"173 351 OFFCURVE",
"173 379 CURVE SMOOTH",
"173 397 OFFCURVE",
"180 401 OFFCURVE",
"221 405 CURVE",
"229 464 LINE",
"227 469 LINE",
"227 469 OFFCURVE",
"158 462 OFFCURVE",
"92 462 CURVE SMOOTH",
"60 462 OFFCURVE",
"-2 463 OFFCURVE",
"-2 463 CURVE",
"-9 406 LINE",
"-7 401 LINE",
"25 400 OFFCURVE",
"44 384 OFFCURVE",
"55 351 CURVE SMOOTH",
"78 276 OFFCURVE",
"156 -15 OFFCURVE",
"156 -15 CURVE",
"286 0 LINE",
"361 233 LINE",
"372 233 LINE",
"396 139 OFFCURVE",
"429 17 OFFCURVE",
"434 -15 CURVE",
"560 0 LINE",
"683 343 LINE SMOOTH",
"700 388 OFFCURVE",
"708 397 OFFCURVE",
"737 401 CURVE",
"745 463 LINE",
"745 463 OFFCURVE",
"693 462 OFFCURVE",
"654 462 CURVE SMOOTH",
"609 462 OFFCURVE",
"548 464 OFFCURVE",
"548 464 CURVE",
"540 407 LINE",
"544 401 LINE",
"571 401 LINE SMOOTH",
"595 401 OFFCURVE",
"602 396 OFFCURVE",
"602 380 CURVE SMOOTH"
);
}
);
width = 740;
}
);
leftKerningGroup = v;
rightKerningGroup = v;
unicode = 0077;
},
{
glyphname = x;
lastChange = "2014-09-12 03:52:47 -0300";
layers = (
{
anchors = (
{
name = bottom;
position = "{182, 0}";
},
{
name = top;
position = "{199, 463}";
}
);
layerId = "F8053E42-0B7C-4D2D-91AF-B2EFB3EA087D";
name = Bold;
paths = (
{
closed = 1;
nodes = (
"353 0 OFFCURVE",
"249 -6 OFFCURVE",
"249 -6 CURVE",
"246 -1 LINE",
"253 49 LINE",
"281 50 OFFCURVE",
"292 55 OFFCURVE",
"292 67 CURVE SMOOTH",
"292 74 OFFCURVE",
"289 82 OFFCURVE",
"280 96 CURVE SMOOTH",
"220 177 LINE",
"193 142 OFFCURVE",
"148 88 OFFCURVE",
"148 71 CURVE SMOOTH",
"148 57 OFFCURVE",
"157 52 OFFCURVE",
"185 51 CURVE",
"188 45 LINE",
"181 -4 LINE",
"181 -4 OFFCURVE",
"106 0 OFFCURVE",
"82 0 CURVE SMOOTH",
"49 0 OFFCURVE",
"4 -3 OFFCURVE",
"4 -3 CURVE",
"1 4 LINE",
"8 52 LINE",
"35 65 OFFCURVE",
"52 86 OFFCURVE",
"97 140 CURVE SMOOTH",
"177 235 LINE",
"110 328 LINE SMOOTH",
"72 381 OFFCURVE",
"50 395 OFFCURVE",
"7 403 CURVE",
"5 407 LINE",
"11 463 LINE",
"11 463 OFFCURVE",
"70 462 OFFCURVE",
"128 462 CURVE SMOOTH",
"190 462 OFFCURVE",
"252 466 OFFCURVE",
"252 466 CURVE",
"255 460 LINE",
"249 408 LINE",
"222 408 OFFCURVE",
"211 403 OFFCURVE",
"211 389 CURVE SMOOTH",
"211 374 OFFCURVE",
"220 361 OFFCURVE",
"233 344 CURVE SMOOTH",
"274 286 LINE",
"321 348 LINE SMOOTH",
"334 367 OFFCURVE",
"345 379 OFFCURVE",
"345 392 CURVE SMOOTH",
"345 402 OFFCURVE",
"337 406 OFFCURVE",
"309 406 CURVE",
"307 410 LINE",
"313 462 LINE",
"402 462 LINE SMOOTH",
"438 462 OFFCURVE",
"487 465 OFFCURVE",
"487 465 CURVE",
"490 459 LINE",
"484 405 LINE",
"455 390 OFFCURVE",
"425 364 OFFCURVE",
"398 331 CURVE SMOOTH",
"319 228 LINE",
"396 124 LINE SMOOTH",
"429 79 OFFCURVE",
"455 58 OFFCURVE",
"493 55 CURVE",
"496 51 LINE",
"488 -2 LINE",
"488 -2 OFFCURVE",
"421 0 OFFCURVE",
"391 0 CURVE SMOOTH"
);
}
);
width = 497;
}
);
rightKerningGroup = x;
unicode = 0078;
},
{
glyphname = y;
lastChange = "2014-09-12 03:52:47 -0300";
layers = (
{
anchors = (
{
name = bottom;
position = "{239, 0}";
},
{
name = top;
position = "{267, 472}";
}
);
layerId = "F8053E42-0B7C-4D2D-91AF-B2EFB3EA087D";
name = Bold;
paths = (
{
closed = 1;
nodes = (
"237 132 LINE",
"237 132 OFFCURVE",
"169 349 OFFCURVE",
"169 381 CURVE SMOOTH",
"169 397 OFFCURVE",
"179 403 OFFCURVE",
"217 405 CURVE",
"226 464 LINE",
"224 469 LINE",
"224 468 OFFCURVE",
"139 462 OFFCURVE",
"71 462 CURVE SMOOTH",
"48 462 OFFCURVE",
"5 462 OFFCURVE",
"-7 462 CURVE",
"-14 405 LINE",
"-12 400 LINE",
"16 399 OFFCURVE",
"32 388 OFFCURVE",
"48 357 CURVE",
"81 281 OFFCURVE",
"152 90 OFFCURVE",
"186 -9 CURVE",
"142 -90 OFFCURVE",
"71 -140 OFFCURVE",
"-15 -147 CURVE",
"-23 -160 LINE",
"-23 -181 OFFCURVE",
"34 -241 OFFCURVE",
"53 -241 CURVE SMOOTH",
"142 -243 OFFCURVE",
"210 -160 OFFCURVE",
"294 43 CURVE",
"422 352 LINE",
"434 385 OFFCURVE",
"444 394 OFFCURVE",
"473 401 CURVE",
"481 462 LINE",
"465 462 OFFCURVE",
"423 462 OFFCURVE",
"388 462 CURVE SMOOTH",
"343 462 OFFCURVE",
"282 465 OFFCURVE",
"282 465 CURVE",
"274 407 LINE",
"277 402 LINE",
"309 402 LINE SMOOTH",
"331 402 OFFCURVE",
"338 397 OFFCURVE",
"338 381 CURVE SMOOTH",
"338 363 OFFCURVE",
"289 235 OFFCURVE",
"248 132 CURVE"
);
}
);
width = 465;
}
);
leftKerningGroup = v;
rightKerningGroup = v;
unicode = 0079;
},
{
glyphname = z;
lastChange = "2014-09-12 03:52:47 -0300";
layers = (
{
anchors = (
{
name = bottom;
position = "{210, 0}";
},
{
name = top;
position = "{245, 472}";
}
);
layerId = "F8053E42-0B7C-4D2D-91AF-B2EFB3EA087D";
name = Bold;
paths = (
{
closed = 1;
nodes = (
"38 -4 LINE",
"94 2 LINE",
"393 -5 LINE",
"408 11 LINE",
"408 85 OFFCURVE",
"425 195 OFFCURVE",
"425 195 CURVE",
"373 190 LINE",
"361 111 OFFCURVE",
"334 79 OFFCURVE",
"277 72 CURVE SMOOTH",
"172 63 LINE",
"208 119 OFFCURVE",
"311 271 OFFCURVE",
"431 430 CURVE",
"418 460 LINE",
"186 463 LINE",
"56 471 LINE",
"49 464 LINE",
"47 398 OFFCURVE",
"38 298 OFFCURVE",
"38 298 CURVE",
"89 303 LINE",
"95 368 OFFCURVE",
"112 385 OFFCURVE",
"182 391 CURVE",
"272 397 LINE",
"20 29 LINE"
);
}
);
width = 458;
}
);
leftKerningGroup = z;
rightKerningGroup = z;
unicode = 007A;
},
{
glyphname = f.f;
lastChange = "2014-09-12 03:52:47 -0300";
layers = (
{
anchors = (
{
name = bottom;
position = "{157, 0}";
},
{
name = top;
position = "{265, 749}";
}
);
layerId = "F8053E42-0B7C-4D2D-91AF-B2EFB3EA087D";
name = Bold;
paths = (
{
closed = 1;
nodes = (
"216 589 OFFCURVE",
"247 635 OFFCURVE",
"328 635 CURVE SMOOTH",
"409 635 OFFCURVE",
"467 575 OFFCURVE",
"467 575 CURVE",
"480 579 LINE",
"502 625 OFFCURVE",
"524 664 OFFCURVE",
"524 664 CURVE",
"520 680 LINE",
"520 680 OFFCURVE",
"452 726 OFFCURVE",
"357 726 CURVE SMOOTH",
"203 726 OFFCURVE",
"93 627 OFFCURVE",
"93 454 CURVE",
"31 444 LINE",
"24 392 LINE",
"28 386 LINE",
"75 384 OFFCURVE",
"91 378 OFFCURVE",
"93 345 CURVE",
"93 130 LINE SMOOTH",
"93 82 OFFCURVE",
"87 61 OFFCURVE",
"37 57 CURVE",
"30 -5 LINE",
"30 -5 OFFCURVE",
"89 -1 OFFCURVE",
"145 0 CURVE SMOOTH",
"158 0 OFFCURVE",
"172 -1 OFFCURVE",
"185 -1 CURVE SMOOTH",
"230 -1 OFFCURVE",
"308 -5 OFFCURVE",
"308 -4 CURVE",
"318 64 LINE",
"314 69 LINE",
"314 69 OFFCURVE",
"283 67 OFFCURVE",
"250 67 CURVE SMOOTH",
"223 67 OFFCURVE",
"211 84 OFFCURVE",
"211 113 CURVE SMOOTH",
"211 203 OFFCURVE",
"214 293 OFFCURVE",
"214 383 CURVE",
"399 383 LINE",
"447 382 LINE",
"457 443 LINE",
"452 451 LINE",
"378 450 LINE",
"215 450 LINE",
"215 465 OFFCURVE",
"215 481 OFFCURVE",
"215 496 CURVE SMOOTH"
);
}
);
width = 326;
}
);
leftKerningGroup = f;
},
{
glyphname = f.l;
lastChange = "2014-09-12 03:52:47 -0300";
layers = (
{
anchors = (
{
name = bottom;
position = "{157, 0}";
},
{
name = top;
position = "{265, 749}";
}
);
layerId = "F8053E42-0B7C-4D2D-91AF-B2EFB3EA087D";
name = Bold;
paths = (
{
closed = 1;
nodes = (
"216 601 OFFCURVE",
"241 651 OFFCURVE",
"318 651 CURVE SMOOTH",
"392 651 OFFCURVE",
"449 596 OFFCURVE",
"449 596 CURVE",
"461 600 LINE",
"478 651 OFFCURVE",
"493 693 OFFCURVE",
"493 693 CURVE",
"489 708 LINE",
"489 708 OFFCURVE",
"433 742 OFFCURVE",
"351 742 CURVE SMOOTH",
"198 742 OFFCURVE",
"93 638 OFFCURVE",
"93 454 CURVE",
"31 444 LINE",
"24 392 LINE",
"28 386 LINE",
"75 384 OFFCURVE",
"91 378 OFFCURVE",
"93 345 CURVE",
"93 130 LINE SMOOTH",
"93 81 OFFCURVE",
"84 62 OFFCURVE",
"37 56 CURVE",
"30 -6 LINE",
"30 -5 OFFCURVE",
"122 0 OFFCURVE",
"181.99 0 CURVE SMOOTH",
"226 0 OFFCURVE",
"308 -4 OFFCURVE",
"308 -3 CURVE",
"317 64 LINE",
"314 68 LINE",
"314 68 OFFCURVE",
"283 67 OFFCURVE",
"252 67 CURVE SMOOTH",
"223 67 OFFCURVE",
"211 84 OFFCURVE",
"211 113 CURVE SMOOTH",
"211 203 OFFCURVE",
"214 293 OFFCURVE",
"214 383 CURVE",
"284 382 OFFCURVE",
"335 380 OFFCURVE",
"335 380 CURVE",
"346 448 LINE",
"342 453 LINE",
"342 453 OFFCURVE",
"286 450 OFFCURVE",
"215 450 CURVE",
"215 465 OFFCURVE",
"215 481 OFFCURVE",
"215 496 CURVE SMOOTH"
);
}
);
width = 342;
}
);
leftKerningGroup = f;
},
{
glyphname = a.sups;
lastChange = "2014-09-12 03:52:47 -0300";
layers = (
{
anchors = (
{
name = bottom;
position = "{229, 0}";
},
{
name = ogonek;
position = "{420, 41}";
},
{
name = top;
position = "{235, 474}";
}
);
layerId = "F8053E42-0B7C-4D2D-91AF-B2EFB3EA087D";
name = Bold;
paths = (
{
closed = 1;
nodes = (
"192 517 LINE",
"63 491 LINE SMOOTH",
"39 485 OFFCURVE",
"23 463 OFFCURVE",
"23 436 CURVE SMOOTH",
"23 379 OFFCURVE",
"64 334 OFFCURVE",
"117 334 CURVE SMOOTH",
"135 334 OFFCURVE",
"166 359 OFFCURVE",
"191 383 CURVE",
"197 381 LINE",
"200 348 OFFCURVE",
"225 331 OFFCURVE",
"267 331 CURVE",
"299 340 OFFCURVE",
"334 402 OFFCURVE",
"334 402 CURVE",
"324 418 LINE",
"324 418 OFFCURVE",
"310 409 OFFCURVE",
"296 409 CURVE SMOOTH",
"282 409 OFFCURVE",
"274 419 OFFCURVE",
"274 434 CURVE SMOOTH",
"274 458 OFFCURVE",
"287 537 OFFCURVE",
"287 559 CURVE SMOOTH",
"287 608 OFFCURVE",
"255 650 OFFCURVE",
"168 650 CURVE SMOOTH",
"135 650 OFFCURVE",
"39 598 OFFCURVE",
"39 598 CURVE",
"53 554 LINE",
"60 551 LINE",
"60 551 OFFCURVE",
"99 580 OFFCURVE",
"137 580 CURVE SMOOTH",
"172 580 OFFCURVE",
"193 560 OFFCURVE",
"193 526 CURVE"
);
},
{
closed = 1;
nodes = (
"190 418 LINE",
"178 411 OFFCURVE",
"160 406 OFFCURVE",
"149 406 CURVE SMOOTH",
"129 406 OFFCURVE",
"116 422 OFFCURVE",
"116 443 CURVE SMOOTH",
"116 454 OFFCURVE",
"120 459 OFFCURVE",
"130 462 CURVE SMOOTH",
"191 477 LINE"
);
}
);
width = 341;
}
);
},
{
glyphname = b.sups;
lastChange = "2014-09-12 03:52:47 -0300";
layers = (
{
anchors = (
{
name = bottom;
position = "{252, 0}";
},
{
name = top;
position = "{215, 463}";
}
);
layerId = "F8053E42-0B7C-4D2D-91AF-B2EFB3EA087D";
name = Bold;
paths = (
{
closed = 1;
nodes = (
"49 352 LINE",
"56 345 LINE SMOOTH",
"56 345 OFFCURVE",
"114 334 OFFCURVE",
"170 334 CURVE SMOOTH",
"271 334 OFFCURVE",
"339 402 OFFCURVE",
"339 502 CURVE SMOOTH",
"339 593 OFFCURVE",
"291 647 OFFCURVE",
"214 647 CURVE SMOOTH",
"206 647 OFFCURVE",
"179 630 OFFCURVE",
"145 607 CURVE SMOOTH",
"148 725 OFFCURVE",
"155 797 OFFCURVE",
"164 807 CURVE SMOOTH",
"159 821 LINE SMOOTH",
"159 821 OFFCURVE",
"73 808 OFFCURVE",
"5 799 CURVE SMOOTH",
"1 759 LINE",
"3 755 LINE",
"7 755 OFFCURVE",
"14 756 OFFCURVE",
"20 756 CURVE SMOOTH",
"43 756 OFFCURVE",
"49 747 OFFCURVE",
"49 718 CURVE"
);
},
{
closed = 1;
nodes = (
"144 563 LINE SMOOTH",
"152 570 OFFCURVE",
"167 577 OFFCURVE",
"182 577 CURVE SMOOTH",
"216 577 OFFCURVE",
"236 541 OFFCURVE",
"236 476 CURVE SMOOTH",
"236 424 OFFCURVE",
"217 396 OFFCURVE",
"183 396 CURVE SMOOTH",
"165 396 OFFCURVE",
"147 402 OFFCURVE",
"142 404 CURVE SMOOTH"
);
}
);
width = 362;
}
);
},
{
glyphname = c.sups;
lastChange = "2014-09-12 03:52:47 -0300";
layers = (
{
anchors = (
{
name = bottom;
position = "{248, 0}";
},
{
name = top;
position = "{260, 472}";
}
);
layerId = "F8053E42-0B7C-4D2D-91AF-B2EFB3EA087D";
name = Bold;
paths = (
{
closed = 1;
nodes = (
"259 425 LINE",
"259 425 OFFCURVE",
"228 407 OFFCURVE",
"192 407 CURVE SMOOTH",
"149 407 OFFCURVE",
"127 442 OFFCURVE",
"127 511 CURVE SMOOTH",
"127 560 OFFCURVE",
"144 586 OFFCURVE",
"178 586 CURVE SMOOTH",
"202 586 OFFCURVE",
"214 572 OFFCURVE",
"214 543 CURVE SMOOTH",
"214 521 LINE",
"265 524 LINE",
"268 580 OFFCURVE",
"279 629 OFFCURVE",
"279 629 CURVE",
"276 636 LINE",
"276 636 OFFCURVE",
"242 650 OFFCURVE",
"189 650 CURVE SMOOTH",
"90 650 OFFCURVE",
"23 583 OFFCURVE",
"23 485 CURVE SMOOTH",
"23 390 OFFCURVE",
"79 331 OFFCURVE",
"173 331 CURVE SMOOTH",
"217 331 OFFCURVE",
"278 382 OFFCURVE",
"278 382 CURVE",
"265 423 LINE"
);
}
);
width = 308;
}
);
},
{
glyphname = d.sups;
lastChange = "2014-09-12 03:52:47 -0300";
layers = (
{
anchors = (
{
name = bottom;
position = "{264, 0}";
},
{
name = center;
position = "{376, 236}";
},
{
name = top;
position = "{390, 730}";
}
);
layerId = "F8053E42-0B7C-4D2D-91AF-B2EFB3EA087D";
name = Bold;
paths = (
{
closed = 1;
nodes = (
"227 379 LINE",
"231 348 OFFCURVE",
"255 331 OFFCURVE",
"297 331 CURVE",
"336 345 OFFCURVE",
"368 402 OFFCURVE",
"368 402 CURVE",
"357 418 LINE",
"357 418 OFFCURVE",
"344 409 OFFCURVE",
"331 409 CURVE SMOOTH",
"320 409 OFFCURVE",
"312 419 OFFCURVE",
"312 434 CURVE SMOOTH",
"312 628 OFFCURVE",
"322 791 OFFCURVE",
"335 809 CURVE",
"328 821 LINE",
"328 821 OFFCURVE",
"250 806 OFFCURVE",
"179 799 CURVE",
"174 752 LINE",
"174 752 OFFCURVE",
"185 754 OFFCURVE",
"190 754 CURVE SMOOTH",
"213 754 OFFCURVE",
"219 745 OFFCURVE",
"219 716 CURVE SMOOTH",
"219 646 LINE",
"210 647 OFFCURVE",
"202 647 OFFCURVE",
"192 647 CURVE SMOOTH",
"91 647 OFFCURVE",
"23 580 OFFCURVE",
"23 480 CURVE SMOOTH",
"23 389 OFFCURVE",
"71 334 OFFCURVE",
"148 334 CURVE SMOOTH",
"156 334 OFFCURVE",
"182 350 OFFCURVE",
"223 380 CURVE"
);
},
{
closed = 1;
nodes = (
"219 419 LINE",
"219 419 OFFCURVE",
"201 404 OFFCURVE",
"180 404 CURVE SMOOTH",
"146 404 OFFCURVE",
"125 441 OFFCURVE",
"125 504 CURVE SMOOTH",
"125 557 OFFCURVE",
"144 585 OFFCURVE",
"178 585 CURVE SMOOTH",
"202 585 OFFCURVE",
"219 576 OFFCURVE",
"219 576 CURVE"
);
}
);
width = 375;
}
);
},
{
glyphname = e.sups;
lastChange = "2014-09-12 03:52:47 -0300";
layers = (
{
anchors = (
{
name = bottom;
position = "{261, 0}";
},
{
name = ogonek;
position = "{392, 41}";
},
{
name = top;
position = "{255, 472}";
}
);
layerId = "F8053E42-0B7C-4D2D-91AF-B2EFB3EA087D";
name = Bold;
paths = (
{
closed = 1;
nodes = (
"124 526 LINE",
"126 569 OFFCURVE",
"143 589 OFFCURVE",
"174 589 CURVE SMOOTH",
"197 589 OFFCURVE",
"210 574 OFFCURVE",
"210 543.99 CURVE SMOOTH",
"210 533 OFFCURVE",
"208 531 OFFCURVE",
"199 530 CURVE SMOOTH"
);
},
{
closed = 1;
nodes = (
"291 484 LINE",
"299 491 LINE",
"299 491 OFFCURVE",
"303 511 OFFCURVE",
"303 531 CURVE SMOOTH",
"303 610 OFFCURVE",
"264 650 OFFCURVE",
"185 650 CURVE SMOOTH",
"90 650 OFFCURVE",
"23 582 OFFCURVE",
"23 485 CURVE SMOOTH",
"23 388 OFFCURVE",
"81 331 OFFCURVE",
"179 331 CURVE SMOOTH",
"231 331 OFFCURVE",
"298 382 OFFCURVE",
"298 382 CURVE",
"286 421 LINE",
"280 424 LINE",
"280 424 OFFCURVE",
"243 404 OFFCURVE",
"201 404 CURVE SMOOTH",
"156 404 OFFCURVE",
"129 430 OFFCURVE",
"125 480 CURVE SMOOTH",
"125 484 LINE"
);
}
);
width = 331;
}
);
},
{
glyphname = f.sups;
lastChange = "2014-09-12 03:52:47 -0300";
layers = (
{
anchors = (
{
name = bottom;
position = "{157, 0}";
},
{
name = top;
position = "{265, 749}";
}
);
layerId = "F8053E42-0B7C-4D2D-91AF-B2EFB3EA087D";
name = Bold;
paths = (
{
closed = 1;
nodes = (
"23 585 LINE",
"57 583 OFFCURVE",
"65 579 OFFCURVE",
"66 559 CURVE",
"66 418 LINE SMOOTH",
"66 395 OFFCURVE",
"56 385 OFFCURVE",
"30 382 CURVE",
"25 335 LINE",
"25 335 OFFCURVE",
"81 339 OFFCURVE",
"119 339 CURVE SMOOTH",
"149 339 OFFCURVE",
"222 337 OFFCURVE",
"222 337 CURVE",
"228 388 LINE",
"226 391 LINE",
"226 391 OFFCURVE",
"203 390 OFFCURVE",
"185 390 CURVE SMOOTH",
"168 390 OFFCURVE",
"160 398 OFFCURVE",
"160 417 CURVE SMOOTH",
"161 583 LINE",
"208 583 OFFCURVE",
"240 581 OFFCURVE",
"240 581 CURVE",
"247 630 LINE",
"244 634 LINE",
"244 634 OFFCURVE",
"210 632 OFFCURVE",
"162 632 CURVE",
"162 661 LINE SMOOTH",
"163 730 OFFCURVE",
"177 753 OFFCURVE",
"221 753 CURVE SMOOTH",
"259 753 OFFCURVE",
"288 727 OFFCURVE",
"288 727 CURVE",
"297 730 LINE",
"309 765 OFFCURVE",
"320 795 OFFCURVE",
"320 795 CURVE",
"317 807 LINE",
"317 807 OFFCURVE",
"287 821 OFFCURVE",
"240 821 CURVE SMOOTH",
"135 821 OFFCURVE",
"66 751 OFFCURVE",
"66 641 CURVE SMOOTH",
"66 633 LINE",
"25 627 LINE",
"20 589 LINE"
);
}
);
width = 249;
}
);
},
{
glyphname = g.sups;
lastChange = "2014-09-12 03:52:47 -0300";
layers = (
{
anchors = (
{
name = bottom;
position = "{245, -215}";
},
{
name = top;
position = "{264, 472}";
}
);
layerId = "F8053E42-0B7C-4D2D-91AF-B2EFB3EA087D";
name = Bold;
paths = (
{
closed = 1;
nodes = (
"259 421 OFFCURVE",
"320 469 OFFCURVE",
"320 537 CURVE SMOOTH",
"320 561 OFFCURVE",
"312 582 OFFCURVE",
"294 600 CURVE",
"297 604 LINE",
"320 605 OFFCURVE",
"341 607 OFFCURVE",
"341 607 CURVE",
"350 664 LINE",
"346 668 LINE",
"346 668 OFFCURVE",
"284 647 OFFCURVE",
"252 645 CURVE",
"230 645 OFFCURVE",
"211 651 OFFCURVE",
"182 651 CURVE SMOOTH",
"96 651 OFFCURVE",
"37 602 OFFCURVE",
"37 531 CURVE SMOOTH",
"37 491 OFFCURVE",
"55 459 OFFCURVE",
"88 441 CURVE",
"88 435 LINE",
"88 435 OFFCURVE",
"51 411 OFFCURVE",
"32 390 CURVE",
"32 355 OFFCURVE",
"59 329 OFFCURVE",
"100 323 CURVE",
"100 319 LINE",
"100 319 OFFCURVE",
"51 294 OFFCURVE",
"33 276 CURVE",
"33 219 OFFCURVE",
"84 183 OFFCURVE",
"160 183 CURVE SMOOTH",
"253 183 OFFCURVE",
"342 243 OFFCURVE",
"342 306 CURVE SMOOTH",
"342 425 OFFCURVE",
"115 358 OFFCURVE",
"115 406 CURVE SMOOTH",
"115 413 OFFCURVE",
"121 420 OFFCURVE",
"128 425 CURVE",
"141 423 OFFCURVE",
"156 421 OFFCURVE",
"171 421 CURVE SMOOTH"
);
},
{
closed = 1;
nodes = (
"151 472 OFFCURVE",
"135 494 OFFCURVE",
"135 534 CURVE SMOOTH",
"135 574 OFFCURVE",
"149 594 OFFCURVE",
"174 594 CURVE SMOOTH",
"205 594 OFFCURVE",
"222 573 OFFCURVE",
"222 532 CURVE SMOOTH",
"222 491 OFFCURVE",
"208 472 OFFCURVE",
"181 472 CURVE SMOOTH"
);
},
{
closed = 1;
nodes = (
"152 239 OFFCURVE",
"131 254 OFFCURVE",
"131 276 CURVE SMOOTH",
"131 295 OFFCURVE",
"148 313 OFFCURVE",
"148 313 CURVE",
"241 300 OFFCURVE",
"251 297 OFFCURVE",
"251 279 CURVE SMOOTH",
"251 257 OFFCURVE",
"221 239 OFFCURVE",
"184 239 CURVE SMOOTH"
);
}
);
width = 361;
}
);
},
{
glyphname = h.sups;
lastChange = "2014-09-12 03:52:47 -0300";
layers = (
{
anchors = (
{
name = bottom;
position = "{265, 0}";
},
{
name = center;
position = "{277, 236}";
},
{
name = top;
position = "{128, 710}";
}
);
layerId = "F8053E42-0B7C-4D2D-91AF-B2EFB3EA087D";
name = Bold;
paths = (
{
closed = 1;
nodes = (
"17 337 LINE",
"17 337 OFFCURVE",
"61 339 OFFCURVE",
"95 339 CURVE SMOOTH",
"124 339 OFFCURVE",
"173 337 OFFCURVE",
"173 337 CURVE",
"180 383 LINE",
"178 387 LINE",
"178 387 OFFCURVE",
"170 386 OFFCURVE",
"164 386 CURVE SMOOTH",
"151 386 OFFCURVE",
"146 393 OFFCURVE",
"146 411 CURVE SMOOTH",
"146 460 OFFCURVE",
"147 506 OFFCURVE",
"147 548 CURVE",
"157 555 OFFCURVE",
"179 571 OFFCURVE",
"198 571 CURVE SMOOTH",
"223 571 OFFCURVE",
"235 555 OFFCURVE",
"234 519 CURVE SMOOTH",
"232 416 LINE SMOOTH",
"232 396 OFFCURVE",
"224 387 OFFCURVE",
"204 383 CURVE",
"200 336 LINE",
"200 336 OFFCURVE",
"252 339 OFFCURVE",
"277 339 CURVE SMOOTH",
"303 339 OFFCURVE",
"355 337 OFFCURVE",
"355 337 CURVE",
"362 383 LINE",
"361 386 LINE",
"361 386 OFFCURVE",
"348 385 OFFCURVE",
"342 385 CURVE SMOOTH",
"327 385 OFFCURVE",
"322 393 OFFCURVE",
"322 413 CURVE SMOOTH",
"322 443 OFFCURVE",
"335 539 OFFCURVE",
"335 565 CURVE SMOOTH",
"335 620 OFFCURVE",
"299 650 OFFCURVE",
"231 650 CURVE SMOOTH",
"214 650 OFFCURVE",
"170 613 OFFCURVE",
"148 592 CURVE",
"151 718 OFFCURVE",
"158 797 OFFCURVE",
"168 807 CURVE",
"163 821 LINE",
"163 821 OFFCURVE",
"78 808 OFFCURVE",
"9 799 CURVE",
"5 759 LINE",
"8 755 LINE",
"24 755 LINE",
"47 755 OFFCURVE",
"53 747 OFFCURVE",
"53 718 CURVE SMOOTH",
"53 418 LINE",
"53 395 OFFCURVE",
"46 386 OFFCURVE",
"24 384 CURVE"
);
}
);
width = 383;
}
);
},
{
glyphname = i.sups;
lastChange = "2014-09-12 03:52:47 -0300";
layers = (
{
anchors = (
{
name = bottom;
position = "{159, 0}";
},
{
name = ogonek;
position = "{159, 49}";
},
{
name = top;
position = "{147, 472}";
}
);
layerId = "F8053E42-0B7C-4D2D-91AF-B2EFB3EA087D";
name = Bold;
paths = (
{
closed = 1;
nodes = (
"148 703 OFFCURVE",
"171 727 OFFCURVE",
"171 762 CURVE SMOOTH",
"171 795 OFFCURVE",
"152 816 OFFCURVE",
"119 816 CURVE SMOOTH",
"83 816 OFFCURVE",
"60 792 OFFCURVE",
"60 757 CURVE SMOOTH",
"60 723 OFFCURVE",
"79 703 OFFCURVE",
"113 703 CURVE SMOOTH"
);
},
{
closed = 1;
nodes = (
"22 332 LINE",
"22 332 OFFCURVE",
"74 339 OFFCURVE",
"109 339 CURVE SMOOTH",
"138 339 OFFCURVE",
"190 337 OFFCURVE",
"190 337 CURVE",
"197 384 LINE",
"195 387 LINE",
"195 387 OFFCURVE",
"184 386 OFFCURVE",
"178 386 CURVE SMOOTH",
"164 386 OFFCURVE",
"159 393 OFFCURVE",
"159 410 CURVE SMOOTH",
"159 533 OFFCURVE",
"165 618 OFFCURVE",
"175 637 CURVE",
"168 650 LINE",
"168 650 OFFCURVE",
"94 635 OFFCURVE",
"25 627 CURVE",
"21 583 LINE",
"21 583 OFFCURVE",
"31 585 OFFCURVE",
"36 585 CURVE SMOOTH",
"59 585 OFFCURVE",
"66 577 OFFCURVE",
"66 548 CURVE SMOOTH",
"66 420 LINE SMOOTH",
"66 396 OFFCURVE",
"54 384 OFFCURVE",
"28 381 CURVE"
);
}
);
width = 216;
}
);
},
{
glyphname = j.sups;
lastChange = "2014-09-12 03:52:47 -0300";
layers = (
{
anchors = (
{
name = bottom;
position = "{243, 0}";
},
{
name = top;
position = "{125, 463}";
}
);
layerId = "F8053E42-0B7C-4D2D-91AF-B2EFB3EA087D";
name = Bold;
paths = (
{
closed = 1;
nodes = (
"37 180 LINE",
"110 213 OFFCURVE",
"155 270 OFFCURVE",
"155 330 CURVE SMOOTH",
"155 511 OFFCURVE",
"160 615 OFFCURVE",
"171 637 CURVE",
"164 650 LINE",
"164 650 OFFCURVE",
"83 635 OFFCURVE",
"23 627 CURVE",
"18 583 LINE",
"18 583 OFFCURVE",
"29 585 OFFCURVE",
"39 585 CURVE SMOOTH",
"56 585 OFFCURVE",
"62 576 OFFCURVE",
"62 548 CURVE SMOOTH",
"62 362 LINE SMOOTH",
"62 281 OFFCURVE",
"51 248 OFFCURVE",
"13 211 CURVE",
"12 203 LINE"
);
},
{
closed = 1;
nodes = (
"144 703 OFFCURVE",
"167 727 OFFCURVE",
"167 762 CURVE SMOOTH",
"167 795 OFFCURVE",
"147 816 OFFCURVE",
"114 816 CURVE SMOOTH",
"78 816 OFFCURVE",
"55 792 OFFCURVE",
"55 757 CURVE SMOOTH",
"55 723 OFFCURVE",
"74 703 OFFCURVE",
"108 703 CURVE SMOOTH"
);
}
);
width = 208;
}
);
},
{
glyphname = k.sups;
lastChange = "2014-09-12 03:52:47 -0300";
layers = (
{
anchors = (
{
name = bottom;
position = "{282, 0}";
},
{
name = top;
position = "{119, 687}";
}
);
layerId = "F8053E42-0B7C-4D2D-91AF-B2EFB3EA087D";
name = Bold;
paths = (
{
closed = 1;
nodes = (
"17 336 LINE",
"17 336 OFFCURVE",
"60 339 OFFCURVE",
"95 339 CURVE SMOOTH",
"122 339 OFFCURVE",
"173 337 OFFCURVE",
"173 337 CURVE",
"180 382 LINE",
"179 385 LINE",
"179 385 OFFCURVE",
"168 385 OFFCURVE",
"164 385 CURVE SMOOTH",
"150 385 OFFCURVE",
"146 392 OFFCURVE",
"146 410 CURVE SMOOTH",
"146 638 OFFCURVE",
"154 793 OFFCURVE",
"168 807 CURVE",
"162 821 LINE",
"162 821 OFFCURVE",
"77 808 OFFCURVE",
"9 799 CURVE",
"5 761 LINE SMOOTH",
"5 759 OFFCURVE",
"6 757 OFFCURVE",
"7 755 CURVE SMOOTH",
"16 755 OFFCURVE",
"30 756 OFFCURVE",
"37 753 CURVE SMOOTH",
"49 750 OFFCURVE",
"53 740 OFFCURVE",
"53 718 CURVE SMOOTH",
"53 426 LINE SMOOTH",
"53 397 OFFCURVE",
"49 386 OFFCURVE",
"23 383 CURVE"
);
},
{
closed = 1;
nodes = (
"214.01 382.99 LINE SMOOTH",
"233 348 OFFCURVE",
"248 335 OFFCURVE",
"274 331 CURVE SMOOTH",
"280 331 OFFCURVE",
"293 330 OFFCURVE",
"307 331 CURVE SMOOTH",
"326 332 OFFCURVE",
"355 338 OFFCURVE",
"355 338 CURVE",
"360 377 LINE",
"357 383 LINE",
"332 386 OFFCURVE",
"313 400 OFFCURVE",
"295 429 CURVE SMOOTH",
"245 511 LINE",
"278 543 OFFCURVE",
"313 580 OFFCURVE",
"352 597 CURVE",
"358 641 LINE",
"356 644 LINE",
"356 644 OFFCURVE",
"314 642 OFFCURVE",
"281 642 CURVE SMOOTH",
"243 642 OFFCURVE",
"195 643 OFFCURVE",
"195 643 CURVE",
"189 604 LINE",
"191 601 LINE",
"215 601 OFFCURVE",
"225 598 OFFCURVE",
"225 588 CURVE SMOOTH",
"225 581 OFFCURVE",
"221 576 OFFCURVE",
"212 567 CURVE SMOOTH",
"155 509 LINE",
"153 492 LINE"
);
}
);
width = 370;
}
);
},
{
glyphname = l.sups;
lastChange = "2014-09-12 03:52:47 -0300";
layers = (
{
anchors = (
{
name = bottom;
position = "{140, 0}";
},
{
name = top;
position = "{146, 720}";
},
{
name = topright;
position = "{267, 472}";
}
);
layerId = "F8053E42-0B7C-4D2D-91AF-B2EFB3EA087D";
name = Bold;
paths = (
{
closed = 1;
nodes = (
"16 335 LINE",
"16 335 OFFCURVE",
"60 339 OFFCURVE",
"95 339 CURVE SMOOTH",
"124 339 OFFCURVE",
"180 337 OFFCURVE",
"180 337 CURVE",
"187 382 LINE",
"186 385 LINE",
"186 385 OFFCURVE",
"169 385 OFFCURVE",
"164 385 CURVE SMOOTH",
"150 385 OFFCURVE",
"146 392 OFFCURVE",
"146 410 CURVE SMOOTH",
"146 638 OFFCURVE",
"154 793 OFFCURVE",
"168 807 CURVE",
"162 821 LINE",
"162 821 OFFCURVE",
"77 808 OFFCURVE",
"9 799 CURVE",
"5 761 LINE SMOOTH",
"5 759 OFFCURVE",
"6 757 OFFCURVE",
"7 755 CURVE SMOOTH",
"16 755 OFFCURVE",
"30 756 OFFCURVE",
"37 753 CURVE SMOOTH",
"49 750 OFFCURVE",
"53 740 OFFCURVE",
"53 718 CURVE SMOOTH",
"53 426 LINE SMOOTH",
"53 398 OFFCURVE",
"49 387 OFFCURVE",
"22 382 CURVE"
);
}
);
width = 201;
}
);
},
{
glyphname = m.sups;
lastChange = "2014-09-12 03:52:47 -0300";
layers = (
{
anchors = (
{
name = bottom;
position = "{438, 0}";
},
{
name = top;
position = "{435, 463}";
}
);
layerId = "F8053E42-0B7C-4D2D-91AF-B2EFB3EA087D";
name = Bold;
paths = (
{
closed = 1;
nodes = (
"214 336 LINE",
"214 336 OFFCURVE",
"265 339 OFFCURVE",
"291 339 CURVE SMOOTH",
"317 339 OFFCURVE",
"366 337 OFFCURVE",
"366 337 CURVE",
"374 383 LINE",
"372 386 LINE",
"372 386 OFFCURVE",
"363 385 OFFCURVE",
"356 385 CURVE SMOOTH",
"342 385 OFFCURVE",
"337 393 OFFCURVE",
"337 413 CURVE",
"346 552 LINE",
"356 559 OFFCURVE",
"374 571 OFFCURVE",
"391 571 CURVE SMOOTH",
"417 571 OFFCURVE",
"429 555 OFFCURVE",
"428 519 CURVE SMOOTH",
"427 416 LINE",
"425 394 OFFCURVE",
"419 387 OFFCURVE",
"400 384 CURVE",
"396 337 LINE",
"396 337 OFFCURVE",
"446 339 OFFCURVE",
"471 339 CURVE SMOOTH",
"496 339 OFFCURVE",
"550 337 OFFCURVE",
"550 337 CURVE",
"556 383 LINE",
"555 386 LINE",
"555 386 OFFCURVE",
"543 385 OFFCURVE",
"536 385 CURVE SMOOTH",
"522 385 OFFCURVE",
"517 393 OFFCURVE",
"517 413 CURVE SMOOTH",
"517 443 OFFCURVE",
"530 539 OFFCURVE",
"530 565 CURVE SMOOTH",
"530 619 OFFCURVE",
"492 650 OFFCURVE",
"426 650 CURVE SMOOTH",
"412 650 OFFCURVE",
"367 615 OFFCURVE",
"343 594 CURVE",
"332 631 OFFCURVE",
"299 650 OFFCURVE",
"245 650 CURVE SMOOTH",
"232 650 OFFCURVE",
"189 617 OFFCURVE",
"163 595 CURVE",
"161 597 LINE",
"163 619 OFFCURVE",
"169 643 OFFCURVE",
"169 643 CURVE",
"162 650 LINE",
"162 650 OFFCURVE",
"93 637 OFFCURVE",
"25 628 CURVE",
"21 587 LINE",
"23 583 LINE",
"33 583 LINE",
"58 583 OFFCURVE",
"65 575 OFFCURVE",
"65 545 CURVE SMOOTH",
"65 418 LINE",
"65 394 OFFCURVE",
"57 386 OFFCURVE",
"31 384 CURVE",
"24 337 LINE",
"24 337 OFFCURVE",
"72 339 OFFCURVE",
"110 339 CURVE SMOOTH",
"137 339 OFFCURVE",
"185 337 OFFCURVE",
"185 337 CURVE",
"192 384 LINE",
"190 387 LINE",
"190 387 OFFCURVE",
"180 387 OFFCURVE",
"176 387 CURVE SMOOTH",
"162 387 OFFCURVE",
"158 393 OFFCURVE",
"158 412 CURVE SMOOTH",
"158 427 OFFCURVE",
"162 502 OFFCURVE",
"165 551 CURVE",
"175 558 OFFCURVE",
"194 571 OFFCURVE",
"211 571 CURVE SMOOTH",
"237 571 OFFCURVE",
"248 555 OFFCURVE",
"247 519 CURVE SMOOTH",
"246 416 LINE",
"245 396 OFFCURVE",
"237 387 OFFCURVE",
"219 383 CURVE"
);
}
);
width = 578;
}
);
},
{
glyphname = n.sups;
lastChange = "2014-09-12 03:52:47 -0300";
layers = (
{
anchors = (
{
name = bottom;
position = "{291, 0}";
},
{
name = top;
position = "{308, 472}";
}
);
layerId = "F8053E42-0B7C-4D2D-91AF-B2EFB3EA087D";
name = Bold;
paths = (
{
closed = 1;
nodes = (
"214 336 LINE",
"214 336 OFFCURVE",
"265 339 OFFCURVE",
"291 339 CURVE SMOOTH",
"317 339 OFFCURVE",
"369 337 OFFCURVE",
"369 337 CURVE",
"376 383 LINE",
"374 386 LINE",
"374 386 OFFCURVE",
"363 385 OFFCURVE",
"356 385 CURVE SMOOTH",
"342 385 OFFCURVE",
"336 393 OFFCURVE",
"336 413 CURVE SMOOTH",
"336 443 OFFCURVE",
"349 539 OFFCURVE",
"349 565 CURVE SMOOTH",
"349 619 OFFCURVE",
"311 650 OFFCURVE",
"245 650 CURVE SMOOTH",
"229 650 OFFCURVE",
"188 616 OFFCURVE",
"165 595 CURVE",
"161 597 LINE",
"163 619 OFFCURVE",
"169 643 OFFCURVE",
"169 643 CURVE",
"162 650 LINE",
"162 650 OFFCURVE",
"93 637 OFFCURVE",
"25 628 CURVE",
"21 587 LINE",
"23 583 LINE",
"33 583 LINE SMOOTH",
"58 583 OFFCURVE",
"65 575 OFFCURVE",
"65 545 CURVE SMOOTH",
"65 418 LINE SMOOTH",
"65 394 OFFCURVE",
"57 385 OFFCURVE",
"31 383 CURVE",
"24 336 LINE",
"24 336 OFFCURVE",
"72 339 OFFCURVE",
"110 339 CURVE SMOOTH",
"137 339 OFFCURVE",
"185 337 OFFCURVE",
"185 337 CURVE",
"192 384 LINE",
"190 387 LINE",
"190 387 OFFCURVE",
"180 387 OFFCURVE",
"176 387 CURVE SMOOTH",
"162 387 OFFCURVE",
"158 393 OFFCURVE",
"158 412 CURVE SMOOTH",
"158 427 OFFCURVE",
"162 503 OFFCURVE",
"165 551 CURVE",
"175 559 OFFCURVE",
"194 571 OFFCURVE",
"211 571 CURVE SMOOTH",
"237 571 OFFCURVE",
"248 555 OFFCURVE",
"247 519 CURVE SMOOTH",
"246 416 LINE SMOOTH",
"245 396 OFFCURVE",
"237 387 OFFCURVE",
"218 383 CURVE"
);
}
);
width = 400;
}
);
},
{
glyphname = o.sups;
lastChange = "2014-09-12 03:52:47 -0300";
layers = (
{
anchors = (
{
name = bottom;
position = "{259, 0}";
},
{
name = top;
position = "{263, 472}";
}
);
layerId = "F8053E42-0B7C-4D2D-91AF-B2EFB3EA087D";
name = Bold;
paths = (
{
closed = 1;
nodes = (
"268 331 OFFCURVE",
"331 398 OFFCURVE",
"331 499 CURVE SMOOTH",
"331 594 OFFCURVE",
"278 650 OFFCURVE",
"186 650 CURVE SMOOTH",
"87 650 OFFCURVE",
"23 584 OFFCURVE",
"23 483 CURVE SMOOTH",
"23 390 OFFCURVE",
"79 331 OFFCURVE",
"169 331 CURVE SMOOTH"
);
},
{
closed = 1;
nodes = (
"144 390 OFFCURVE",
"127 424 OFFCURVE",
"127 509 CURVE SMOOTH",
"127 562 OFFCURVE",
"142 585 OFFCURVE",
"173 585 CURVE SMOOTH",
"209 585 OFFCURVE",
"226 551 OFFCURVE",
"226 466 CURVE SMOOTH",
"226 413 OFFCURVE",
"211 390 OFFCURVE",
"180 390 CURVE SMOOTH"
);
}
);
width = 354;
}
);
},
{
glyphname = p.sups;
lastChange = "2014-09-12 03:52:47 -0300";
layers = (
{
anchors = (
{
name = bottom;
position = "{380, 0}";
},
{
name = top;
position = "{291, 472}";
}
);
layerId = "F8053E42-0B7C-4D2D-91AF-B2EFB3EA087D";
name = Bold;
paths = (
{
closed = 1;
nodes = (
"23 187 LINE",
"23 187 OFFCURVE",
"72 190 OFFCURVE",
"108 190 CURVE SMOOTH",
"136 190 OFFCURVE",
"192 188 OFFCURVE",
"198 188 CURVE",
"206 236 LINE",
"205 239 LINE",
"202 239 OFFCURVE",
"187 237 OFFCURVE",
"175 237 CURVE SMOOTH",
"156 237 OFFCURVE",
"155 248 OFFCURVE",
"155 279 CURVE SMOOTH",
"155 298 OFFCURVE",
"155 316 OFFCURVE",
"155 335 CURVE SMOOTH",
"155 335 OFFCURVE",
"167 334 OFFCURVE",
"174 334 CURVE SMOOTH",
"282 334 OFFCURVE",
"355 396 OFFCURVE",
"355 502 CURVE SMOOTH",
"355 590 OFFCURVE",
"302 647 OFFCURVE",
"221 647 CURVE SMOOTH",
"214 647 OFFCURVE",
"193 629 OFFCURVE",
"160 597 CURVE",
"157 599 LINE",
"160 620 OFFCURVE",
"165 643 OFFCURVE",
"165 643 CURVE",
"158 650 LINE",
"158 650 OFFCURVE",
"90 637 OFFCURVE",
"22 628 CURVE",
"18 587 LINE",
"21 583 LINE",
"30 583 LINE SMOOTH",
"56 583 OFFCURVE",
"63 575 OFFCURVE",
"63 545 CURVE SMOOTH",
"63 367 LINE SMOOTH",
"62 337 OFFCURVE",
"60 298 OFFCURVE",
"59 271 CURVE SMOOTH",
"59 243 OFFCURVE",
"53 236 OFFCURVE",
"30 234 CURVE"
);
},
{
closed = 1;
nodes = (
"158 448 OFFCURVE",
"160 510 OFFCURVE",
"162 560 CURVE",
"174 568 OFFCURVE",
"188 573 OFFCURVE",
"199 573 CURVE SMOOTH",
"233 573 OFFCURVE",
"253 539 OFFCURVE",
"253 476 CURVE SMOOTH",
"253 424 OFFCURVE",
"234 396 OFFCURVE",
"200 396 CURVE SMOOTH",
"182 396 OFFCURVE",
"164 402 OFFCURVE",
"158 404 CURVE"
);
}
);
width = 379;
}
);
},
{
glyphname = q.sups;
lastChange = "2014-09-12 03:52:47 -0300";
layers = (
{
anchors = (
{
name = bottom;
position = "{149, 0}";
},
{
name = top;
position = "{272, 472}";
}
);
layerId = "F8053E42-0B7C-4D2D-91AF-B2EFB3EA087D";
name = Bold;
paths = (
{
closed = 1;
nodes = (
"163 188 LINE",
"163 188 OFFCURVE",
"217 190 OFFCURVE",
"250 190 CURVE SMOOTH",
"346 190 LINE",
"350 237 LINE",
"348 239 LINE",
"348 239 OFFCURVE",
"340 239 OFFCURVE",
"331 239 CURVE SMOOTH",
"315 239 OFFCURVE",
"312 245 OFFCURVE",
"312 275 CURVE SMOOTH",
"312 480 OFFCURVE",
"318 633 OFFCURVE",
"327 651 CURVE",
"318 659 LINE",
"318 659 OFFCURVE",
"297 651 OFFCURVE",
"271 641 CURVE",
"239 645 OFFCURVE",
"213 647 OFFCURVE",
"192 647 CURVE SMOOTH",
"91 647 OFFCURVE",
"23 580 OFFCURVE",
"23 480 CURVE SMOOTH",
"23 388 OFFCURVE",
"71 334 OFFCURVE",
"148 334 CURVE SMOOTH",
"155 334 OFFCURVE",
"180 348 OFFCURVE",
"219 377 CURVE",
"217 275 LINE SMOOTH",
"216 243 OFFCURVE",
"208 237 OFFCURVE",
"168 235 CURVE"
);
},
{
closed = 1;
nodes = (
"219 419 LINE",
"219 419 OFFCURVE",
"201 404 OFFCURVE",
"180 404 CURVE SMOOTH",
"146 404 OFFCURVE",
"125 441 OFFCURVE",
"125 504 CURVE SMOOTH",
"125 557 OFFCURVE",
"144 585 OFFCURVE",
"178 585 CURVE SMOOTH",
"202 585 OFFCURVE",
"219 576 OFFCURVE",
"219 576 CURVE"
);
}
);
width = 362;
}
);
},
{
glyphname = r.sups;
lastChange = "2014-09-12 03:52:47 -0300";
layers = (
{
anchors = (
{
name = bottom;
position = "{149, 0}";
},
{
name = top;
position = "{152, 472}";
}
);
layerId = "F8053E42-0B7C-4D2D-91AF-B2EFB3EA087D";
name = Bold;
paths = (
{
closed = 1;
nodes = (
"27 336 LINE SMOOTH",
"27 336 OFFCURVE",
"75 339 OFFCURVE",
"116 339 CURVE SMOOTH",
"151 339 OFFCURVE",
"212 337 OFFCURVE",
"212 337 CURVE SMOOTH",
"220 387 LINE",
"217 391 LINE SMOOTH",
"217 391 OFFCURVE",
"195 389 OFFCURVE",
"182 389 CURVE SMOOTH",
"165 389 OFFCURVE",
"159 396 OFFCURVE",
"159 415 CURVE SMOOTH",
"159 425 OFFCURVE",
"166 536 OFFCURVE",
"166 536 CURVE",
"177 549 OFFCURVE",
"190 557 OFFCURVE",
"202 557 CURVE SMOOTH",
"217 557 OFFCURVE",
"221 546 OFFCURVE",
"221 502 CURVE SMOOTH",
"272 505 LINE SMOOTH",
"275 564 OFFCURVE",
"287 636 OFFCURVE",
"287 636 CURVE SMOOTH",
"284 642 LINE SMOOTH",
"284 642 OFFCURVE",
"271 644 OFFCURVE",
"259 644 CURVE SMOOTH",
"227 644 OFFCURVE",
"195 623 OFFCURVE",
"167 583 CURVE SMOOTH",
"162 586 LINE SMOOTH",
"163 612 OFFCURVE",
"170 643 OFFCURVE",
"170 643 CURVE SMOOTH",
"163 650 LINE SMOOTH",
"163 650 OFFCURVE",
"92 637 OFFCURVE",
"26 627 CURVE SMOOTH",
"22 587 LINE",
"25 583 LINE",
"25 583 OFFCURVE",
"32 583 OFFCURVE",
"37 583 CURVE SMOOTH",
"61 583 OFFCURVE",
"66 575 OFFCURVE",
"66 545 CURVE SMOOTH",
"66 424 LINE SMOOTH",
"66 394 OFFCURVE",
"59 385 OFFCURVE",
"33 384 CURVE SMOOTH"
);
}
);
width = 302;
}
);
},
{
glyphname = s.sups;
lastChange = "2014-09-12 03:52:47 -0300";
layers = (
{
layerId = "F8053E42-0B7C-4D2D-91AF-B2EFB3EA087D";
name = Bold;
paths = (
{
closed = 1;
nodes = (
"203 331 OFFCURVE",
"264 374 OFFCURVE",
"264 431 CURVE SMOOTH",
"264 473 OFFCURVE",
"243 494 OFFCURVE",
"164 529 CURVE",
"136 542 OFFCURVE",
"125 553 OFFCURVE",
"125 567 CURVE SMOOTH",
"125 581 OFFCURVE",
"139 591 OFFCURVE",
"159 591 CURVE SMOOTH",
"187 591 OFFCURVE",
"201 578 OFFCURVE",
"201 548 CURVE SMOOTH",
"201 546 OFFCURVE",
"200 540 OFFCURVE",
"200 540 CURVE",
"245 542 LINE",
"249 586 OFFCURVE",
"257 629 OFFCURVE",
"257 629 CURVE",
"253 637 LINE",
"253 637 OFFCURVE",
"221 650 OFFCURVE",
"175 650 CURVE SMOOTH",
"88 650 OFFCURVE",
"30 608 OFFCURVE",
"30 547 CURVE SMOOTH",
"30 507 OFFCURVE",
"53 481 OFFCURVE",
"107 457 CURVE SMOOTH",
"157 435 OFFCURVE",
"168 427 OFFCURVE",
"168 411 CURVE SMOOTH",
"168 397 OFFCURVE",
"152 388 OFFCURVE",
"131 388 CURVE SMOOTH",
"97 388 OFFCURVE",
"76 411 OFFCURVE",
"75 447 CURVE",
"31 444 LINE",
"29 417 OFFCURVE",
"25 379 OFFCURVE",
"22 359 CURVE",
"27 351 LINE",
"27 351 OFFCURVE",
"65 331 OFFCURVE",
"121 331 CURVE SMOOTH"
);
}
);
width = 292;
}
);
},
{
glyphname = t.sups;
lastChange = "2014-09-12 03:52:47 -0300";
layers = (
{
anchors = (
{
name = bottom;
position = "{195, 0}";
},
{
name = center;
position = "{167, 236}";
},
{
name = top;
position = "{134, 531}";
}
);
layerId = "F8053E42-0B7C-4D2D-91AF-B2EFB3EA087D";
name = Bold;
paths = (
{
closed = 1;
nodes = (
"50 413 LINE SMOOTH",
"50 358 OFFCURVE",
"81 331 OFFCURVE",
"145 331 CURVE SMOOTH",
"169 331 OFFCURVE",
"227 389 OFFCURVE",
"227 389 CURVE",
"218 413 LINE",
"218 413 OFFCURVE",
"198 405 OFFCURVE",
"181 405 CURVE SMOOTH",
"155 405 OFFCURVE",
"143 420 OFFCURVE",
"143 453 CURVE SMOOTH",
"143 506 OFFCURVE",
"145 547 OFFCURVE",
"147 583 CURVE",
"216 581 LINE",
"223 630 LINE",
"220 634 LINE",
"151 632 LINE",
"155 669 OFFCURVE",
"160 692 OFFCURVE",
"160 692 CURVE",
"138 704 LINE",
"138 704 OFFCURVE",
"76 658 OFFCURVE",
"11 629 CURVE",
"7 591 LINE",
"15 585 LINE",
"43 585 OFFCURVE",
"50 578 OFFCURVE",
"50 549 CURVE SMOOTH"
);
}
);
width = 240;
}
);
},
{
glyphname = u.sups;
lastChange = "2014-09-12 03:52:47 -0300";
layers = (
{
anchors = (
{
name = bottom;
position = "{273, 0}";
},
{
name = ogonek;
position = "{480, 41}";
},
{
name = top;
position = "{271, 472}";
}
);
layerId = "F8053E42-0B7C-4D2D-91AF-B2EFB3EA087D";
name = Bold;
paths = (
{
closed = 1;
nodes = (
"48 417 LINE",
"48 362 OFFCURVE",
"87 332 OFFCURVE",
"159 332 CURVE SMOOTH",
"169 332 OFFCURVE",
"195 353 OFFCURVE",
"225 384 CURVE",
"231 381 LINE",
"236 348 OFFCURVE",
"260 331 OFFCURVE",
"303 331 CURVE SMOOTH",
"340 343 OFFCURVE",
"377 403 OFFCURVE",
"377 403 CURVE",
"366 418 LINE",
"366 418 OFFCURVE",
"353 409 OFFCURVE",
"339 409 CURVE SMOOTH",
"326 409 OFFCURVE",
"318 419 OFFCURVE",
"318 434 CURVE SMOOTH",
"318 528 OFFCURVE",
"326 616 OFFCURVE",
"337 636 CURVE",
"330 648 LINE",
"330 648 OFFCURVE",
"258 635 OFFCURVE",
"196 627 CURVE",
"189 584 LINE",
"190 584 OFFCURVE",
"195 584 OFFCURVE",
"197 584 CURVE SMOOTH",
"220 583 OFFCURVE",
"224 578 OFFCURVE",
"224 553 CURVE SMOOTH",
"224 430 LINE",
"210 420 OFFCURVE",
"193 412 OFFCURVE",
"179 412 CURVE SMOOTH",
"154 412 OFFCURVE",
"142 427 OFFCURVE",
"142 459 CURVE SMOOTH",
"142 536 OFFCURVE",
"150 616 OFFCURVE",
"161 637 CURVE",
"153 650 LINE",
"153 650 OFFCURVE",
"82 636 OFFCURVE",
"20 628 CURVE",
"15 583 LINE",
"15 583 OFFCURVE",
"24 585 OFFCURVE",
"32 585 CURVE SMOOTH",
"47 585 OFFCURVE",
"54 576 OFFCURVE",
"54 555 CURVE SMOOTH"
);
}
);
width = 384;
}
);
},
{
glyphname = v.sups;
lastChange = "2014-09-12 03:52:47 -0300";
layers = (
{
anchors = (
{
name = bottom;
position = "{200, 0}";
},
{
name = top;
position = "{270, 474}";
}
);
layerId = "F8053E42-0B7C-4D2D-91AF-B2EFB3EA087D";
name = Bold;
paths = (
{
closed = 1;
nodes = (
"227 571 OFFCURVE",
"206 503 OFFCURVE",
"178 421 CURVE",
"169 421 LINE",
"169 421 OFFCURVE",
"135 563 OFFCURVE",
"135 581 CURVE SMOOTH",
"135 592 OFFCURVE",
"139 594 OFFCURVE",
"164 597 CURVE",
"171 643 LINE",
"169 647 LINE",
"169 647 OFFCURVE",
"119 642 OFFCURVE",
"74 642 CURVE SMOOTH",
"49 642 OFFCURVE",
"6 643 OFFCURVE",
"6 643 CURVE",
"2 598 LINE",
"3 596 LINE",
"24 595 OFFCURVE",
"36 585 OFFCURVE",
"43 563 CURVE SMOOTH",
"57 517 OFFCURVE",
"106 330 OFFCURVE",
"106 330 CURVE",
"216 339 LINE",
"294 563 LINE",
"304 588 OFFCURVE",
"308 593 OFFCURVE",
"328 596 CURVE",
"333 643 LINE",
"333 643 OFFCURVE",
"298 642 OFFCURVE",
"270 642 CURVE SMOOTH",
"241 642 OFFCURVE",
"197 643 OFFCURVE",
"197 643 CURVE",
"191 599 LINE",
"193 595 LINE",
"208 595 LINE",
"223 595 OFFCURVE",
"227 592 OFFCURVE",
"227 583 CURVE SMOOTH"
);
}
);
width = 336;
}
);
},
{
glyphname = w.sups;
lastChange = "2014-09-12 03:52:47 -0300";
layers = (
{
anchors = (
{
name = bottom;
position = "{345, 0}";
},
{
name = top;
position = "{394, 472}";
}
);
layerId = "F8053E42-0B7C-4D2D-91AF-B2EFB3EA087D";
name = Bold;
paths = (
{
closed = 1;
nodes = (
"410 571 OFFCURVE",
"390 503 OFFCURVE",
"361 421 CURVE",
"352 421 LINE",
"352 421 OFFCURVE",
"320 563 OFFCURVE",
"320 581 CURVE SMOOTH",
"320 592 OFFCURVE",
"322 593 OFFCURVE",
"349 597 CURVE",
"355 643 LINE",
"353 646 LINE",
"353 646 OFFCURVE",
"306 642 OFFCURVE",
"261 642 CURVE SMOOTH",
"237 642 OFFCURVE",
"196 643 OFFCURVE",
"196 643 CURVE",
"190 598 LINE",
"192 595 LINE",
"215 595 OFFCURVE",
"221 591 OFFCURVE",
"223 575 CURVE",
"220 560 OFFCURVE",
"187 447 OFFCURVE",
"177 421 CURVE",
"168 421 LINE",
"168 421 OFFCURVE",
"136 563 OFFCURVE",
"136 581 CURVE SMOOTH",
"136 592 OFFCURVE",
"139 594 OFFCURVE",
"164 597 CURVE",
"171 643 LINE",
"169 647 LINE",
"169 647 OFFCURVE",
"119 642 OFFCURVE",
"74 642 CURVE SMOOTH",
"49 642 OFFCURVE",
"8 643 OFFCURVE",
"8 643 CURVE",
"3 598 LINE",
"4 596 LINE",
"25 595 OFFCURVE",
"37 585 OFFCURVE",
"44 563 CURVE SMOOTH",
"58 517 OFFCURVE",
"106 330 OFFCURVE",
"106 330 CURVE",
"215 339 LINE",
"254 477 LINE",
"263 477 LINE",
"275 424 OFFCURVE",
"291 360 OFFCURVE",
"295 330 CURVE",
"401 339 LINE",
"478 563 LINE SMOOTH",
"487 588 OFFCURVE",
"491 593 OFFCURVE",
"511 596 CURVE",
"517 643 LINE",
"517 643 OFFCURVE",
"481 642 OFFCURVE",
"453 642 CURVE SMOOTH",
"424 642 OFFCURVE",
"381 643 OFFCURVE",
"381 643 CURVE",
"374 599 LINE",
"377 595 LINE",
"392 595 LINE SMOOTH",
"407 595 OFFCURVE",
"410 592 OFFCURVE",
"410 583 CURVE SMOOTH"
);
}
);
width = 520;
}
);
},
{
glyphname = x.sups;
lastChange = "2014-09-12 03:52:47 -0300";
layers = (
{
anchors = (
{
name = bottom;
position = "{182, 0}";
},
{
name = top;
position = "{199, 463}";
}
);
layerId = "F8053E42-0B7C-4D2D-91AF-B2EFB3EA087D";
name = Bold;
paths = (
{
closed = 1;
nodes = (
"251 339 OFFCURVE",
"173 336 OFFCURVE",
"173 336 CURVE",
"171 339 LINE",
"176 377 LINE",
"193 377 OFFCURVE",
"200 381 OFFCURVE",
"200 388 CURVE SMOOTH",
"200 392 OFFCURVE",
"198 396 OFFCURVE",
"193 404 CURVE SMOOTH",
"157 450 LINE",
"141 430 OFFCURVE",
"117 402 OFFCURVE",
"117 391 CURVE SMOOTH",
"117 382 OFFCURVE",
"123 379 OFFCURVE",
"140 378 CURVE",
"142 374 LINE",
"137 336 LINE",
"137 336 OFFCURVE",
"83 339 OFFCURVE",
"67 339 CURVE SMOOTH",
"44 339 OFFCURVE",
"10 337 OFFCURVE",
"10 337 CURVE",
"8 342 LINE",
"13 379 LINE",
"28 386 OFFCURVE",
"40 400 OFFCURVE",
"71 436 CURVE SMOOTH",
"123 496 LINE",
"80 552 LINE SMOOTH",
"57 583 OFFCURVE",
"41 591 OFFCURVE",
"13 596 CURVE",
"12 600 LINE",
"16 643 LINE",
"16 643 OFFCURVE",
"52 642 OFFCURVE",
"98 642 CURVE SMOOTH",
"141 642 OFFCURVE",
"187 645 OFFCURVE",
"187 645 CURVE",
"190 640 LINE",
"185 600 LINE",
"170 600 OFFCURVE",
"162 597 OFFCURVE",
"162 588 CURVE SMOOTH",
"162 578 OFFCURVE",
"168 571 OFFCURVE",
"176 559 CURVE SMOOTH",
"199 529 LINE",
"226 565 LINE SMOOTH",
"234 576 OFFCURVE",
"240 583 OFFCURVE",
"240 591 CURVE SMOOTH",
"240 598 OFFCURVE",
"236 600 OFFCURVE",
"219 600 CURVE",
"218 603 LINE",
"221 642 LINE",
"286 642 LINE SMOOTH",
"312 642 OFFCURVE",
"346 644 OFFCURVE",
"346 644 CURVE",
"348 640 LINE",
"344 599 LINE",
"323 586 OFFCURVE",
"303 571 OFFCURVE",
"287 551 CURVE SMOOTH",
"236 483 LINE",
"282 424 LINE SMOOTH",
"305 396 OFFCURVE",
"321 383 OFFCURVE",
"346 380 CURVE",
"348 378 LINE",
"342 338 LINE",
"342 338 OFFCURVE",
"295 339 OFFCURVE",
"275 339 CURVE SMOOTH"
);
}
);
width = 355;
}
);
},
{
glyphname = y.sups;
lastChange = "2014-09-12 03:52:47 -0300";
layers = (
{
anchors = (
{
name = bottom;
position = "{239, 0}";
},
{
name = top;
position = "{267, 472}";
}
);
layerId = "F8053E42-0B7C-4D2D-91AF-B2EFB3EA087D";
name = Bold;
paths = (
{
closed = 1;
nodes = (
"170 437 LINE",
"170 437 OFFCURVE",
"131 562 OFFCURVE",
"131 582 CURVE SMOOTH",
"131 592 OFFCURVE",
"136 596 OFFCURVE",
"160 597 CURVE",
"166 643 LINE",
"165 647 LINE",
"165 645 OFFCURVE",
"101 642 OFFCURVE",
"54 642 CURVE SMOOTH",
"38 642 OFFCURVE",
"15 642 OFFCURVE",
"4 642 CURVE",
"-1 598 LINE",
"0 595 LINE",
"17 594 OFFCURVE",
"27 587 OFFCURVE",
"38 568 CURVE",
"58 525 OFFCURVE",
"107 396 OFFCURVE",
"131 331 CURVE",
"102 287 OFFCURVE",
"55 260 OFFCURVE",
"-4 253 CURVE",
"-10 243 LINE",
"-10 227 OFFCURVE",
"34 183 OFFCURVE",
"50 183 CURVE SMOOTH",
"109 182 OFFCURVE",
"163 241 OFFCURVE",
"215 365 CURVE",
"299 566 LINE",
"307 585 OFFCURVE",
"312 591 OFFCURVE",
"331 595 CURVE",
"337 642 LINE",
"321 642 OFFCURVE",
"296 642 OFFCURVE",
"273 642 CURVE SMOOTH",
"243 642 OFFCURVE",
"201 643 OFFCURVE",
"201 643 CURVE",
"195 599 LINE",
"197 595 LINE",
"214 595 LINE SMOOTH",
"228 595 OFFCURVE",
"231 593 OFFCURVE",
"231 583 CURVE SMOOTH",
"231 573 OFFCURVE",
"205 502 OFFCURVE",
"179 437 CURVE"
);
}
);
width = 334;
}
);
},
{
glyphname = z.sups;
lastChange = "2014-09-12 03:52:47 -0300";
layers = (
{
anchors = (
{
name = bottom;
position = "{210, 0}";
},
{
name = top;
position = "{245, 472}";
}
);
layerId = "F8053E42-0B7C-4D2D-91AF-B2EFB3EA087D";
name = Bold;
paths = (
{
closed = 1;
nodes = (
"31 336 LINE",
"70 339.99 LINE",
"273 337 LINE",
"284 347 LINE",
"284 396 OFFCURVE",
"295 473 OFFCURVE",
"295 473 CURVE",
"256 470 LINE",
"249 420 OFFCURVE",
"232 400 OFFCURVE",
"192 395 CURVE SMOOTH",
"135 389 LINE",
"162 429 OFFCURVE",
"226 523 OFFCURVE",
"299 619 CURVE",
"290 641 LINE",
"128 642 LINE",
"42 647 LINE",
"37 643 LINE",
"36 600 OFFCURVE",
"30 528 OFFCURVE",
"30 528 CURVE",
"68 532 LINE",
"71 574 OFFCURVE",
"81 584 OFFCURVE",
"129 588 CURVE",
"179 593 LINE",
"17 360 LINE"
);
}
);
width = 322;
}
);
},
{
glyphname = f.t;
lastChange = "2014-09-12 03:52:47 -0300";
layers = (
{
anchors = (
{
name = bottom;
position = "{157, 0}";
},
{
name = top;
position = "{265, 749}";
}
);
layerId = "F8053E42-0B7C-4D2D-91AF-B2EFB3EA087D";
name = Bold;
paths = (
{
closed = 1;
nodes = (
"28 386 LINE",
"75 384 OFFCURVE",
"91 378 OFFCURVE",
"93 345 CURVE",
"93 129 LINE SMOOTH",
"93 81 OFFCURVE",
"83 62 OFFCURVE",
"37 56 CURVE",
"30 -6 LINE",
"30 -5 OFFCURVE",
"120 0 OFFCURVE",
"180 0 CURVE SMOOTH",
"223 0 OFFCURVE",
"303 -4 OFFCURVE",
"303 -3 CURVE",
"312 64 LINE",
"309 69 LINE",
"309 69 OFFCURVE",
"279 67 OFFCURVE",
"253 67 CURVE SMOOTH",
"222 67 OFFCURVE",
"211 84 OFFCURVE",
"211 113 CURVE SMOOTH",
"211 203 OFFCURVE",
"214 293 OFFCURVE",
"214 383 CURVE",
"393 383 LINE",
"442 382 LINE",
"452 443 LINE",
"447 451 LINE",
"373 450 LINE",
"215 450 LINE",
"215 587 OFFCURVE",
"226 651 OFFCURVE",
"312 651 CURVE SMOOTH",
"372 651 OFFCURVE",
"417 613 OFFCURVE",
"417 613 CURVE",
"430 616 LINE",
"447 665 OFFCURVE",
"464 705 OFFCURVE",
"464 705 CURVE",
"460 721 LINE",
"460 721 OFFCURVE",
"413 742 OFFCURVE",
"345 742 CURVE SMOOTH",
"194 742 OFFCURVE",
"93 638 OFFCURVE",
"93 454 CURVE",
"31 444 LINE",
"24 392 LINE"
);
}
);
width = 337;
}
);
leftKerningGroup = f;
},
{
glyphname = fi;
lastChange = "2014-09-12 03:52:47 -0300";
layers = (
{
layerId = "F8053E42-0B7C-4D2D-91AF-B2EFB3EA087D";
name = Bold;
paths = (
{
closed = 1;
nodes = (
"215 496 LINE SMOOTH",
"216 608 OFFCURVE",
"247 651 OFFCURVE",
"328 651 CURVE SMOOTH",
"399 651 OFFCURVE",
"451 595 OFFCURVE",
"451 595 CURVE",
"463 599 LINE",
"482 653 OFFCURVE",
"500 698 OFFCURVE",
"500 698 CURVE",
"496 713 LINE",
"449 734 OFFCURVE",
"409 742 OFFCURVE",
"363 742 CURVE SMOOTH",
"192 742 OFFCURVE",
"93 630 OFFCURVE",
"93 454 CURVE",
"31 444 LINE",
"24 392 LINE",
"28 386 LINE",
"79 384 OFFCURVE",
"90 376 OFFCURVE",
"93 345 CURVE",
"93 130 LINE SMOOTH",
"93 77 OFFCURVE",
"80 61 OFFCURVE",
"37 56 CURVE",
"30 -6 LINE",
"30 -6 OFFCURVE",
"108 0 OFFCURVE",
"163 0 CURVE SMOOTH",
"206 0 OFFCURVE",
"308 -3 OFFCURVE",
"308 -3 CURVE",
"317 64 LINE",
"314 68 LINE",
"314 68 OFFCURVE",
"283 67 OFFCURVE",
"252 67 CURVE SMOOTH",
"225 67 OFFCURVE",
"211 82 OFFCURVE",
"211 113 CURVE SMOOTH",
"211 203 OFFCURVE",
"214 295 OFFCURVE",
"214 385 CURVE",
"361 385 LINE SMOOTH",
"410 385 OFFCURVE",
"420 376 OFFCURVE",
"420 329 CURVE SMOOTH",
"420 134 LINE SMOOTH",
"420 78 OFFCURVE",
"408 61 OFFCURVE",
"365 53 CURVE",
"357 -11 LINE",
"357 -11 OFFCURVE",
"430 0 OFFCURVE",
"479 0 CURVE SMOOTH",
"520 0 OFFCURVE",
"590 -3 OFFCURVE",
"590 -3 CURVE",
"600 60 LINE",
"597 64 LINE",
"597 64 OFFCURVE",
"579 62 OFFCURVE",
"568 62 CURVE SMOOTH",
"546 62 OFFCURVE",
"538 74 OFFCURVE",
"538 106 CURVE SMOOTH",
"538 283 OFFCURVE",
"547 428 OFFCURVE",
"561 457 CURVE",
"552 474 LINE",
"454 454 OFFCURVE",
"417 452 OFFCURVE",
"215 452 CURVE"
);
}
);
width = 623;
}
);
leftKerningGroup = f;
unicode = FB01;
},
{
glyphname = fj;
lastChange = "2014-09-12 03:52:47 -0300";
layers = (
{
layerId = "F8053E42-0B7C-4D2D-91AF-B2EFB3EA087D";
name = Bold;
paths = (
{
closed = 1;
nodes = (
"550 474 LINE",
"449 454 OFFCURVE",
"403 452 OFFCURVE",
"215 452 CURVE",
"215 587 OFFCURVE",
"229 651 OFFCURVE",
"328 651 CURVE SMOOTH",
"399 651 OFFCURVE",
"451 595 OFFCURVE",
"451 595 CURVE",
"463 599 LINE",
"482 653 OFFCURVE",
"500 698 OFFCURVE",
"500 698 CURVE",
"496 713 LINE",
"496 713 OFFCURVE",
"455 736 OFFCURVE",
"394 739 CURVE SMOOTH",
"376 741 OFFCURVE",
"358 741 OFFCURVE",
"338 740 CURVE SMOOTH",
"190 731 OFFCURVE",
"93 626 OFFCURVE",
"93 454 CURVE",
"31 444 LINE",
"24 392 LINE",
"28 386 LINE",
"75 384 OFFCURVE",
"91 378 OFFCURVE",
"93 345 CURVE",
"93 113 LINE SMOOTH",
"93 77 OFFCURVE",
"75 61 OFFCURVE",
"37 56 CURVE",
"30 -6 LINE",
"30 -6 OFFCURVE",
"107 0 OFFCURVE",
"163 0 CURVE SMOOTH",
"206 0 OFFCURVE",
"308 -3 OFFCURVE",
"308 -3 CURVE",
"317 64 LINE",
"314 68 LINE",
"314 68 OFFCURVE",
"283 67 OFFCURVE",
"252 67 CURVE SMOOTH",
"223 67 OFFCURVE",
"211 83 OFFCURVE",
"211 113 CURVE SMOOTH",
"211 203 OFFCURVE",
"214 295 OFFCURVE",
"214 385 CURVE",
"353 385 LINE SMOOTH",
"408 385 OFFCURVE",
"420 382 OFFCURVE",
"420 329 CURVE SMOOTH",
"420 36 LINE SMOOTH",
"420 -95 OFFCURVE",
"402 -147 OFFCURVE",
"346 -202 CURVE",
"344 -214 LINE",
"376 -244 LINE",
"478 -193 OFFCURVE",
"538 -107 OFFCURVE",
"538 -14 CURVE SMOOTH",
"538 192 OFFCURVE",
"542 423 OFFCURVE",
"559 457 CURVE"
);
}
);
width = 612;
}
);
leftKerningGroup = f;
},
{
glyphname = fl;
lastChange = "2014-09-12 03:52:47 -0300";
layers = (
{
layerId = "F8053E42-0B7C-4D2D-91AF-B2EFB3EA087D";
name = Bold;
paths = (
{
closed = 1;
nodes = (
"214 383 LINE",
"284 382 OFFCURVE",
"336 380 OFFCURVE",
"336 380 CURVE",
"347 448 LINE",
"343 453 LINE",
"343 453 OFFCURVE",
"286 450 OFFCURVE",
"215 450 CURVE",
"215 496 LINE SMOOTH",
"216 608 OFFCURVE",
"242 651 OFFCURVE",
"310 651 CURVE SMOOTH",
"343 651 OFFCURVE",
"383 637 OFFCURVE",
"413 615 CURVE",
"414 597 LINE",
"414 113 LINE SMOOTH",
"414 77 OFFCURVE",
"401 62 OFFCURVE",
"365 54 CURVE",
"357 -9 LINE",
"357 -9 OFFCURVE",
"422 0 OFFCURVE",
"471 0 CURVE SMOOTH",
"512 0 OFFCURVE",
"587 -3 OFFCURVE",
"587 -3 CURVE",
"597 57 LINE",
"595 63 LINE",
"595 63 OFFCURVE",
"570 61 OFFCURVE",
"561 61 CURVE SMOOTH",
"540 61 OFFCURVE",
"532 73 OFFCURVE",
"532 106 CURVE SMOOTH",
"532 437 OFFCURVE",
"545 701 OFFCURVE",
"563 723 CURVE",
"556 742 LINE",
"556 742 OFFCURVE",
"507 733 OFFCURVE",
"447 724 CURVE",
"417 735 OFFCURVE",
"377 742 OFFCURVE",
"342 742 CURVE SMOOTH",
"191 742 OFFCURVE",
"93 633 OFFCURVE",
"93 462 CURVE SMOOTH",
"93 454 LINE",
"31 444 LINE",
"24 392 LINE",
"28 386 LINE",
"80 384 OFFCURVE",
"90 376 OFFCURVE",
"93 346 CURVE",
"93 113 LINE",
"93 78 OFFCURVE",
"76 61 OFFCURVE",
"37 56 CURVE",
"30 -6 LINE",
"30 -6 OFFCURVE",
"107 0 OFFCURVE",
"163 0 CURVE SMOOTH",
"206 0 OFFCURVE",
"308 -3 OFFCURVE",
"308 -3 CURVE",
"317 64 LINE",
"314 69 LINE",
"314 69 OFFCURVE",
"282 67 OFFCURVE",
"253 67 CURVE SMOOTH",
"224 67 OFFCURVE",
"211 81 OFFCURVE",
"211 113 CURVE SMOOTH"
);
}
);
width = 607;
}
);
leftKerningGroup = f;
unicode = FB02;
},
{
glyphname = ordfeminine;
lastChange = "2014-09-12 03:52:47 -0300";
layers = (
{
anchors = (
{
name = bottom;
position = "{229, 0}";
},
{
name = ogonek;
position = "{420, 41}";
},
{
name = top;
position = "{235, 474}";
}
);
layerId = "F8053E42-0B7C-4D2D-91AF-B2EFB3EA087D";
name = Bold;
paths = (
{
closed = 1;
nodes = (
"192 517 LINE",
"63 491 LINE SMOOTH",
"39 485 OFFCURVE",
"23 463 OFFCURVE",
"23 436 CURVE SMOOTH",
"23 379 OFFCURVE",
"64 334 OFFCURVE",
"117 334 CURVE SMOOTH",
"135 334 OFFCURVE",
"166 359 OFFCURVE",
"191 383 CURVE",
"197 381 LINE",
"200 348 OFFCURVE",
"225 331 OFFCURVE",
"267 331 CURVE",
"299 340 OFFCURVE",
"334 402 OFFCURVE",
"334 402 CURVE",
"324 418 LINE",
"324 418 OFFCURVE",
"310 409 OFFCURVE",
"296 409 CURVE SMOOTH",
"282 409 OFFCURVE",
"274 419 OFFCURVE",
"274 434 CURVE SMOOTH",
"274 458 OFFCURVE",
"287 537 OFFCURVE",
"287 559 CURVE SMOOTH",
"287 608 OFFCURVE",
"255 650 OFFCURVE",
"168 650 CURVE SMOOTH",
"135 650 OFFCURVE",
"39 598 OFFCURVE",
"39 598 CURVE",
"53 554 LINE",
"60 551 LINE",
"60 551 OFFCURVE",
"99 580 OFFCURVE",
"137 580 CURVE SMOOTH",
"172 580 OFFCURVE",
"193 560 OFFCURVE",
"193 526 CURVE"
);
},
{
closed = 1;
nodes = (
"190 418 LINE",
"178 411 OFFCURVE",
"160 406 OFFCURVE",
"149 406 CURVE SMOOTH",
"129 406 OFFCURVE",
"116 422 OFFCURVE",
"116 443 CURVE SMOOTH",
"116 454 OFFCURVE",
"120 459 OFFCURVE",
"130 462 CURVE SMOOTH",
"191 477 LINE"
);
}
);
width = 341;
}
);
unicode = 00AA;
},
{
glyphname = ordmasculine;
lastChange = "2014-09-12 03:52:47 -0300";
layers = (
{
anchors = (
{
name = bottom;
position = "{259, 0}";
},
{
name = top;
position = "{263, 472}";
}
);
layerId = "F8053E42-0B7C-4D2D-91AF-B2EFB3EA087D";
name = Bold;
paths = (
{
closed = 1;
nodes = (
"268 331 OFFCURVE",
"331 398 OFFCURVE",
"331 499 CURVE SMOOTH",
"331 594 OFFCURVE",
"278 650 OFFCURVE",
"186 650 CURVE SMOOTH",
"87 650 OFFCURVE",
"23 584 OFFCURVE",
"23 483 CURVE SMOOTH",
"23 390 OFFCURVE",
"79 331 OFFCURVE",
"169 331 CURVE SMOOTH"
);
},
{
closed = 1;
nodes = (
"144 390 OFFCURVE",
"127 424 OFFCURVE",
"127 509 CURVE SMOOTH",
"127 562 OFFCURVE",
"142 585 OFFCURVE",
"173 585 CURVE SMOOTH",
"209 585 OFFCURVE",
"226 551 OFFCURVE",
"226 466 CURVE SMOOTH",
"226 413 OFFCURVE",
"211 390 OFFCURVE",
"180 390 CURVE SMOOTH"
);
}
);
width = 354;
}
);
unicode = 00BA;
},
{
glyphname = Delta;
lastChange = "2014-09-12 03:52:47 -0300";
layers = (
{
layerId = "F8053E42-0B7C-4D2D-91AF-B2EFB3EA087D";
name = Bold;
paths = (
{
closed = 1;
nodes = (
"20 0 LINE",
"574 0 LINE",
"582 7 LINE",
"496 265 OFFCURVE",
"398 654 OFFCURVE",
"398 654 CURVE",
"389 654 LINE",
"229 637 LINE",
"10 13 LINE"
);
},
{
closed = 1;
nodes = (
"301 519 LINE",
"408 95 LINE",
"152 95 LINE",
"286 519 LINE"
);
}
);
width = 604;
}
);
unicode = 0394;
},
{
glyphname = Omega;
lastChange = "2014-09-12 03:52:47 -0300";
layers = (
{
anchors = (
{
name = topleft;
position = "{20, 647}";
}
);
layerId = "F8053E42-0B7C-4D2D-91AF-B2EFB3EA087D";
name = Bold;
paths = (
{
closed = 1;
nodes = (
"818 14 LINE",
"819 96 OFFCURVE",
"831 213 OFFCURVE",
"831 213 CURVE",
"759 206 LINE",
"746 117 OFFCURVE",
"724 86 OFFCURVE",
"669 83 CURVE",
"586 78 LINE",
"683 155 OFFCURVE",
"736 261 OFFCURVE",
"736 382 CURVE SMOOTH",
"736 544 OFFCURVE",
"615 654 OFFCURVE",
"437 654 CURVE SMOOTH",
"255 654 OFFCURVE",
"118 528 OFFCURVE",
"118 360 CURVE SMOOTH",
"118 254 OFFCURVE",
"169 156 OFFCURVE",
"258 79 CURVE",
"185 83 LINE",
"127 86 OFFCURVE",
"104 120 OFFCURVE",
"94 213 CURVE",
"24 206 LINE",
"24 206 OFFCURVE",
"34 96 OFFCURVE",
"35 14 CURVE",
"54 -5 LINE",
"322 6 LINE",
"378 -3 LINE",
"394 48 LINE",
"314 115 OFFCURVE",
"273 216 OFFCURVE",
"273 365 CURVE SMOOTH",
"273 489 OFFCURVE",
"333 557 OFFCURVE",
"430 557 CURVE SMOOTH",
"527 557 OFFCURVE",
"580 478 OFFCURVE",
"580 333 CURVE SMOOTH",
"580 196 OFFCURVE",
"549 128 OFFCURVE",
"456 48 CURVE",
"473 -2 LINE",
"529 6 LINE",
"800 -5 LINE"
);
}
);
width = 857;
}
);
unicode = 03A9;
},
{
glyphname = mu;
lastChange = "2014-09-12 03:52:47 -0300";
layers = (
{
layerId = "F8053E42-0B7C-4D2D-91AF-B2EFB3EA087D";
name = Bold;
paths = (
{
closed = 1;
nodes = (
"51 433 LINE",
"51 433 OFFCURVE",
"61 381 OFFCURVE",
"61 327 CURVE SMOOTH",
"53 73 LINE SMOOTH",
"48 -88 OFFCURVE",
"36 -229 OFFCURVE",
"36 -229 CURVE",
"47 -242 LINE",
"156 -222 LINE",
"163 -213 LINE",
"163 -213 OFFCURVE",
"155 -142 OFFCURVE",
"155 -91 CURVE SMOOTH",
"155 -80 OFFCURVE",
"156 -68 OFFCURVE",
"156 -56 CURVE SMOOTH",
"157 3 LINE",
"162 6 LINE",
"175 -4 OFFCURVE",
"194 -11 OFFCURVE",
"215 -11 CURVE",
"245 -6 OFFCURVE",
"293 38 OFFCURVE",
"319 67 CURVE",
"327 63 LINE",
"333 13 OFFCURVE",
"370 -12 OFFCURVE",
"430 -12 CURVE SMOOTH",
"478 0 OFFCURVE",
"534 88 OFFCURVE",
"534 88 CURVE",
"519 109 LINE",
"519 109 OFFCURVE",
"496 92 OFFCURVE",
"472 92 CURVE SMOOTH",
"450 92 OFFCURVE",
"436 108 OFFCURVE",
"436 133 CURVE SMOOTH",
"436 284 OFFCURVE",
"448 424 OFFCURVE",
"464 455 CURVE",
"454 472 LINE",
"439 469 OFFCURVE",
"376 458 OFFCURVE",
"316 449 CURVE",
"309 432 LINE",
"309 432 OFFCURVE",
"318 382 OFFCURVE",
"318 335 CURVE SMOOTH",
"318 131 LINE",
"313 127 OFFCURVE",
"273 94 OFFCURVE",
"238 94 CURVE SMOOTH",
"193 94 OFFCURVE",
"174 122 OFFCURVE",
"174 175 CURVE SMOOTH",
"174 301 OFFCURVE",
"187 426 OFFCURVE",
"201 457 CURVE",
"191 474 LINE",
"176 470 OFFCURVE",
"121 459 OFFCURVE",
"59 450 CURVE"
);
}
);
width = 532;
}
);
unicode = 03BC;
},
{
glyphname = pi;
lastChange = "2014-09-12 03:52:47 -0300";
layers = (
{
layerId = "F8053E42-0B7C-4D2D-91AF-B2EFB3EA087D";
name = Bold;
paths = (
{
closed = 1;
nodes = (
"473 217 OFFCURVE",
"479 295 OFFCURVE",
"485 366 CURVE SMOOTH",
"490 412 OFFCURVE",
"505 421 OFFCURVE",
"583 421 CURVE",
"590 428 LINE",
"603 498 LINE",
"597 505 LINE",
"597 505 OFFCURVE",
"493 495 OFFCURVE",
"422 495 CURVE SMOOTH",
"363 495 OFFCURVE",
"192 505 OFFCURVE",
"78 505 CURVE",
"63 498 LINE",
"-11 411 LINE",
"-12 403 LINE",
"19 361 LINE",
"28 362 LINE",
"28 362 OFFCURVE",
"64 412 OFFCURVE",
"93 412 CURVE SMOOTH",
"118 412 OFFCURVE",
"125 401 OFFCURVE",
"125 361 CURVE SMOOTH",
"125 193 OFFCURVE",
"116 -68 OFFCURVE",
"110 -84 CURVE",
"118 -98 LINE",
"235 -76 LINE",
"243 -66 LINE",
"243 -66 OFFCURVE",
"240 -15 OFFCURVE",
"240 33 CURVE SMOOTH",
"240 106 OFFCURVE",
"244 299 OFFCURVE",
"247 374 CURVE SMOOTH",
"249 414 OFFCURVE",
"254 418 OFFCURVE",
"302 418 CURVE SMOOTH",
"356 418 OFFCURVE",
"362 412 OFFCURVE",
"362 369 CURVE SMOOTH",
"359 119 LINE",
"359 29 OFFCURVE",
"397 -12 OFFCURVE",
"485 -12 CURVE SMOOTH",
"500 -12 OFFCURVE",
"567 60 OFFCURVE",
"567 77 CURVE",
"557 92 LINE",
"493 92 OFFCURVE",
"473 113 OFFCURVE",
"473 178 CURVE SMOOTH"
);
}
);
width = 621;
}
);
unicode = 03C0;
},
{
color = 0;
glyphname = "ka-deva";
lastChange = "2014-09-12 03:52:47 -0300";
layers = (
{
anchors = (
{
name = bottom;
position = "{426, 0}";
},
{
name = nukta;
position = "{98, 0}";
},
{
name = top;
position = "{426, 464}";
}
);
components = (
{
name = "aaMatra-deva";
transform = "{1, 0, 0, 1, 273, 0}";
}
);
layerId = "F8053E42-0B7C-4D2D-91AF-B2EFB3EA087D";
name = Bold;
paths = (
{
closed = 1;
nodes = (
"107 460 OFFCURVE",
"41 408 OFFCURVE",
"41 313 CURVE SMOOTH",
"41 189 OFFCURVE",
"159 88 OFFCURVE",
"275 88 CURVE SMOOTH",
"335 88 OFFCURVE",
"374 120 OFFCURVE",
"428 183 CURVE",
"413 326 LINE",
"326 226 OFFCURVE",
"267 161 OFFCURVE",
"210 161 CURVE SMOOTH",
"168 161 OFFCURVE",
"148 193 OFFCURVE",
"148 245 CURVE SMOOTH",
"148 331 OFFCURVE",
"194 383 OFFCURVE",
"254 383 CURVE SMOOTH",
"299 383 OFFCURVE",
"360 353 OFFCURVE",
"399 315 CURVE",
"403 366 LINE",
"317 432 OFFCURVE",
"259 460 OFFCURVE",
"196 460 CURVE SMOOTH"
);
},
{
closed = 1;
nodes = (
"534 405 OFFCURVE",
"481 377 OFFCURVE",
"446 343 CURVE",
"438 187 LINE",
"514 267 OFFCURVE",
"580 325 OFFCURVE",
"647 325 CURVE SMOOTH",
"680 325 OFFCURVE",
"694 314 OFFCURVE",
"694 278 CURVE SMOOTH",
"694 215 OFFCURVE",
"647 150 OFFCURVE",
"570 102 CURVE",
"568 89 LINE",
"633 9 LINE",
"644 7 LINE",
"728 49 OFFCURVE",
"787 124 OFFCURVE",
"787 201 CURVE SMOOTH",
"787 302 OFFCURVE",
"686 405 OFFCURVE",
"586 405 CURVE SMOOTH"
);
},
{
closed = 1;
nodes = (
"-16 590 LINE",
"-23 581 LINE",
"-17 555 OFFCURVE",
"-8 532 OFFCURVE",
"4 510 CURVE",
"845 510 LINE",
"850 521 LINE",
"826 583 LINE",
"819 590 LINE"
);
}
);
width = 828;
}
);
unicode = 0915;
},
{
color = 0;
glyphname = "ga-deva";
lastChange = "2014-09-12 03:52:47 -0300";
layers = (
{
anchors = (
{
name = bottom;
position = "{455, 0}";
},
{
name = nukta;
position = "{62, 0}";
},
{
name = top;
position = "{458, 464}";
}
);
components = (
{
name = "aaMatra-deva";
transform = "{1, 0, 0, 1, 302, 0}";
}
);
layerId = "F8053E42-0B7C-4D2D-91AF-B2EFB3EA087D";
name = Bold;
paths = (
{
closed = 1;
nodes = (
"125 449 OFFCURVE",
"130 379 OFFCURVE",
"128 307 CURVE",
"33 304 LINE",
"17 265 LINE",
"53 208 OFFCURVE",
"105 163 OFFCURVE",
"183 119 CURVE",
"223 136 LINE",
"231 173 OFFCURVE",
"234 207 OFFCURVE",
"236 271 CURVE",
"241 457 LINE",
"242 493 OFFCURVE",
"262 509 OFFCURVE",
"302 510 CURVE",
"118 523 LINE"
);
},
{
closed = 1;
nodes = (
"-16 590 LINE",
"-23 581 LINE",
"-17 555 OFFCURVE",
"-8 532 OFFCURVE",
"4 510 CURVE",
"627 510 LINE",
"631 521 LINE",
"607 583 LINE",
"601 590 LINE"
);
}
);
width = 609;
}
);
unicode = 0917;
},
{
color = 0;
glyphname = "na-deva";
lastChange = "2014-09-12 03:52:47 -0300";
layers = (
{
anchors = (
{
name = bottom;
position = "{393, 0}";
},
{
name = nukta;
position = "{63, 0}";
},
{
name = top;
position = "{400, 464}";
}
);
components = (
{
name = "aaMatra-deva";
transform = "{1, 0, 0, 1, 242, 0}";
}
);
layerId = "F8053E42-0B7C-4D2D-91AF-B2EFB3EA087D";
name = Bold;
paths = (
{
closed = 1;
nodes = (
"105 344 OFFCURVE",
"52 340 OFFCURVE",
"21 333 CURVE",
"8 297 LINE",
"38 235 OFFCURVE",
"83 181 OFFCURVE",
"144 137 CURVE",
"189 148 LINE",
"190 256 LINE",
"253 257 OFFCURVE",
"316 255 OFFCURVE",
"401 251 CURVE",
"395 336 LINE",
"313 341 OFFCURVE",
"243 344 OFFCURVE",
"187 344 CURVE SMOOTH"
);
},
{
closed = 1;
nodes = (
"-16 590 LINE",
"-23 581 LINE",
"-17 557 OFFCURVE",
"-9 537 OFFCURVE",
"4 510 CURVE",
"567 510 LINE",
"571 521 LINE",
"547 583 LINE",
"541 590 LINE"
);
}
);
width = 549;
}
);
unicode = 0928;
},
{
color = 0;
glyphname = "pa-deva";
lastChange = "2014-09-12 03:52:47 -0300";
layers = (
{
anchors = (
{
name = bottom;
position = "{402, 0}";
},
{
name = top;
position = "{402, 464}";
}
);
components = (
{
name = "aaMatra-deva";
transform = "{1, 0, 0, 1, 247, 0}";
}
);
layerId = "F8053E42-0B7C-4D2D-91AF-B2EFB3EA087D";
name = Bold;
paths = (
{
closed = 1;
nodes = (
"49 293 LINE",
"49 222 OFFCURVE",
"150 115 OFFCURVE",
"246 115 CURVE SMOOTH",
"269 115 OFFCURVE",
"307 129 OFFCURVE",
"338 152 CURVE",
"374 130 LINE",
"366 313 LINE",
"319 247 OFFCURVE",
"235 196 OFFCURVE",
"193 196 CURVE SMOOTH",
"169 196 OFFCURVE",
"149 212 OFFCURVE",
"149 244 CURVE SMOOTH",
"149 281 OFFCURVE",
"169 428 OFFCURVE",
"176 470 CURVE SMOOTH",
"182 499 OFFCURVE",
"190 510 OFFCURVE",
"221 510 CURVE",
"58 516 LINE"
);
},
{
closed = 1;
nodes = (
"-16 590 LINE",
"-23 581 LINE",
"-17 555 OFFCURVE",
"-8 532 OFFCURVE",
"4 510 CURVE",
"571 510 LINE",
"576 521 LINE",
"551 583 LINE",
"545 590 LINE"
);
}
);
width = 554;
}
);
unicode = 092A;
},
{
color = 0;
glyphname = "ma-deva";
lastChange = "2014-09-12 03:52:47 -0300";
layers = (
{
anchors = (
{
name = bottom;
position = "{476, 0}";
},
{
name = top;
position = "{480, 464}";
}
);
components = (
{
name = "aaMatra-deva";
transform = "{1, 0, 0, 1, 324, 0}";
}
);
layerId = "F8053E42-0B7C-4D2D-91AF-B2EFB3EA087D";
name = Bold;
paths = (
{
closed = 1;
nodes = (
"125 280 OFFCURVE",
"68 276 OFFCURVE",
"33 266 CURVE",
"21 233 LINE",
"58 165 OFFCURVE",
"109 111 OFFCURVE",
"174 67 CURVE",
"217 85 LINE",
"225 192 LINE",
"327 192 OFFCURVE",
"401 190 OFFCURVE",
"480 185 CURVE",
"473 269 LINE",
"371 275 OFFCURVE",
"274 280 OFFCURVE",
"198 280 CURVE SMOOTH"
);
},
{
closed = 1;
nodes = (
"121 422 OFFCURVE",
"123 328 OFFCURVE",
"122 224 CURVE",
"225 208 LINE",
"237 460 LINE",
"239 497 OFFCURVE",
"256 509 OFFCURVE",
"299 510 CURVE",
"111 523 LINE"
);
},
{
closed = 1;
nodes = (
"-16 590 LINE",
"-23 581 LINE",
"-17 554 OFFCURVE",
"-7 532 OFFCURVE",
"4 510 CURVE",
"648 510 LINE",
"653 521 LINE",
"629 583 LINE",
"622 590 LINE"
);
}
);
width = 631;
}
);
unicode = 092E;
},
{
color = 0;
glyphname = "va-deva";
lastChange = "2014-09-12 03:52:47 -0300";
layers = (
{
anchors = (
{
name = bottom;
position = "{430, 0}";
},
{
name = top;
position = "{430, 464}";
}
);
components = (
{
name = "aaMatra-deva";
transform = "{1, 0, 0, 1, 276, 0}";
}
);
layerId = "F8053E42-0B7C-4D2D-91AF-B2EFB3EA087D";
name = Bold;
paths = (
{
closed = 1;
nodes = (
"101 454 OFFCURVE",
"40 395 OFFCURVE",
"40 306 CURVE SMOOTH",
"40 188 OFFCURVE",
"152 81 OFFCURVE",
"282 81 CURVE SMOOTH",
"324 81 OFFCURVE",
"352 95 OFFCURVE",
"401 143 CURVE",
"424 162 LINE",
"428 353 LINE",
"413 374 LINE",
"350 228 OFFCURVE",
"282 154 OFFCURVE",
"213 154 CURVE SMOOTH",
"171 154 OFFCURVE",
"147 183 OFFCURVE",
"147 237 CURVE SMOOTH",
"147 320 OFFCURVE",
"190 377 OFFCURVE",
"256 377 CURVE SMOOTH",
"301 377 OFFCURVE",
"366 348 OFFCURVE",
"409 304 CURVE",
"414 360 LINE",
"322 427 OFFCURVE",
"262 454 OFFCURVE",
"198 454 CURVE SMOOTH"
);
},
{
closed = 1;
nodes = (
"-16 590 LINE",
"-23 581 LINE",
"-17 555 OFFCURVE",
"-8 533 OFFCURVE",
"4 510 CURVE",
"599 510 LINE",
"604 521 LINE",
"580 583 LINE",
"574 590 LINE"
);
}
);
width = 582;
}
);
unicode = 0935;
},
{
color = 0;
glyphname = "aaMatra-deva";
lastChange = "2014-09-12 03:52:47 -0300";
layers = (
{
anchors = (
{
name = bottom;
position = "{153, 0}";
},
{
name = top;
position = "{156, 464}";
}
);
layerId = "F8053E42-0B7C-4D2D-91AF-B2EFB3EA087D";
name = Bold;
paths = (
{
closed = 1;
nodes = (
"99 416 OFFCURVE",
"101 353 OFFCURVE",
"101 298 CURVE SMOOTH",
"101 233 OFFCURVE",
"99 171 OFFCURVE",
"86 0 CURVE",
"187 -51 LINE",
"212 -39 LINE",
"203 196 LINE SMOOTH",
"203 270 OFFCURVE",
"211 390 OFFCURVE",
"218 456 CURVE SMOOTH",
"224 497 OFFCURVE",
"238 510 OFFCURVE",
"285 510 CURVE",
"93 518 LINE"
);
},
{
closed = 1;
nodes = (
"-16 590 LINE",
"-23 581 LINE",
"-17 555 OFFCURVE",
"-8 532 OFFCURVE",
"4 510 CURVE",
"325 510 LINE",
"329 521 LINE",
"305 583 LINE",
"299 590 LINE"
);
}
);
width = 307;
}
);
unicode = 093E;
},
{
glyphname = zero;
lastChange = "2014-09-12 03:52:47 -0300";
layers = (
{
layerId = "F8053E42-0B7C-4D2D-91AF-B2EFB3EA087D";
name = Bold;
paths = (
{
closed = 1;
nodes = (
"380.99 -12 OFFCURVE",
"475 98 OFFCURVE",
"475 263 CURVE SMOOTH",
"475 416 OFFCURVE",
"394 510 OFFCURVE",
"264 510 CURVE SMOOTH",
"122 510 OFFCURVE",
"26 401 OFFCURVE",
"26 237 CURVE SMOOTH",
"26 83 OFFCURVE",
"107 -12 OFFCURVE",
"239 -12 CURVE SMOOTH"
);
},
{
closed = 1;
nodes = (
"164 119 OFFCURVE",
"107 171 OFFCURVE",
"107 251 CURVE SMOOTH",
"107 328 OFFCURVE",
"158 374 OFFCURVE",
"244 374 CURVE SMOOTH",
"337 374 OFFCURVE",
"394 322 OFFCURVE",
"394 240 CURVE SMOOTH",
"394 165 OFFCURVE",
"343 119 OFFCURVE",
"255 119 CURVE SMOOTH"
);
}
);
width = 501;
}
);
unicode = 0030;
},
{
glyphname = one;
lastChange = "2014-09-12 03:52:47 -0300";
layers = (
{
layerId = "F8053E42-0B7C-4D2D-91AF-B2EFB3EA087D";
name = Bold;
paths = (
{
closed = 1;
nodes = (
"261 443 OFFCURVE",
"271 461 OFFCURVE",
"294 480 CURVE",
"284 510 LINE",
"282 510 OFFCURVE",
"245 503 OFFCURVE",
"147 490 CURVE SMOOTH",
"101 483 OFFCURVE",
"49 477 OFFCURVE",
"27 475 CURVE",
"21 418 LINE",
"27 411 LINE",
"27 411 OFFCURVE",
"57 416 OFFCURVE",
"77 416 CURVE SMOOTH",
"113 416 OFFCURVE",
"128 407 OFFCURVE",
"128 359 CURVE SMOOTH",
"128 144 LINE SMOOTH",
"128 78 OFFCURVE",
"107 58 OFFCURVE",
"39 52 CURVE",
"31 -11 LINE",
"31 -12 OFFCURVE",
"124 0 OFFCURVE",
"186 0 CURVE SMOOTH",
"237 0 OFFCURVE",
"330 -4 OFFCURVE",
"330 -4 CURVE",
"341 63 LINE",
"338 68 LINE",
"338 68 OFFCURVE",
"314 65 OFFCURVE",
"290 65 CURVE SMOOTH",
"257 65 OFFCURVE",
"246 83 OFFCURVE",
"246 132 CURVE SMOOTH",
"246 223 OFFCURVE",
"249 323 OFFCURVE",
"256 402 CURVE"
);
}
);
width = 365;
}
);
unicode = 0031;
},
{
glyphname = two;
lastChange = "2014-09-12 03:52:47 -0300";
layers = (
{
layerId = "F8053E42-0B7C-4D2D-91AF-B2EFB3EA087D";
name = Bold;
paths = (
{
closed = 1;
nodes = (
"23 -9 LINE",
"87 0 LINE",
"181 0 OFFCURVE",
"427 -9 OFFCURVE",
"427 -9 CURVE",
"441 3 LINE",
"448 84 OFFCURVE",
"469 191 OFFCURVE",
"469 191 CURVE",
"393 184 LINE",
"380 113 OFFCURVE",
"360 93 OFFCURVE",
"297 93 CURVE SMOOTH",
"201 93 LINE",
"197 101 LINE",
"344 259 OFFCURVE",
"384 318 OFFCURVE",
"384 381 CURVE SMOOTH",
"384 458 OFFCURVE",
"321 510 OFFCURVE",
"228 510 CURVE SMOOTH",
"156 510 OFFCURVE",
"84 468 OFFCURVE",
"33 401 CURVE",
"50 327 LINE",
"64 327 LINE",
"94 375 OFFCURVE",
"137 404 OFFCURVE",
"176 404 CURVE SMOOTH",
"216 404 OFFCURVE",
"238 382 OFFCURVE",
"238 343 CURVE SMOOTH",
"238 296 OFFCURVE",
"198 231 OFFCURVE",
"90 107 CURVE SMOOTH",
"15 24 LINE"
);
}
);
width = 484;
}
);
unicode = 0032;
},
{
glyphname = three;
lastChange = "2014-09-12 03:52:47 -0300";
layers = (
{
layerId = "F8053E42-0B7C-4D2D-91AF-B2EFB3EA087D";
name = Bold;
paths = (
{
closed = 1;
nodes = (
"11 2 LINE",
"15 -72 OFFCURVE",
"35 -100 OFFCURVE",
"92 -100 CURVE SMOOTH",
"237 -100 OFFCURVE",
"390 12 OFFCURVE",
"390 117 CURVE SMOOTH",
"390 179 OFFCURVE",
"342 225 OFFCURVE",
"251 249 CURVE",
"251 257 LINE",
"319 285 OFFCURVE",
"362 338 OFFCURVE",
"362 393 CURVE SMOOTH",
"362 464 OFFCURVE",
"303 510 OFFCURVE",
"214 510 CURVE SMOOTH",
"145 510 OFFCURVE",
"55 457 OFFCURVE",
"28 435 CURVE",
"49 364 LINE",
"53 364 OFFCURVE",
"57 365 OFFCURVE",
"61 365 CURVE",
"95 395 OFFCURVE",
"137 414 OFFCURVE",
"170 414 CURVE SMOOTH",
"206 414 OFFCURVE",
"232 392 OFFCURVE",
"232 360 CURVE SMOOTH",
"232 322 OFFCURVE",
"202 284 OFFCURVE",
"157 264 CURVE",
"92 250 LINE",
"99 188 LINE",
"108 178 LINE",
"210 178 OFFCURVE",
"256 153 OFFCURVE",
"256 98 CURVE SMOOTH",
"256 43 OFFCURVE",
"194 3 OFFCURVE",
"110 3 CURVE SMOOTH",
"79 3 OFFCURVE",
"50 7 OFFCURVE",
"24 16 CURVE"
);
}
);
width = 431;
}
);
unicode = 0033;
},
{
glyphname = four;
lastChange = "2014-09-12 03:52:47 -0300";
layers = (
{
layerId = "F8053E42-0B7C-4D2D-91AF-B2EFB3EA087D";
name = Bold;
paths = (
{
closed = 1;
nodes = (
"74 73 OFFCURVE",
"163 71 OFFCURVE",
"242 69 CURVE",
"240 -3 OFFCURVE",
"236 -90 OFFCURVE",
"236 -90 CURVE",
"244 -100 LINE",
"359 -88 LINE",
"367 -79 LINE",
"367 -79 OFFCURVE",
"362 -7 OFFCURVE",
"361 66 CURVE",
"409 64 OFFCURVE",
"441 63 OFFCURVE",
"441 63 CURVE",
"450 146 LINE",
"442 157 LINE",
"360 157 LINE",
"360 499 LINE",
"276 510 LINE",
"275 510 OFFCURVE",
"271 508 OFFCURVE",
"270 508 CURVE",
"5 140 LINE",
"4 118 OFFCURVE",
"3 95 OFFCURVE",
"2 73 CURVE"
);
},
{
closed = 1;
nodes = (
"232 335 LINE",
"242 335 LINE",
"242 157 LINE",
"107 157 LINE"
);
}
);
width = 468;
}
);
unicode = 0034;
},
{
glyphname = five;
lastChange = "2014-09-12 03:52:47 -0300";
layers = (
{
layerId = "F8053E42-0B7C-4D2D-91AF-B2EFB3EA087D";
name = Bold;
paths = (
{
closed = 1;
nodes = (
"384 223 OFFCURVE",
"297 267 OFFCURVE",
"146 297 CURVE",
"154 386 LINE",
"262 386 OFFCURVE",
"354 378 OFFCURVE",
"354 378 CURVE",
"366 391 LINE",
"392.01 538 LINE",
"337 534 LINE",
"327 504 OFFCURVE",
"313 496 OFFCURVE",
"274 494 CURVE SMOOTH",
"81 487 LINE",
"73 479 LINE",
"73 479 OFFCURVE",
"66 340 OFFCURVE",
"53 209 CURVE",
"62 198 LINE",
"203 178 OFFCURVE",
"251 151 OFFCURVE",
"251 99 CURVE SMOOTH",
"251 42 OFFCURVE",
"186 3 OFFCURVE",
"100 3 CURVE SMOOTH",
"71 3 OFFCURVE",
"42 7 OFFCURVE",
"14 16 CURVE",
"1 2 LINE",
"6 -76 OFFCURVE",
"29 -100 OFFCURVE",
"81 -100 CURVE SMOOTH",
"223 -100 OFFCURVE",
"384 11 OFFCURVE",
"384 130 CURVE SMOOTH"
);
}
);
width = 427;
}
);
unicode = 0035;
},
{
glyphname = six;
lastChange = "2014-09-12 03:52:47 -0300";
layers = (
{
layerId = "F8053E42-0B7C-4D2D-91AF-B2EFB3EA087D";
name = Bold;
paths = (
{
closed = 1;
nodes = (
"385 593 LINE",
"375 598 LINE",
"375 598 OFFCURVE",
"28 506 OFFCURVE",
"28 204 CURVE SMOOTH",
"28 77 OFFCURVE",
"103 -12 OFFCURVE",
"222 -12 CURVE SMOOTH",
"354 -12 OFFCURVE",
"439 73 OFFCURVE",
"439 191 CURVE SMOOTH",
"439 282 OFFCURVE",
"378 361 OFFCURVE",
"271 361 CURVE SMOOTH",
"246 357 OFFCURVE",
"194 327 OFFCURVE",
"185 324 CURVE",
"180 330 LINE",
"241 480 OFFCURVE",
"405 538 OFFCURVE",
"405 538 CURVE"
);
},
{
closed = 1;
nodes = (
"286 273 OFFCURVE",
"320 227 OFFCURVE",
"320 166 CURVE SMOOTH",
"320 103 OFFCURVE",
"291 69 OFFCURVE",
"240 69 CURVE SMOOTH",
"183 69 OFFCURVE",
"150 119 OFFCURVE",
"150 203 CURVE SMOOTH",
"150 217 OFFCURVE",
"151 231 OFFCURVE",
"153 245 CURVE",
"166 255 OFFCURVE",
"198 273 OFFCURVE",
"232 273 CURVE SMOOTH"
);
}
);
width = 464;
}
);
unicode = 0036;
},
{
glyphname = seven;
lastChange = "2014-09-12 03:52:47 -0300";
layers = (
{
layerId = "F8053E42-0B7C-4D2D-91AF-B2EFB3EA087D";
name = Bold;
paths = (
{
closed = 1;
nodes = (
"201 -100 LINE",
"232 13 LINE",
"281 132 OFFCURVE",
"331 247 OFFCURVE",
"428 450 CURVE",
"389 498 LINE",
"172 498 LINE SMOOTH",
"110 498 OFFCURVE",
"50 502 OFFCURVE",
"50 502 CURVE",
"44 497 LINE",
"39 406 OFFCURVE",
"25 292 OFFCURVE",
"25 292 CURVE",
"85 298 LINE",
"97 366 OFFCURVE",
"109 381 OFFCURVE",
"172 386 CURVE SMOOTH",
"306 394 LINE",
"83 -48 LINE",
"94 -73 LINE",
"185 -100 LINE"
);
}
);
width = 427;
}
);
unicode = 0037;
},
{
glyphname = eight;
lastChange = "2014-09-12 03:52:47 -0300";
layers = (
{
layerId = "F8053E42-0B7C-4D2D-91AF-B2EFB3EA087D";
name = Bold;
paths = (
{
closed = 1;
nodes = (
"38 43 OFFCURVE",
"121 -12 OFFCURVE",
"224 -12 CURVE SMOOTH",
"347 -12 OFFCURVE",
"439 69 OFFCURVE",
"439 174 CURVE SMOOTH",
"439 249 OFFCURVE",
"390 291 OFFCURVE",
"335 323 CURVE",
"375 344 OFFCURVE",
"425 387 OFFCURVE",
"425 458 CURVE SMOOTH",
"425 544 OFFCURVE",
"343 598 OFFCURVE",
"252 598 CURVE SMOOTH",
"136 598 OFFCURVE",
"51 520 OFFCURVE",
"51 429 CURVE SMOOTH",
"51 355 OFFCURVE",
"96 311 OFFCURVE",
"150 278 CURVE",
"105 258 OFFCURVE",
"38 214 OFFCURVE",
"38 130 CURVE SMOOTH"
);
},
{
closed = 1;
nodes = (
"186 62 OFFCURVE",
"147 105 OFFCURVE",
"147 156 CURVE SMOOTH",
"147 207 OFFCURVE",
"181 233 OFFCURVE",
"203 247 CURVE",
"265 216 OFFCURVE",
"324 191 OFFCURVE",
"324 140 CURVE SMOOTH",
"324 94 OFFCURVE",
"288 62 OFFCURVE",
"241 62 CURVE SMOOTH"
);
},
{
closed = 1;
nodes = (
"168 489 OFFCURVE",
"195 519 OFFCURVE",
"239 519 CURVE SMOOTH",
"283 519 OFFCURVE",
"315 489 OFFCURVE",
"315 435 CURVE SMOOTH",
"315 393 OFFCURVE",
"294 368 OFFCURVE",
"275 353 CURVE",
"219 381 OFFCURVE",
"168 405 OFFCURVE",
"168 453 CURVE SMOOTH"
);
}
);
width = 479;
}
);
unicode = 0038;
},
{
glyphname = nine;
lastChange = "2014-09-12 03:52:47 -0300";
layers = (
{
layerId = "F8053E42-0B7C-4D2D-91AF-B2EFB3EA087D";
name = Bold;
paths = (
{
closed = 1;
nodes = (
"78 -95 LINE",
"88 -101 LINE",
"88 -101 OFFCURVE",
"435 -8 OFFCURVE",
"435 294 CURVE SMOOTH",
"435 421 OFFCURVE",
"360 510 OFFCURVE",
"241 510 CURVE SMOOTH",
"109 510 OFFCURVE",
"24 425 OFFCURVE",
"24 307 CURVE SMOOTH",
"24 215 OFFCURVE",
"85 137 OFFCURVE",
"193 137 CURVE SMOOTH",
"217 140 OFFCURVE",
"269 171 OFFCURVE",
"278 174 CURVE",
"282 167 LINE",
"222 17 OFFCURVE",
"58 -40 OFFCURVE",
"58 -40 CURVE"
);
},
{
closed = 1;
nodes = (
"177 225 OFFCURVE",
"144 269 OFFCURVE",
"144 332 CURVE SMOOTH",
"144 395 OFFCURVE",
"173 429 OFFCURVE",
"225 429 CURVE SMOOTH",
"281 429 OFFCURVE",
"314 378 OFFCURVE",
"314 295 CURVE SMOOTH",
"314 280 OFFCURVE",
"313 266 OFFCURVE",
"311 252 CURVE",
"297 243 OFFCURVE",
"266 225 OFFCURVE",
"232 225 CURVE SMOOTH"
);
}
);
width = 464;
}
);
unicode = 0039;
},
{
glyphname = zero.lf;
lastChange = "2014-09-12 03:52:47 -0300";
layers = (
{
layerId = "F8053E42-0B7C-4D2D-91AF-B2EFB3EA087D";
name = Bold;
paths = (
{
closed = 1;
nodes = (
"388 -12 OFFCURVE",
"481 114 OFFCURVE",
"481 308 CURVE SMOOTH",
"481 488 OFFCURVE",
"401 598 OFFCURVE",
"270 598 CURVE SMOOTH",
"127 598 OFFCURVE",
"32 473 OFFCURVE",
"32 281 CURVE SMOOTH",
"32 98 OFFCURVE",
"112 -12 OFFCURVE",
"245 -12 CURVE SMOOTH"
);
},
{
closed = 1;
nodes = (
"173 115 OFFCURVE",
"119 183 OFFCURVE",
"119 295 CURVE SMOOTH",
"119 403 OFFCURVE",
"166 465 OFFCURVE",
"250 465 CURVE SMOOTH",
"340 465 OFFCURVE",
"394 397 OFFCURVE",
"394 284 CURVE SMOOTH",
"394 177 OFFCURVE",
"346 115 OFFCURVE",
"261 115 CURVE SMOOTH"
);
}
);
width = 513;
}
);
},
{
glyphname = one.lf;
lastChange = "2014-09-12 03:52:47 -0300";
layers = (
{
layerId = "F8053E42-0B7C-4D2D-91AF-B2EFB3EA087D";
name = Bold;
paths = (
{
closed = 1;
nodes = (
"261.99 530.99 OFFCURVE",
"272 549 OFFCURVE",
"295 569 CURVE",
"285 598 LINE",
"284 598 OFFCURVE",
"245 591 OFFCURVE",
"148 578 CURVE SMOOTH",
"102 571 OFFCURVE",
"49 565 OFFCURVE",
"28 564 CURVE",
"22 506 LINE",
"28 499 LINE",
"28 499 OFFCURVE",
"58 504 OFFCURVE",
"78 504 CURVE SMOOTH",
"114 504 OFFCURVE",
"129 495 OFFCURVE",
"129 447 CURVE SMOOTH",
"129 146 LINE SMOOTH",
"129 78 OFFCURVE",
"109 58 OFFCURVE",
"40 52 CURVE",
"32 -11 LINE",
"32 -11 OFFCURVE",
"126 0 OFFCURVE",
"187 0 CURVE SMOOTH",
"238 0 OFFCURVE",
"331 -4 OFFCURVE",
"331 -4 CURVE",
"342 63 LINE",
"339 68 LINE",
"339 68 OFFCURVE",
"315 65 OFFCURVE",
"291 65 CURVE SMOOTH",
"258 65 OFFCURVE",
"247 83 OFFCURVE",
"247 132 CURVE SMOOTH",
"247 239 OFFCURVE",
"251 416 OFFCURVE",
"257 490 CURVE"
);
}
);
width = 366;
}
);
},
{
glyphname = two.lf;
lastChange = "2014-09-12 03:52:47 -0300";
layers = (
{
layerId = "F8053E42-0B7C-4D2D-91AF-B2EFB3EA087D";
name = Bold;
paths = (
{
closed = 1;
nodes = (
"30 -10 LINE",
"104 0 LINE",
"198 0 OFFCURVE",
"435 -9 OFFCURVE",
"435 -9 CURVE",
"449 3 LINE",
"456 84 OFFCURVE",
"478 192 OFFCURVE",
"478 192 CURVE",
"402 185 LINE",
"388 113 OFFCURVE",
"369 94 OFFCURVE",
"306 94 CURVE SMOOTH",
"199 94 LINE",
"195 102 LINE",
"353 284 OFFCURVE",
"407 376 OFFCURVE",
"407 459 CURVE SMOOTH",
"407 543 OFFCURVE",
"337 598 OFFCURVE",
"232 598 CURVE SMOOTH",
"157 598 OFFCURVE",
"73 546 OFFCURVE",
"28 475 CURVE",
"46 395 LINE",
"59 395 LINE",
"97 453 OFFCURVE",
"145 485 OFFCURVE",
"196 485 CURVE SMOOTH",
"242 485 OFFCURVE",
"268 463 OFFCURVE",
"268 421 CURVE SMOOTH",
"268 363 OFFCURVE",
"225 283 OFFCURVE",
"135 174 CURVE SMOOTH",
"20 47 LINE"
);
}
);
width = 494;
}
);
},
{
glyphname = three.lf;
lastChange = "2014-09-12 03:52:47 -0300";
layers = (
{
layerId = "F8053E42-0B7C-4D2D-91AF-B2EFB3EA087D";
name = Bold;
paths = (
{
closed = 1;
nodes = (
"27 90 LINE",
"31 16 OFFCURVE",
"51 -12 OFFCURVE",
"108 -12 CURVE SMOOTH",
"250 -12 OFFCURVE",
"396 90 OFFCURVE",
"396 189 CURVE SMOOTH",
"396 258 OFFCURVE",
"351 304 OFFCURVE",
"257 332 CURVE",
"257 341 LINE",
"324 369 OFFCURVE",
"367 423 OFFCURVE",
"367 479 CURVE SMOOTH",
"367 549 OFFCURVE",
"307 598 OFFCURVE",
"219 598 CURVE SMOOTH",
"151 598 OFFCURVE",
"61 549 OFFCURVE",
"33 530 CURVE",
"54 459 LINE",
"58 459 OFFCURVE",
"62 459 OFFCURVE",
"66 459 CURVE",
"101 486 OFFCURVE",
"143 502 OFFCURVE",
"177 502 CURVE SMOOTH",
"214 502 OFFCURVE",
"237 480 OFFCURVE",
"237 445 CURVE SMOOTH",
"237 407 OFFCURVE",
"207 369 OFFCURVE",
"162 349 CURVE",
"97 334 LINE",
"105 273 LINE",
"113 263 LINE",
"216 263 OFFCURVE",
"261 238 OFFCURVE",
"261 180 CURVE SMOOTH",
"261 129 OFFCURVE",
"205 91 OFFCURVE",
"126 91 CURVE SMOOTH",
"96 91 OFFCURVE",
"67 96 OFFCURVE",
"40 104 CURVE"
);
}
);
width = 435;
}
);
},
{
glyphname = four.lf;
lastChange = "2014-09-12 03:52:47 -0300";
layers = (
{
layerId = "F8053E42-0B7C-4D2D-91AF-B2EFB3EA087D";
name = Bold;
paths = (
{
closed = 1;
nodes = (
"72 159 OFFCURVE",
"159 157 OFFCURVE",
"237 155 CURVE",
"236 84 OFFCURVE",
"231 -1 OFFCURVE",
"231 -1 CURVE",
"239 -11 LINE",
"355 1 LINE",
"363 9 LINE",
"363 9 OFFCURVE",
"358 81 OFFCURVE",
"356 152 CURVE",
"404 151 OFFCURVE",
"436 150 OFFCURVE",
"436 150 CURVE",
"446 232 LINE",
"437 244 LINE",
"356 244 LINE",
"356 588 LINE",
"272 599 LINE",
"271 599 OFFCURVE",
"267 597 OFFCURVE",
"266 597 CURVE",
"3 226 LINE",
"2 204 OFFCURVE",
"1 181 OFFCURVE",
"0 159 CURVE"
);
},
{
closed = 1;
nodes = (
"228 424 LINE",
"238 424 LINE",
"238 244 LINE",
"104 244 LINE"
);
}
);
width = 469;
}
);
},
{
glyphname = five.lf;
lastChange = "2014-09-12 03:52:47 -0300";
layers = (
{
layerId = "F8053E42-0B7C-4D2D-91AF-B2EFB3EA087D";
name = Bold;
paths = (
{
closed = 1;
nodes = (
"385 301 OFFCURVE",
"314 352 OFFCURVE",
"147 372 CURVE",
"154 475 LINE",
"262 475 OFFCURVE",
"358 467 OFFCURVE",
"358 467 CURVE",
"371 479 LINE",
"397 626 LINE",
"342 622 LINE",
"331 592 OFFCURVE",
"317 584 OFFCURVE",
"279 582 CURVE SMOOTH",
"81 575 LINE",
"73 567 LINE",
"73 567 OFFCURVE",
"66 425 OFFCURVE",
"55 291 CURVE",
"64 280 LINE",
"195 272 OFFCURVE",
"252 243 OFFCURVE",
"252 185 CURVE SMOOTH",
"252 130 OFFCURVE",
"198 91 OFFCURVE",
"117 91 CURVE SMOOTH",
"86 91 OFFCURVE",
"58 96 OFFCURVE",
"31 104 CURVE",
"18 90 LINE",
"23 15 OFFCURVE",
"44 -12 OFFCURVE",
"98 -12 CURVE SMOOTH",
"240 -12 OFFCURVE",
"385 97 OFFCURVE",
"385 202 CURVE SMOOTH"
);
}
);
width = 428;
}
);
},
{
glyphname = six.lf;
lastChange = "2014-09-12 03:52:47 -0300";
layers = (
{
layerId = "F8053E42-0B7C-4D2D-91AF-B2EFB3EA087D";
name = Bold;
paths = (
{
closed = 1;
nodes = (
"385 593 LINE",
"375 598 LINE",
"375 598 OFFCURVE",
"28 506 OFFCURVE",
"28 204 CURVE SMOOTH",
"28 77 OFFCURVE",
"103 -12 OFFCURVE",
"222 -12 CURVE SMOOTH",
"354 -12 OFFCURVE",
"439 73 OFFCURVE",
"439 191 CURVE SMOOTH",
"439 282 OFFCURVE",
"378 361 OFFCURVE",
"271 361 CURVE SMOOTH",
"246 357 OFFCURVE",
"194 327 OFFCURVE",
"185 324 CURVE",
"180 330 LINE",
"241 480 OFFCURVE",
"405 538 OFFCURVE",
"405 538 CURVE"
);
},
{
closed = 1;
nodes = (
"286 273 OFFCURVE",
"320 227 OFFCURVE",
"320 166 CURVE SMOOTH",
"320 103 OFFCURVE",
"291 69 OFFCURVE",
"240 69 CURVE SMOOTH",
"183 69 OFFCURVE",
"150 119 OFFCURVE",
"150 203 CURVE SMOOTH",
"150 217 OFFCURVE",
"151 231 OFFCURVE",
"153 245 CURVE",
"166 255 OFFCURVE",
"198 273 OFFCURVE",
"232 273 CURVE SMOOTH"
);
}
);
width = 464;
}
);
},
{
glyphname = seven.lf;
lastChange = "2014-09-12 03:52:47 -0300";
layers = (
{
layerId = "F8053E42-0B7C-4D2D-91AF-B2EFB3EA087D";
name = Bold;
paths = (
{
closed = 1;
nodes = (
"201 -12 LINE",
"232 102 LINE",
"281 221 OFFCURVE",
"331 336 OFFCURVE",
"428 538 CURVE",
"389 586 LINE",
"172 586 LINE SMOOTH",
"110 586 OFFCURVE",
"50 590 OFFCURVE",
"50 590 CURVE",
"44 585 LINE",
"39 495 OFFCURVE",
"25 381 OFFCURVE",
"25 381 CURVE",
"85 387 LINE",
"97 455 OFFCURVE",
"109 470 OFFCURVE",
"172 474 CURVE SMOOTH",
"306 482 LINE",
"83 41 LINE",
"94 16 LINE",
"185 -12 LINE"
);
}
);
width = 426;
}
);
},
{
glyphname = eight.lf;
lastChange = "2014-09-12 03:52:47 -0300";
layers = (
{
layerId = "F8053E42-0B7C-4D2D-91AF-B2EFB3EA087D";
name = Bold;
paths = (
{
closed = 1;
nodes = (
"38 43 OFFCURVE",
"121 -12 OFFCURVE",
"224 -12 CURVE SMOOTH",
"347 -12 OFFCURVE",
"439 69 OFFCURVE",
"439 174 CURVE SMOOTH",
"439 249 OFFCURVE",
"390 291 OFFCURVE",
"335 323 CURVE",
"375 344 OFFCURVE",
"425 387 OFFCURVE",
"425 458 CURVE SMOOTH",
"425 544 OFFCURVE",
"343 598 OFFCURVE",
"252 598 CURVE SMOOTH",
"136 598 OFFCURVE",
"51 520 OFFCURVE",
"51 429 CURVE SMOOTH",
"51 355 OFFCURVE",
"96 311 OFFCURVE",
"150 278 CURVE",
"105 258 OFFCURVE",
"38 214 OFFCURVE",
"38 130 CURVE SMOOTH"
);
},
{
closed = 1;
nodes = (
"186 62 OFFCURVE",
"147 105 OFFCURVE",
"147 156 CURVE SMOOTH",
"147 207 OFFCURVE",
"181 233 OFFCURVE",
"203 247 CURVE",
"265 216 OFFCURVE",
"324 191 OFFCURVE",
"324 140 CURVE SMOOTH",
"324 94 OFFCURVE",
"288 62 OFFCURVE",
"241 62 CURVE SMOOTH"
);
},
{
closed = 1;
nodes = (
"168 489 OFFCURVE",
"195 519 OFFCURVE",
"239 519 CURVE SMOOTH",
"283 519 OFFCURVE",
"315 489 OFFCURVE",
"315 435 CURVE SMOOTH",
"315 393 OFFCURVE",
"294 368 OFFCURVE",
"275 353 CURVE",
"219 381 OFFCURVE",
"168 405 OFFCURVE",
"168 453 CURVE SMOOTH"
);
}
);
width = 479;
}
);
},
{
glyphname = nine.lf;
lastChange = "2014-09-12 03:52:47 -0300";
layers = (
{
layerId = "F8053E42-0B7C-4D2D-91AF-B2EFB3EA087D";
name = Bold;
paths = (
{
closed = 1;
nodes = (
"78 -6 LINE",
"88 -12 LINE",
"88 -12 OFFCURVE",
"435 80 OFFCURVE",
"435 383 CURVE SMOOTH",
"435 509 OFFCURVE",
"360 599 OFFCURVE",
"241 599 CURVE SMOOTH",
"109 599 OFFCURVE",
"24 514 OFFCURVE",
"24 395 CURVE SMOOTH",
"24 304 OFFCURVE",
"85 226 OFFCURVE",
"193 226 CURVE SMOOTH",
"217 229 OFFCURVE",
"269 259 OFFCURVE",
"278 263 CURVE",
"282 256 LINE",
"222 106 OFFCURVE",
"58 49 OFFCURVE",
"58 49 CURVE"
);
},
{
closed = 1;
nodes = (
"177 314 OFFCURVE",
"144 358 OFFCURVE",
"144 420 CURVE SMOOTH",
"144 484 OFFCURVE",
"173 517 OFFCURVE",
"225 517 CURVE SMOOTH",
"281 517 OFFCURVE",
"314 467 OFFCURVE",
"314 384 CURVE SMOOTH",
"314 369 OFFCURVE",
"313 354 OFFCURVE",
"311 341 CURVE",
"297 332 OFFCURVE",
"266 314 OFFCURVE",
"232 314 CURVE SMOOTH"
);
}
);
width = 464;
}
);
},
{
glyphname = zero.sinf;
lastChange = "2014-09-12 03:52:47 -0300";
layers = (
{
layerId = "F8053E42-0B7C-4D2D-91AF-B2EFB3EA087D";
name = Bold;
paths = (
{
closed = 1;
nodes = (
"266 -128 OFFCURVE",
"325 -49 OFFCURVE",
"325 79 CURVE SMOOTH",
"325 199 OFFCURVE",
"274 269 OFFCURVE",
"186 269 CURVE SMOOTH",
"90 269 OFFCURVE",
"29 189 OFFCURVE",
"29 62 CURVE SMOOTH",
"29 -59 OFFCURVE",
"80 -128 OFFCURVE",
"170 -128 CURVE SMOOTH"
);
},
{
closed = 1;
nodes = (
"126 -29 OFFCURVE",
"95 7 OFFCURVE",
"95 70 CURVE SMOOTH",
"95 133 OFFCURVE",
"121 166 OFFCURVE",
"173 166 CURVE SMOOTH",
"228 166 OFFCURVE",
"259 130 OFFCURVE",
"259 65 CURVE SMOOTH",
"259 3 OFFCURVE",
"232 -29 OFFCURVE",
"180 -29 CURVE SMOOTH"
);
}
);
width = 353;
}
);
},
{
glyphname = one.sinf;
lastChange = "2014-09-12 03:52:47 -0300";
layers = (
{
layerId = "F8053E42-0B7C-4D2D-91AF-B2EFB3EA087D";
name = Bold;
paths = (
{
closed = 1;
nodes = (
"195 221 OFFCURVE",
"202 234 OFFCURVE",
"216 245 CURVE",
"208 269 LINE",
"207 269 OFFCURVE",
"171 263 OFFCURVE",
"107 255 CURVE SMOOTH",
"78 251 OFFCURVE",
"45 247 OFFCURVE",
"24 245 CURVE",
"20 203 LINE",
"24 198 LINE",
"24 198 OFFCURVE",
"44 200 OFFCURVE",
"57 200 CURVE SMOOTH",
"81 200 OFFCURVE",
"89 195 OFFCURVE",
"89 164 CURVE SMOOTH",
"89 -33 LINE SMOOTH",
"89 -65 OFFCURVE",
"71 -77 OFFCURVE",
"31 -81 CURVE",
"26 -127 LINE",
"26 -127 OFFCURVE",
"92 -120 OFFCURVE",
"137 -120 CURVE SMOOTH",
"172 -120 OFFCURVE",
"235 -123 OFFCURVE",
"235 -123 CURVE",
"244 -74 LINE",
"241 -70 LINE",
"241 -70 OFFCURVE",
"226 -72 OFFCURVE",
"211 -72 CURVE SMOOTH",
"190 -72 OFFCURVE",
"183 -59 OFFCURVE",
"183 -29 CURVE SMOOTH",
"183 58 OFFCURVE",
"186 157 OFFCURVE",
"190 196 CURVE"
);
}
);
width = 265;
}
);
},
{
glyphname = two.sinf;
lastChange = "2014-09-12 03:52:47 -0300";
layers = (
{
layerId = "F8053E42-0B7C-4D2D-91AF-B2EFB3EA087D";
name = Bold;
paths = (
{
closed = 1;
nodes = (
"28 -126 LINE",
"83 -120 LINE",
"149 -120 OFFCURVE",
"305 -126 OFFCURVE",
"305 -126 CURVE",
"316 -117 LINE",
"320 -62 OFFCURVE",
"335 15 OFFCURVE",
"335 15 CURVE",
"273 10 LINE",
"266 -36 OFFCURVE",
"253 -49 OFFCURVE",
"214 -49 CURVE SMOOTH",
"157 -49 LINE",
"154 -44 LINE",
"254 63 OFFCURVE",
"288 120 OFFCURVE",
"288 175 CURVE SMOOTH",
"288 231 OFFCURVE",
"239 269 OFFCURVE",
"167 269 CURVE SMOOTH",
"117 269 OFFCURVE",
"61 236 OFFCURVE",
"28 190 CURVE",
"42 128 LINE",
"52 128 LINE",
"77 163 OFFCURVE",
"107 181 OFFCURVE",
"138 181 CURVE SMOOTH",
"165 181 OFFCURVE",
"180 169 OFFCURVE",
"180 145 CURVE SMOOTH",
"181 113 OFFCURVE",
"156 71 OFFCURVE",
"103 9 CURVE SMOOTH",
"22 -78 LINE"
);
}
);
width = 352;
}
);
},
{
glyphname = three.sinf;
lastChange = "2014-09-12 03:52:47 -0300";
layers = (
{
layerId = "F8053E42-0B7C-4D2D-91AF-B2EFB3EA087D";
name = Bold;
paths = (
{
closed = 1;
nodes = (
"22 -53 LINE",
"25 -108 OFFCURVE",
"40 -128 OFFCURVE",
"81 -128 CURVE SMOOTH",
"181 -128 OFFCURVE",
"279 -63 OFFCURVE",
"279 1 CURVE SMOOTH",
"279 46 OFFCURVE",
"250 76 OFFCURVE",
"186 96 CURVE",
"186 102 LINE",
"231 119 OFFCURVE",
"260 153 OFFCURVE",
"260 190 CURVE SMOOTH",
"260 237 OFFCURVE",
"217 269 OFFCURVE",
"156 269 CURVE SMOOTH",
"112 269 OFFCURVE",
"52 242 OFFCURVE",
"26 224 CURVE",
"43 169 LINE",
"52 169 LINE",
"76 186 OFFCURVE",
"103 196 OFFCURVE",
"124 196 CURVE SMOOTH",
"146 196 OFFCURVE",
"159 184 OFFCURVE",
"159 164 CURVE SMOOTH",
"159 141 OFFCURVE",
"142 120 OFFCURVE",
"114 108 CURVE",
"71 100 LINE",
"77 51 LINE",
"84 43 LINE",
"145 43 OFFCURVE",
"173 30 OFFCURVE",
"173 -1 CURVE SMOOTH",
"173 -31 OFFCURVE",
"139 -51 OFFCURVE",
"92 -51 CURVE SMOOTH",
"70 -51 OFFCURVE",
"51 -47 OFFCURVE",
"33 -41 CURVE"
);
}
);
width = 310;
}
);
},
{
glyphname = four.sinf;
lastChange = "2014-09-12 03:52:47 -0300";
layers = (
{
layerId = "F8053E42-0B7C-4D2D-91AF-B2EFB3EA087D";
name = Bold;
paths = (
{
closed = 1;
nodes = (
"9 -24 LINE",
"163 -26 LINE",
"163 -71 OFFCURVE",
"159 -121 OFFCURVE",
"159 -121 CURVE",
"165 -127 LINE",
"255 -120 LINE",
"262 -113 LINE",
"262 -113 OFFCURVE",
"259 -72 OFFCURVE",
"258 -29 CURVE",
"307 -30 LINE",
"314 32 LINE",
"307 40 LINE",
"257 40 LINE",
"257 261 LINE",
"186 269 LINE",
"181 267 LINE",
"11 29 LINE"
);
},
{
closed = 1;
nodes = (
"157 144 LINE",
"164 144 LINE",
"164 40 LINE",
"86 40 LINE"
);
}
);
width = 337;
}
);
},
{
glyphname = five.sinf;
lastChange = "2014-09-12 03:52:47 -0300";
layers = (
{
layerId = "F8053E42-0B7C-4D2D-91AF-B2EFB3EA087D";
name = Bold;
paths = (
{
closed = 1;
nodes = (
"272 74 OFFCURVE",
"227 107 OFFCURVE",
"116 124 CURVE",
"119 176 LINE",
"189 176 OFFCURVE",
"252 171 OFFCURVE",
"252 171 CURVE",
"261 181 LINE",
"279 285 LINE",
"236 282 LINE",
"229 263 OFFCURVE",
"220 257 OFFCURVE",
"195 256 CURVE SMOOTH",
"60 252 LINE",
"55 247 LINE",
"55 247 OFFCURVE",
"51 151 OFFCURVE",
"43 61 CURVE",
"49 53 LINE",
"133 47 OFFCURVE",
"167 31 OFFCURVE",
"167 0 CURVE SMOOTH",
"167 -30 OFFCURVE",
"135 -51 OFFCURVE",
"88 -51 CURVE SMOOTH",
"65 -51 OFFCURVE",
"46 -47 OFFCURVE",
"28 -41 CURVE",
"17 -53 LINE",
"21 -108 OFFCURVE",
"36 -128 OFFCURVE",
"76 -128 CURVE SMOOTH",
"174 -128 OFFCURVE",
"272 -59 OFFCURVE",
"272 10 CURVE SMOOTH"
);
}
);
width = 305;
}
);
},
{
glyphname = six.sinf;
lastChange = "2014-09-12 03:52:47 -0300";
layers = (
{
layerId = "F8053E42-0B7C-4D2D-91AF-B2EFB3EA087D";
name = Bold;
paths = (
{
closed = 1;
nodes = (
"267 265 LINE",
"259 269 LINE",
"259 269 OFFCURVE",
"24 211 OFFCURVE",
"24 15 CURVE SMOOTH",
"24 -71 OFFCURVE",
"76 -128 OFFCURVE",
"158 -128 CURVE SMOOTH",
"249 -128 OFFCURVE",
"307 -74 OFFCURVE",
"307 7 CURVE SMOOTH",
"307 71 OFFCURVE",
"265 119 OFFCURVE",
"196 119 CURVE SMOOTH",
"181 116 OFFCURVE",
"161 107 OFFCURVE",
"147 100 CURVE",
"143 105 LINE",
"186 189 OFFCURVE",
"283 222 OFFCURVE",
"283 222 CURVE"
);
},
{
closed = 1;
nodes = (
"197 53 OFFCURVE",
"215 29 OFFCURVE",
"215 -9 CURVE SMOOTH",
"215 -47 OFFCURVE",
"199 -65 OFFCURVE",
"169 -65 CURVE SMOOTH",
"137 -65 OFFCURVE",
"118 -38 OFFCURVE",
"118 11 CURVE SMOOTH",
"118 20 OFFCURVE",
"119 30 OFFCURVE",
"120 38 CURVE",
"129 44 OFFCURVE",
"146 53 OFFCURVE",
"166 53 CURVE SMOOTH"
);
}
);
width = 329;
}
);
},
{
glyphname = seven.sinf;
lastChange = "2014-09-12 03:52:47 -0300";
layers = (
{
layerId = "F8053E42-0B7C-4D2D-91AF-B2EFB3EA087D";
name = Bold;
paths = (
{
closed = 1;
nodes = (
"152 -127 LINE",
"175 -45 LINE",
"210 41 OFFCURVE",
"237 101 OFFCURVE",
"297 224 CURVE",
"266 261 LINE",
"120 261 LINE SMOOTH",
"79 261 OFFCURVE",
"39 264 OFFCURVE",
"39 264 CURVE",
"35 261 LINE",
"32 197 OFFCURVE",
"22 118 OFFCURVE",
"22 118 CURVE",
"68 122 LINE",
"76 165 OFFCURVE",
"83 174 OFFCURVE",
"124 177 CURVE SMOOTH",
"202 183 LINE",
"62 -90 LINE",
"69 -107 LINE",
"138 -127 LINE"
);
}
);
width = 304;
}
);
},
{
glyphname = eight.sinf;
lastChange = "2014-09-12 03:52:47 -0300";
layers = (
{
layerId = "F8053E42-0B7C-4D2D-91AF-B2EFB3EA087D";
name = Bold;
paths = (
{
closed = 1;
nodes = (
"30 -90 OFFCURVE",
"85 -128 OFFCURVE",
"157 -128 CURVE SMOOTH",
"241 -128 OFFCURVE",
"304 -75 OFFCURVE",
"304 -4 CURVE SMOOTH",
"304 44 OFFCURVE",
"273 71 OFFCURVE",
"239 91 CURVE",
"265 105 OFFCURVE",
"296 131 OFFCURVE",
"296 176 CURVE SMOOTH",
"296 231 OFFCURVE",
"241 269 OFFCURVE",
"176 269 CURVE SMOOTH",
"97 269 OFFCURVE",
"37 218 OFFCURVE",
"37 157 CURVE SMOOTH",
"37 108 OFFCURVE",
"65 79 OFFCURVE",
"99 57 CURVE",
"70 45 OFFCURVE",
"30 17 OFFCURVE",
"30 -34 CURVE SMOOTH"
);
},
{
closed = 1;
nodes = (
"135 -70 OFFCURVE",
"113 -47 OFFCURVE",
"113 -16 CURVE SMOOTH",
"113 10 OFFCURVE",
"129 24 OFFCURVE",
"140 33 CURVE",
"178 15 OFFCURVE",
"213 0 OFFCURVE",
"213 -29 CURVE SMOOTH",
"213 -54 OFFCURVE",
"194 -70 OFFCURVE",
"167 -70 CURVE SMOOTH"
);
},
{
closed = 1;
nodes = (
"127 191 OFFCURVE",
"143 207 OFFCURVE",
"168 207 CURVE SMOOTH",
"194 207 OFFCURVE",
"212 190 OFFCURVE",
"212 160 CURVE SMOOTH",
"212 138 OFFCURVE",
"201 124 OFFCURVE",
"191 114 CURVE",
"157 129 OFFCURVE",
"127 144 OFFCURVE",
"127 171 CURVE SMOOTH"
);
}
);
width = 336;
}
);
},
